<svg width="201" height="148" viewBox="0 0 201 148" fill="none" xmlns="http://www.w3.org/2000/svg">
<path d="M103.914 135.745H192.989C197.296 135.745 200.789 132.258 200.789 127.958V8.40437C200.789 4.1043 197.296 0.617188 192.989 0.617188H103.914V135.745Z" fill="#332B33"/>
<path d="M107.83 132.313H196.871L196.871 3.62015H107.83L107.83 132.313Z" fill="white"/>
<path d="M113.273 18.8486L192.379 18.8486V9.41033L113.273 9.41033V18.8486Z" fill="#56A6F9" fill-opacity="0.7"/>
<path d="M113.273 65.1777L192.379 65.1777V21.0994L113.273 21.0994V65.1777Z" fill="#56A6F9" fill-opacity="0.7"/>
<path d="M113.273 126.092L192.379 126.092V70.4325H113.273V126.092Z" fill="#56A6F9" fill-opacity="0.7"/>
<path d="M109.267 135.745H22.0269C17.7618 135.745 14.3047 132.293 14.3047 128.033V8.32665C14.3047 4.06859 17.7618 0.617188 22.0269 0.617188H109.267V135.745Z" fill="#332B33"/>
<path d="M107.26 3.61914H18.2188V132.312H107.26V3.61914Z" fill="white"/>
<path d="M101.816 9.41113H22.7109V37.724H101.816V9.41113Z" fill="#56A6F9" fill-opacity="0.7"/>
<path d="M101.816 36.8389H22.7109V99.2834H101.816V36.8389Z" fill="#56A6F9" fill-opacity="0.7"/>
<path d="M101.816 103.57H22.7109V126.092H101.816V103.57Z" fill="#56A6F9" fill-opacity="0.7"/>
<path d="M180.029 101.675C176.55 96.8493 173.07 92.0219 169.592 87.1967C166.554 92.0219 163.513 96.8493 160.473 101.675C160.473 67.7823 160.473 33.8901 160.473 0H180.029V101.675Z" fill="#3F6CC1"/>
<path d="M139.002 76.074C141.793 58.9836 130.178 42.8705 113.059 40.0845C95.9404 37.2984 79.8007 48.8944 77.01 65.9848C74.2193 83.0752 85.8345 99.1882 102.953 101.974C120.072 104.76 136.212 93.1644 139.002 76.074Z" fill="#332B33"/>
<path d="M100.188 90.3216V51.7891C108.793 58.4713 117.399 65.1535 126.005 71.8358C117.399 77.997 108.793 84.1583 100.188 90.3216Z" fill="white"/>
<path d="M96.0497 25.001H27.524C26.333 25.001 25.3672 25.9652 25.3672 27.1542V44.0688C25.3672 45.2577 26.333 46.2219 27.524 46.2219H28.858V54.404C30.9348 51.6774 33.0116 48.9486 35.0884 46.2219H96.0497C97.2407 46.2219 98.2065 45.2577 98.2065 44.0688V27.1542C98.2065 25.9652 97.2407 25.001 96.0497 25.001Z" fill="white"/>
<path d="M28.4929 55.4891V46.5886H27.5229C26.132 46.5886 25 45.4584 25 44.0699V27.1574C25 25.7688 26.132 24.6387 27.5229 24.6387H96.0486C97.4395 24.6387 98.5715 25.7688 98.5715 27.1574V44.0699C98.5715 45.4584 97.4395 46.5886 96.0486 46.5886H35.2682L28.4929 55.4891ZM27.5229 25.3676C26.5339 25.3676 25.7302 26.1701 25.7302 27.1574V44.0699C25.7302 45.0572 26.5339 45.8596 27.5229 45.8596H29.223V53.3254L34.9063 45.8596H96.0486C97.0376 45.8596 97.8414 45.0572 97.8414 44.0699V27.1574C97.8414 26.1701 97.0376 25.3676 96.0486 25.3676H27.5229Z" fill="#332B33"/>
<path d="M35.2 27.9473L37.3462 32.2893L42.1479 32.9868L38.6739 36.3688L39.4946 41.1437L35.2 38.8897L30.9033 41.1437L31.7239 36.3688L28.25 32.9868L33.0516 32.2893L35.2 27.9473Z" fill="#FFCA61"/>
<path d="M52.2899 27.9473L54.4382 32.2893L59.2399 32.9868L55.7659 36.3688L56.5865 41.1437L52.2899 38.8897L47.9953 41.1437L48.8159 36.3688L45.3398 32.9868L50.1415 32.2893L52.2899 27.9473Z" fill="#FFCA61"/>
<path d="M68.95 27.9473L71.0983 32.2893L75.9 32.9868L72.424 36.3688L73.2446 41.1437L68.95 38.8897L64.6555 41.1437L65.4761 36.3688L62 32.9868L66.8017 32.2893L68.95 27.9473Z" fill="#FFCA61"/>
<path d="M85.825 27.9473L87.9733 32.2893L92.775 32.9868L89.301 36.3688L90.1196 41.1437L85.825 38.8897L81.5304 41.1437L82.351 36.3688L78.875 32.9868L83.6787 32.2893L85.825 27.9473Z" fill="#FFCA61"/>
<path d="M50.0272 95.9069C54.8394 97.9278 59.618 99.9339 64.4301 101.955C65.8399 102.547 67.2834 103.152 68.6931 103.745C71.1676 104.784 73.6084 105.81 76.0829 106.847C78.3428 104.988 80.611 103.156 82.8561 101.331L70.2039 94.2012C64.8657 91.172 59.5127 88.1765 54.1766 85.1494C50.3933 89.6175 49.9136 93.2538 50.0062 95.4343C50.0167 95.5982 50.0272 95.7641 50.0272 95.9069Z" fill="#EBA069"/>
<path d="M64.4297 101.955C65.8395 102.547 67.2829 103.152 68.6927 103.745C69.2103 100.549 69.7111 97.3879 70.2056 94.2012C68.8316 95.9258 67.4681 97.6757 66.1046 99.4255C65.5301 100.255 64.9915 101.1 64.4297 101.955Z" fill="#332B33"/>
<path d="M66.3455 104.228C67.8436 100.342 69.3397 96.4538 70.8357 92.5675C65.4617 89.9396 60.0857 87.3096 54.7117 84.6816C54.0636 89.801 53.4176 94.9224 52.7695 100.042C57.2956 101.437 61.8216 102.831 66.3455 104.228Z" fill="#FFCA61"/>
<path d="M32.2338 94.9706C28.5432 98.6552 24.8777 102.315 21.1849 106.001C20.1034 107.081 18.9966 108.186 17.9151 109.266C16.0171 111.16 14.1445 113.03 12.2465 114.925C9.4522 114.055 6.65578 113.213 3.88672 112.37L12.9051 101C16.7031 96.1827 20.5242 91.3911 24.3222 86.5742C29.5174 89.2862 31.3353 92.4708 32.0739 94.5231C32.1286 94.6807 32.1812 94.8404 32.2338 94.9706Z" fill="#EBA069"/>
<path d="M21.1861 106.003C20.1045 107.082 18.9977 108.187 17.9162 109.267C16.2287 106.503 14.5685 103.765 12.9062 101.001C14.8315 102.081 16.7568 103.186 18.68 104.291C19.5238 104.845 20.3423 105.423 21.1861 106.003Z" fill="#332B33"/>
<path d="M83.5569 78.3193C85.196 78.7458 86.8288 79.1785 88.4617 79.6091C88.4427 82.8127 88.3333 85.7536 88.1818 88.3836C88.1061 89.705 88.0135 90.9444 87.9293 92.0913C87.8241 93.5324 87.7021 94.6247 87.6853 94.7865C86.5469 105.649 81.5075 107.649 81.5075 107.649C81.3581 107.71 78.5006 108.804 76.0977 107.3C74.1808 106.101 73.2108 103.66 73.5517 101.021C75.7694 97.2422 78.0293 92.8665 80.0955 87.9026C81.4948 84.5415 82.629 81.3275 83.5569 78.3193Z" fill="#EBA069"/>
<path d="M31.1942 123.98C30.4219 125.484 29.6456 126.981 28.8691 128.479C25.7403 127.765 22.8891 127.021 20.3494 126.303C19.0743 125.942 17.8834 125.582 16.7787 125.253C15.3942 124.837 14.3526 124.479 14.1969 124.429C3.82344 120.963 2.96075 115.617 2.96075 115.617C2.93339 115.457 2.48311 112.436 4.47573 110.422C6.06437 108.815 8.66299 108.399 11.169 109.302C14.3821 112.283 18.1695 115.436 22.5756 118.526C25.5593 120.618 28.4567 122.423 31.1942 123.98Z" fill="#EBA069"/>
<path d="M42.8401 73.1526C42.9958 73.934 43.141 74.6965 43.2967 75.478C43.4692 76.3225 43.6228 77.1775 43.7954 78.0219C44.0858 79.5491 44.393 81.0637 44.7002 82.5804C41.9963 82.9081 39.2925 83.2379 36.6055 83.5551C37.0936 80.0659 37.5944 76.5935 38.1015 73.0938C39.6796 73.1106 41.2599 73.1316 42.8401 73.1526Z" fill="#EBA069"/>
<path d="M42.1534 73.6855L43.298 75.4753C43.4706 76.3198 43.6242 77.1748 43.7967 78.0192C42.3154 76.8114 40.8404 75.574 39.3633 74.3388C40.2765 74.1225 41.2087 73.8956 42.1534 73.6855Z" fill="#332B33"/>
<path d="M46.4607 72.5134C46.1872 72.4588 45.9137 72.4042 45.6401 72.3496L45.4297 70.9274C45.6632 70.7111 45.8968 70.4947 46.1304 70.2783C46.2188 70.5388 46.3829 70.877 46.7195 71.0241C46.8963 71.1018 47.012 71.0787 47.0793 71.1669C47.1761 71.2951 47.1403 71.6186 46.4607 72.5134Z" fill="#EBA069"/>
<path d="M43.3325 76.1564L43.5388 76.1207C45.5019 75.7741 46.8759 74.0096 46.6045 72.182L45.5461 65.0439C45.0621 64.8023 43.3325 64.0104 41.039 64.4557C38.897 64.8716 37.5819 66.1131 37.1758 66.527L38.089 72.6861C38.4404 75.0515 40.7886 76.6081 43.3325 76.1564Z" fill="#EBA069"/>
<path d="M46.143 65.1213C46.2798 65.2074 46.6185 65.4469 46.7195 65.8607C46.8479 66.3859 46.5281 66.9257 46.1935 67.1967C45.2109 67.9929 43.778 66.6442 42.869 67.3585C41.9579 68.0727 42.4292 69.8751 41.7833 70.0347C41.3519 70.1398 40.9605 69.3814 40.4913 69.5474C40.1315 69.6734 40.0263 70.2364 39.9968 70.396C39.8201 71.3413 40.4619 71.7993 40.3335 72.3665C40.2409 72.7803 39.738 73.2488 38.0315 73.5597C37.758 71.2867 37.4845 69.0117 37.2109 66.7367C37.5329 66.2031 38.0253 65.533 38.7638 64.907C40.4303 63.4974 42.2819 63.216 43.092 63.1445C44.1883 63.8293 44.8448 64.0436 45.2509 64.1003C45.3434 64.1129 45.6128 64.1444 45.8274 64.344C46.0799 64.5793 46.1304 64.9217 46.143 65.1213Z" fill="#332B33"/>
<path d="M53.2855 125.007C51.7537 126.129 46.2703 129.858 38.4681 129.446C29.8748 128.992 24.5155 123.835 23.293 122.596C24.2083 119.598 25.1236 116.6 26.0389 113.603C25.5507 104.442 25.0625 95.2806 24.5743 86.1217C26.5628 84.771 31.0909 82.0947 37.4139 81.7691C46.1461 81.3175 52.3134 85.6554 54.0493 86.9725C53.0625 95.6672 52.0756 104.362 51.0887 113.057C51.821 117.037 52.5532 121.022 53.2855 125.007Z" fill="#EBA069"/>
<path d="M54.8761 102.797C45.0434 102.379 35.2108 101.959 25.3781 101.541C24.8016 96.4761 24.225 91.4114 23.6484 86.3445C25.4222 85.3299 27.5474 84.267 30.0177 83.3091C32.5532 82.326 34.8993 81.6663 36.9361 81.2168C36.8414 83.7439 38.9288 85.6723 41.035 85.5232C42.7793 85.3992 44.3554 83.8594 44.5511 81.826C46.9246 82.3596 49.4138 83.0066 51.9955 83.7943C53.2138 84.1661 54.3943 84.5506 55.5389 84.9455C55.3159 90.8967 55.097 96.8479 54.8761 102.797Z" fill="#FFCA61"/>
<path d="M20.2694 108.829C17.4141 105.794 14.5567 102.76 11.6992 99.725C15.6824 95.2653 19.6655 90.8035 23.6466 86.3438C26.1821 90.8413 28.7176 95.3388 31.2552 99.8342C27.594 102.834 23.9327 105.832 20.2694 108.829Z" fill="#FFCA61"/>
<path d="M57.4565 100.834H19.8828V125.252H57.4565V100.834Z" fill="#332B33"/>
<path d="M76.324 132.139C76.5913 132.468 76.404 133.094 76.1115 133.75C75.2993 135.535 72.808 139.495 70.6049 142.862C69.1489 145.096 67.8149 147.076 67.1983 147.999C66.9669 147.894 66.666 147.757 66.3525 147.562C66.0474 147.392 65.7149 147.167 65.3762 146.91C65.2899 146.837 65.2036 146.766 65.13 146.69C64.4545 146.087 64.0526 145.528 63.8696 145.287C63.2468 144.463 62.1063 143.428 59.8086 142.571C60.545 140.865 61.3845 139.214 62.2136 137.554C63.0531 137.186 63.8759 136.829 64.7112 136.47C64.9553 136.359 65.2057 136.25 65.4666 136.138C65.6223 136.069 65.7801 136 65.9464 135.928C66.1968 135.821 66.4472 135.712 66.7018 135.596C66.8785 135.521 67.0511 135.443 67.2278 135.367C67.4782 135.26 67.7286 135.151 67.979 135.044C68.1347 134.974 68.2904 134.907 68.4587 134.834C68.7091 134.727 68.9595 134.617 69.2141 134.502C70.7417 133.84 72.263 133.176 73.7928 132.515C74.1652 132.336 75.4003 131.767 76.0273 131.968C76.1536 131.994 76.2483 132.052 76.324 132.139Z" fill="#FFCA61"/>
<path d="M76.3273 132.137C76.5903 132.466 76.401 133.092 76.1106 133.75C74.7639 136.727 68.7461 145.701 67.2016 147.999C66.9681 147.892 66.6651 147.759 66.3516 147.566L76.0285 131.971C76.1506 131.992 76.2453 132.051 76.3273 132.137Z" fill="#332B33"/>
<path d="M65.4663 136.14L66.1018 138.255C66.1628 138.467 66.0429 138.715 65.8325 138.799C65.7126 138.852 65.5926 138.835 65.4979 138.776C65.4284 138.734 65.3653 138.665 65.3443 138.574L64.7109 136.469C64.955 136.36 65.2054 136.251 65.4663 136.14Z" fill="#332B33"/>
<path d="M66.7025 135.601L67.3421 137.739C67.4032 137.951 67.2832 138.199 67.0728 138.283C66.9529 138.336 66.8309 138.319 66.7383 138.26C66.6688 138.216 66.6057 138.149 66.5847 138.058L65.9492 135.933C66.1996 135.823 66.4479 135.716 66.7025 135.601Z" fill="#332B33"/>
<path d="M67.9816 135.047L68.6234 137.206C68.6886 137.412 68.5687 137.66 68.3604 137.744C68.2404 137.797 68.1205 137.78 68.0258 137.721C67.9564 137.679 67.8933 137.61 67.8722 137.519L67.2305 135.37C67.4809 135.261 67.7312 135.154 67.9816 135.047Z" fill="#332B33"/>
<path d="M69.2163 134.506L69.8623 136.686C69.9275 136.892 69.8076 137.14 69.5992 137.224C69.4793 137.277 69.3573 137.26 69.2626 137.201C69.1931 137.157 69.13 137.09 69.109 136.999L68.4609 134.836C68.7113 134.729 68.9617 134.621 69.2163 134.506Z" fill="#332B33"/>
<path d="M69.8948 142.19C70.1304 142.415 70.3682 142.64 70.6039 142.863C69.1478 145.096 67.8138 147.077 67.1973 147.999C66.9658 147.894 66.6649 147.757 66.3514 147.562C66.0463 147.392 65.7139 147.167 65.3751 146.911C65.2888 146.837 65.2026 146.766 65.1289 146.69C65.272 146.545 65.4087 146.396 65.5539 146.243C67.0626 144.684 68.5292 143.333 69.8948 142.19Z" fill="#332B33"/>
<path d="M59.7451 142.56C60.5742 140.89 61.4032 139.22 62.2323 137.55C44.4711 130.133 26.7122 122.715 8.95105 115.298C8.55337 115.22 8.15356 115.14 7.75588 115.062C4.29666 115.468 1.53182 118.069 0.982636 121.356C0.494474 124.272 1.82428 127.263 4.3682 128.958C8.54914 132.091 14.4681 135.693 22.1419 137.722C26.9394 138.991 30.0999 139.052 39.436 140.023C44.8057 140.581 51.7031 141.388 59.7451 142.56Z" fill="#EBA069"/>
<path d="M56.689 142.776C50.0967 142.607 42.4608 141.967 34.0778 140.435C27.2667 139.19 21.1542 137.572 15.8202 135.866C14.9953 135.793 5.15635 134.759 1.5814 127.018C1.22791 126.252 -1.07405 121.265 1.20685 117.878C3.63924 114.267 10.7218 113.314 17.9601 117.221C25.8738 119.662 34.8164 123.061 44.2724 127.861C49.3771 130.451 54.0273 133.144 58.2251 135.812C57.7137 138.133 57.2024 140.454 56.689 142.776Z" fill="#3F6CC1"/>
<path d="M0.339539 132.139C0.0723122 132.468 0.259592 133.094 0.554173 133.75C1.36637 135.535 3.85769 139.495 6.06074 142.862C7.51681 145.096 8.85081 147.076 9.46733 147.999C9.69878 147.894 9.99967 147.757 10.3153 147.562C10.6204 147.392 10.9529 147.167 11.2895 146.91C11.3758 146.837 11.4621 146.766 11.5378 146.69C12.2112 146.087 12.6151 145.528 12.7982 145.287C13.4231 144.463 14.5615 143.428 16.8592 142.571C16.1227 140.865 15.2832 139.214 14.4542 137.554C13.6146 137.186 12.7919 136.829 11.9566 136.47C11.7125 136.359 11.4621 136.25 11.2012 136.138C11.0454 136.069 10.8897 136 10.7214 135.928C10.471 135.821 10.2206 135.712 9.96601 135.596C9.78715 135.521 9.61672 135.443 9.43997 135.367C9.18958 135.26 8.93919 135.151 8.6888 135.044C8.53309 134.974 8.37529 134.907 8.20906 134.834C7.95867 134.727 7.70826 134.617 7.45365 134.502C5.92604 133.84 4.40265 133.176 2.87504 132.515C2.50261 132.336 1.26748 131.767 0.640443 131.968C0.509986 131.994 0.415288 132.052 0.339539 132.139Z" fill="#FFCA61"/>
<path d="M0.340082 132.137C0.0770633 132.466 0.26643 133.092 0.556802 133.75C1.90346 136.727 7.92341 145.701 9.46575 147.999C9.69931 147.892 10.0023 147.759 10.3137 147.566L0.636748 131.971C0.514707 131.992 0.420039 132.051 0.340082 132.137Z" fill="#332B33"/>
<path d="M11.2021 136.139L10.5667 138.254C10.5057 138.466 10.6256 138.714 10.8339 138.798C10.9538 138.851 11.0738 138.834 11.1685 138.775C11.2379 138.733 11.301 138.664 11.3221 138.573L11.9554 136.468C11.7134 136.359 11.4631 136.25 11.2021 136.139Z" fill="#332B33"/>
<path d="M9.96595 135.6L9.32841 137.738C9.26739 137.95 9.38732 138.198 9.59563 138.282C9.71557 138.335 9.8355 138.318 9.93018 138.259C9.99962 138.215 10.0627 138.148 10.0838 138.057L10.7192 135.932C10.471 135.822 10.2206 135.715 9.96595 135.6Z" fill="#332B33"/>
<path d="M8.68299 135.047L8.04124 137.206C7.97601 137.412 8.09595 137.66 8.30426 137.744C8.4242 137.797 8.54412 137.78 8.63881 137.721C8.70825 137.679 8.77137 137.61 8.79241 137.519L9.43207 135.37C9.18378 135.261 8.93338 135.154 8.68299 135.047Z" fill="#332B33"/>
<path d="M7.44891 134.506L6.80296 136.686C6.73773 136.892 6.85767 137.14 7.06598 137.224C7.18591 137.277 7.30584 137.26 7.40053 137.201C7.46997 137.157 7.53309 137.09 7.55413 136.999L8.2022 134.836C7.95391 134.729 7.70352 134.621 7.44891 134.506Z" fill="#332B33"/>
<path d="M6.7677 142.189C6.53204 142.414 6.29426 142.639 6.05859 142.862C7.51466 145.095 8.8487 147.076 9.46522 147.998C9.69667 147.893 9.99756 147.756 10.3132 147.561C10.6183 147.391 10.9507 147.166 11.2874 146.91C11.3737 146.836 11.4599 146.765 11.5357 146.689C11.3926 146.544 11.2558 146.395 11.1107 146.242C9.59988 144.683 8.1333 143.332 6.7677 142.189Z" fill="#332B33"/>
<path d="M16.9168 142.56C16.0878 140.89 15.2587 139.22 14.4297 137.55C32.1908 130.133 49.9498 122.715 67.7109 115.298C68.1086 115.22 68.5084 115.14 68.9061 115.062C72.3653 115.468 75.1301 118.069 75.6793 121.356C76.1675 124.272 74.8377 127.263 72.2938 128.958C68.1149 132.091 62.1938 135.693 54.52 137.722C49.7225 138.991 46.5621 139.052 37.226 140.023C31.8583 140.581 24.9589 141.388 16.9168 142.56Z" fill="#EBA069"/>
<path d="M19.9717 142.776C26.564 142.607 34.2 141.967 42.5829 140.435C49.3941 139.19 55.5065 137.572 60.8406 135.866C61.6654 135.793 71.5044 134.759 75.0793 127.018C75.4328 126.252 77.7348 121.265 75.4539 117.878C73.0215 114.267 65.9369 113.314 58.6986 117.221C50.7849 119.662 41.8423 123.061 32.3862 127.861C27.2816 130.451 22.6314 133.144 18.4336 135.812C18.947 138.133 19.4604 140.454 19.9717 142.776Z" fill="#3F6CC1"/>
<path d="M36.4973 141.781C36.3289 141.781 36.1795 141.665 36.1416 141.495C36.0975 141.298 36.2237 141.104 36.4194 141.06L59.0221 136.056C59.2199 136.017 59.4135 136.136 59.4577 136.334C59.5019 136.531 59.3756 136.724 59.18 136.769L36.5772 141.772C36.5498 141.777 36.5225 141.781 36.4973 141.781Z" fill="#E4E7EB"/>
<path d="M18.4356 136.175C18.3052 136.175 18.181 136.106 18.1137 135.984C18.019 135.808 18.0843 135.587 18.261 135.49L38.4945 124.514C38.6713 124.42 38.8943 124.483 38.989 124.661C39.0858 124.838 39.0184 125.059 38.8417 125.155L18.6061 136.131C18.5535 136.161 18.4967 136.175 18.4356 136.175Z" fill="#E4E7EB"/>
<path d="M87.0965 76.4981H83.6562V69.7193C83.9592 68.8769 84.3885 67.9253 84.8219 67.9568C85.2743 67.9904 85.5352 69.0828 85.9119 70.7906C86.2359 72.2695 86.6462 74.2021 87.0965 76.4981Z" fill="#EBA069"/>
<path d="M92.3127 81.4496H84.258C83.894 80.7396 83.4163 79.5843 83.2922 78.0928C83.1007 75.7967 83.8582 74.0301 84.258 73.2402C86.9429 73.2402 89.6278 73.2402 92.3127 73.2402C92.664 73.7276 93.8088 75.4375 93.6446 77.826C93.5184 79.6431 92.6998 80.9182 92.3127 81.4496Z" fill="#EBA069"/>
<path d="M46.0572 73.2483C46.1477 73.5655 45.447 74.2629 44.799 74.1789C43.9131 74.0633 43.5365 72.5403 43.7869 72.3408C43.9068 72.2441 44.1193 72.5046 44.9273 72.8113C45.6953 73.1054 46.0046 73.0592 46.0572 73.2483Z" fill="white"/>
</svg>
