<svg width="195" height="148" viewBox="0 0 195 148" fill="none" xmlns="http://www.w3.org/2000/svg">
<path d="M167.44 24.5469H23.2188V131.083H167.44V24.5469Z" fill="#56A6F9" fill-opacity="0.7"/>
<path d="M162.529 129.237H18.3077C17.9727 129.237 17.6992 128.964 17.6992 128.627V22.0903C17.6992 21.7529 17.9727 21.4805 18.3077 21.4805H162.529C162.864 21.4805 163.137 21.7529 163.137 22.0903V128.627C163.139 128.964 162.865 129.237 162.529 129.237ZM18.9179 128.017H161.92V22.7018H18.9179V128.017Z" fill="#332B33"/>
<path d="M174.008 125.575H6.82422V134.186H174.008V125.575Z" fill="white"/>
<path d="M174.619 134.798H6.21484V124.966H174.619V134.798ZM7.43356 133.577H173.402V126.185H7.43356V133.577Z" fill="#332B33"/>
<path d="M55.7466 35.7285H33.2383V69.8782H55.7466V35.7285Z" fill="white"/>
<path d="M51.3822 43.006H37.6047C37.3837 43.006 37.2031 42.825 37.2031 42.6036C37.2031 42.347 37.3837 42.166 37.6047 42.166H51.3822C51.6031 42.166 51.7838 42.347 51.7838 42.5684C51.782 42.8268 51.6014 43.006 51.3822 43.006Z" fill="#56A6F9" fill-opacity="0.7"/>
<path d="M51.3822 45.5265H37.6047C37.3837 45.5265 37.2031 45.3455 37.2031 45.1241C37.2031 44.8675 37.3837 44.6865 37.6047 44.6865H51.3822C51.6031 44.6865 51.7838 44.8675 51.7838 45.0889C51.782 45.3455 51.6014 45.5265 51.3822 45.5265Z" fill="#56A6F9" fill-opacity="0.7"/>
<path d="M49.0978 48.9769H39.8882C39.7076 48.9769 39.5586 48.8275 39.5586 48.6465V48.469C39.5586 48.2863 39.7076 48.1387 39.8882 48.1387H49.0978C49.2784 48.1387 49.4275 48.288 49.4275 48.469V48.6465C49.4275 48.8293 49.2802 48.9769 49.0978 48.9769Z" fill="#56A6F9" fill-opacity="0.7"/>
<path d="M84.731 35.7285H62.2227V69.8782H84.731V35.7285Z" fill="white"/>
<path d="M80.3627 43.006H66.5852C66.3642 43.006 66.1836 42.825 66.1836 42.6036C66.1836 42.347 66.3642 42.166 66.5852 42.166H80.3627C80.5836 42.166 80.7642 42.347 80.7642 42.5684C80.7642 42.8268 80.5836 43.006 80.3627 43.006Z" fill="#56A6F9" fill-opacity="0.7"/>
<path d="M73.7747 45.5257H66.4782C66.3169 45.5257 66.1836 45.3922 66.1836 45.2305V44.9827C66.1836 44.8211 66.3169 44.6875 66.4782 44.6875H73.7747C73.936 44.6875 74.0692 44.8211 74.0692 44.9827V45.2305C74.0692 45.3922 73.936 45.5257 73.7747 45.5257Z" fill="#56A6F9" fill-opacity="0.7"/>
<path d="M73.7747 47.7191H66.4782C66.3169 47.7191 66.1836 47.5855 66.1836 47.4239V47.1761C66.1836 47.0144 66.3169 46.8809 66.4782 46.8809H73.7747C73.936 46.8809 74.0692 47.0144 74.0692 47.1761V47.4239C74.0692 47.5855 73.936 47.7191 73.7747 47.7191Z" fill="#56A6F9" fill-opacity="0.7"/>
<path d="M143.442 35.7285H120.934V69.8782H143.442V35.7285Z" fill="white"/>
<path d="M139.078 43.006H125.3C125.079 43.006 124.898 42.825 124.898 42.6036C124.898 42.347 125.079 42.166 125.3 42.166H139.078C139.298 42.166 139.479 42.347 139.479 42.5684C139.479 42.8268 139.298 43.006 139.078 43.006Z" fill="#56A6F9" fill-opacity="0.7"/>
<path d="M132.489 45.5257H125.193C125.03 45.5257 124.898 45.3922 124.898 45.2305V44.9827C124.898 44.8211 125.032 44.6875 125.193 44.6875H132.489C132.651 44.6875 132.784 44.8211 132.784 44.9827V45.2305C132.784 45.3922 132.651 45.5257 132.489 45.5257Z" fill="#56A6F9" fill-opacity="0.7"/>
<path d="M132.489 47.7191H125.193C125.03 47.7191 124.898 47.5855 124.898 47.4239V47.1761C124.898 47.0144 125.032 46.8809 125.193 46.8809H132.489C132.651 46.8809 132.784 47.0144 132.784 47.1761V47.4239C132.784 47.5855 132.651 47.7191 132.489 47.7191Z" fill="#56A6F9" fill-opacity="0.7"/>
<path d="M113.876 35.7285H91.3672V69.8782H113.876V35.7285Z" fill="white"/>
<path d="M109.507 53.6418H95.7297C95.5087 53.6418 95.3281 53.4607 95.3281 53.2393C95.3281 52.9828 95.5087 52.8018 95.7297 52.8018H109.507C109.728 52.8018 109.909 52.9828 109.909 53.2042C109.909 53.4607 109.728 53.6418 109.507 53.6418Z" fill="#56A6F9" fill-opacity="0.7"/>
<path d="M102.919 56.1613H95.6227C95.4614 56.1613 95.3281 56.0277 95.3281 55.8661V55.6165C95.3281 55.4548 95.4614 55.3213 95.6227 55.3213H102.919C103.08 55.3213 103.214 55.4548 103.214 55.6165V55.8661C103.214 56.0277 103.082 56.1613 102.919 56.1613Z" fill="#56A6F9" fill-opacity="0.7"/>
<path d="M102.919 58.3537H95.6227C95.4614 58.3537 95.3281 58.2201 95.3281 58.0584V57.8089C95.3281 57.6472 95.4614 57.5137 95.6227 57.5137H102.919C103.08 57.5137 103.214 57.6472 103.214 57.8089V58.0584C103.214 58.2219 103.082 58.3537 102.919 58.3537Z" fill="#56A6F9" fill-opacity="0.7"/>
<path d="M106.01 45.0819C106.01 47.131 104.493 48.7916 102.62 48.7916C100.749 48.7916 99.2305 47.131 99.2305 45.0819C99.2305 43.0329 100.747 41.374 102.62 41.374C104.493 41.3723 106.01 43.0329 106.01 45.0819Z" fill="#56A6F9" fill-opacity="0.7"/>
<path d="M55.7466 77.8145H33.2383V111.964H55.7466V77.8145Z" fill="white"/>
<path d="M51.3822 104.685H37.6047C37.3837 104.685 37.2031 104.866 37.2031 105.087C37.2031 105.344 37.3837 105.525 37.6047 105.525H51.3822C51.6031 105.525 51.7838 105.344 51.7838 105.122C51.782 104.866 51.6014 104.685 51.3822 104.685Z" fill="#56A6F9" fill-opacity="0.7"/>
<path d="M51.3822 102.166H37.6047C37.3837 102.166 37.2031 102.347 37.2031 102.568C37.2031 102.825 37.3837 103.006 37.6047 103.006H51.3822C51.6031 103.006 51.7838 102.825 51.7838 102.604C51.782 102.347 51.6014 102.166 51.3822 102.166Z" fill="#56A6F9" fill-opacity="0.7"/>
<path d="M49.0978 98.7139H39.8882C39.7076 98.7139 39.5586 98.8632 39.5586 99.0442V99.2235C39.5586 99.4062 39.7076 99.5539 39.8882 99.5539H49.0978C49.2784 99.5539 49.4275 99.4045 49.4275 99.2235V99.0442C49.4275 98.8632 49.2802 98.7139 49.0978 98.7139Z" fill="#56A6F9" fill-opacity="0.7"/>
<path d="M84.731 77.8145H62.2227V111.964H84.731V77.8145Z" fill="white"/>
<path d="M80.3627 104.686H66.5852C66.3642 104.686 66.1836 104.867 66.1836 105.088C66.1836 105.345 66.3642 105.526 66.5852 105.526H80.3627C80.5836 105.526 80.7642 105.345 80.7642 105.123C80.7642 104.867 80.5836 104.686 80.3627 104.686Z" fill="#56A6F9" fill-opacity="0.7"/>
<path d="M73.7747 102.167H66.4782C66.3169 102.167 66.1836 102.301 66.1836 102.462V102.71C66.1836 102.872 66.3169 103.005 66.4782 103.005H73.7747C73.936 103.005 74.0692 102.872 74.0692 102.71V102.462C74.0692 102.299 73.936 102.167 73.7747 102.167Z" fill="#56A6F9" fill-opacity="0.7"/>
<path d="M73.7747 99.9736H66.4782C66.3169 99.9736 66.1836 100.107 66.1836 100.269V100.518C66.1836 100.68 66.3169 100.814 66.4782 100.814H73.7747C73.936 100.814 74.0692 100.68 74.0692 100.518V100.269C74.0692 100.107 73.936 99.9736 73.7747 99.9736Z" fill="#56A6F9" fill-opacity="0.7"/>
<path d="M143.442 77.8145H120.934V111.964H143.442V77.8145Z" fill="white"/>
<path d="M139.078 104.686H125.3C125.079 104.686 124.898 104.867 124.898 105.088C124.898 105.345 125.079 105.526 125.3 105.526H139.078C139.298 105.526 139.479 105.345 139.479 105.123C139.479 104.867 139.298 104.686 139.078 104.686Z" fill="#56A6F9" fill-opacity="0.7"/>
<path d="M132.489 102.167H125.193C125.03 102.167 124.898 102.301 124.898 102.462V102.71C124.898 102.872 125.032 103.005 125.193 103.005H132.489C132.651 103.005 132.784 102.872 132.784 102.71V102.462C132.784 102.299 132.651 102.167 132.489 102.167Z" fill="#56A6F9" fill-opacity="0.7"/>
<path d="M132.489 99.9736H125.193C125.03 99.9736 124.898 100.107 124.898 100.269V100.518C124.898 100.68 125.032 100.814 125.193 100.814H132.489C132.651 100.814 132.784 100.68 132.784 100.518V100.269C132.784 100.107 132.651 99.9736 132.489 99.9736Z" fill="#56A6F9" fill-opacity="0.7"/>
<path d="M113.876 77.8145H91.3672V111.964H113.876V77.8145Z" fill="white"/>
<path d="M109.507 94.0488H95.7297C95.5087 94.0488 95.3281 94.2298 95.3281 94.4513C95.3281 94.7078 95.5087 94.8888 95.7297 94.8888H109.507C109.728 94.8888 109.909 94.7078 109.909 94.4864C109.909 94.2298 109.728 94.0488 109.507 94.0488Z" fill="#56A6F9" fill-opacity="0.7"/>
<path d="M102.919 91.5303H95.6227C95.4614 91.5303 95.3281 91.6638 95.3281 91.8255V92.075C95.3281 92.2367 95.4614 92.3703 95.6227 92.3703H102.919C103.08 92.3703 103.214 92.2367 103.214 92.075V91.8255C103.214 91.6638 103.082 91.5303 102.919 91.5303Z" fill="#56A6F9" fill-opacity="0.7"/>
<path d="M102.919 89.3369H95.6227C95.4614 89.3369 95.3281 89.4705 95.3281 89.6321V89.8817C95.3281 90.0433 95.4614 90.1769 95.6227 90.1769H102.919C103.08 90.1769 103.214 90.0433 103.214 89.8817V89.6321C103.214 89.4705 103.082 89.3369 102.919 89.3369Z" fill="#56A6F9" fill-opacity="0.7"/>
<path d="M106.01 102.61C106.01 100.561 104.493 98.9023 102.62 98.9023C100.749 98.9023 99.2305 100.563 99.2305 102.61C99.2305 104.659 100.747 106.318 102.62 106.318C104.493 106.318 106.01 104.658 106.01 102.61Z" fill="#56A6F9" fill-opacity="0.7"/>
<path d="M96.3621 38.7132C95.0803 39.0383 93.7967 39.3616 92.5149 39.6849C91.3172 38.6587 90.1195 37.6307 88.9219 36.6044C90.2738 34.1055 91.7836 33.3376 92.6674 33.0511C93.7458 32.7032 94.4981 32.8789 98.049 33.1179C99.6394 33.2251 100.928 33.2866 101.735 33.3217C101.614 33.508 101.412 33.7716 101.095 33.986C100.665 34.2777 100.206 34.334 98.7276 34.3199C98.2682 34.3146 97.6825 34.3041 97.0004 34.2742C97.1424 34.6714 97.2967 35.2636 97.281 35.9876C97.2512 37.3389 96.6462 38.3107 96.3621 38.7132Z" fill="#EBA069"/>
<path d="M41.2953 15.224L24.6289 125.693L27.0356 126.058L43.7019 15.5886L41.2953 15.224Z" fill="#332B33"/>
<path d="M68.0258 15.2191L51.3594 125.688L53.766 126.053L70.4324 15.5837L68.0258 15.2191Z" fill="#332B33"/>
<path d="M66.0769 35.0508H39.332V37.4917H66.0769V35.0508Z" fill="#332B33"/>
<path d="M62.862 56.3359H36.1172V58.7768H62.862V56.3359Z" fill="#332B33"/>
<path d="M59.5965 77.9688H32.8516V80.4096H59.5965V77.9688Z" fill="#332B33"/>
<path d="M55.5971 107.572H27.7422V110.013H55.5971V107.572Z" fill="#332B33"/>
<path d="M54.254 103.424C52.7231 103.493 51.1747 103.561 49.6422 103.614C48.7987 101.027 47.9728 98.5967 47.182 96.3543C46.9575 95.6989 46.7173 95.0434 46.4928 94.4231C45.5985 91.8714 44.7551 89.5606 43.9975 87.5432C41.2445 80.2153 40.1257 77.8534 39.2823 73.7835C37.9917 67.5416 38.3021 61.8163 39.1613 57.0575C42.998 56.0066 46.8348 54.9716 50.6715 53.9189C50.7574 54.2458 50.8433 54.5744 50.9293 54.9013C51.806 67.6259 52.6845 80.3699 53.5438 93.0945C53.7893 96.5441 54.0137 99.9761 54.254 103.424Z" fill="#EBA069"/>
<path d="M61.0388 109.51C60.8564 109.814 60.3128 109.847 59.7149 109.807C58.0823 109.686 54.2649 108.874 50.9911 108.116C48.822 107.619 46.8878 107.145 45.9883 106.927C46.0041 106.714 46.0251 106.44 46.0865 106.136C46.1321 105.848 46.2127 105.523 46.3179 105.184C46.3495 105.096 46.3828 105.006 46.4196 104.925C46.6984 104.222 47.0211 103.744 47.1579 103.532C47.6243 102.804 48.1083 101.613 48.1205 99.5654C49.6689 99.6498 51.2033 99.8343 52.7411 100.005C53.2689 100.557 53.7862 101.1 54.307 101.651C54.4648 101.81 54.6209 101.976 54.784 102.149C54.8822 102.252 54.9821 102.354 55.0856 102.465C55.2417 102.63 55.3977 102.795 55.5626 102.962C55.673 103.08 55.7835 103.191 55.894 103.308C56.05 103.474 56.2061 103.639 56.3639 103.804C56.4621 103.906 56.5621 104.01 56.6655 104.119C56.8216 104.284 56.9777 104.449 57.1425 104.616C58.0999 105.623 59.0573 106.625 60.0148 107.633C60.262 107.874 61.0634 108.679 61.0844 109.227C61.1019 109.334 61.0844 109.426 61.0388 109.51Z" fill="#3F6CC1"/>
<path d="M61.041 109.511C60.8586 109.811 60.3133 109.845 59.7153 109.806C56.9956 109.608 48.2367 107.476 45.9922 106.929C46.0097 106.715 46.0255 106.441 46.0869 106.139L61.0866 109.23C61.1041 109.332 61.0848 109.423 61.041 109.511Z" fill="#332B33"/>
<path d="M47.5402 101.156L54.5859 101.131L54.5735 97.6813L47.5278 97.7067L47.5402 101.156Z" fill="#332B33"/>
<path d="M29.0317 58.7988C28.9458 59.1275 28.8774 59.4543 28.809 59.7988C23.6817 71.3513 18.5368 82.9038 13.4095 94.4581C13.1693 94.9923 12.9448 95.5107 12.7221 96.0273C11.4999 98.7687 10.2953 101.493 9.0748 104.236C7.69827 103.563 6.30421 102.907 4.91016 102.236C5.49584 98.7705 5.9938 95.5634 6.42341 92.6656C6.81971 89.9576 7.14587 87.5273 7.42117 85.3711C8.41893 77.6284 8.52242 75.0082 9.69202 71.0068C11.4648 64.8861 14.423 59.971 17.4005 56.1611C21.2723 57.0398 25.1441 57.9202 29.0317 58.7988Z" fill="#EBA069"/>
<path d="M12.2252 112.784C11.9218 112.967 11.4256 112.742 10.9171 112.425C9.53179 111.552 6.53673 109.044 3.99762 106.839C2.31422 105.382 0.825458 104.055 0.132812 103.44C0.245039 103.259 0.392352 103.027 0.588748 102.788C0.764101 102.555 0.986791 102.305 1.23755 102.054C1.30769 101.99 1.37782 101.927 1.44796 101.874C2.02137 101.384 2.53165 101.114 2.74909 100.989C3.50136 100.565 4.48507 99.7393 5.45302 97.9346C6.7822 98.7359 8.05177 99.6181 9.33185 100.491C9.54052 101.228 9.74395 101.95 9.94736 102.681C10.0122 102.895 10.0736 103.115 10.1367 103.344C10.1753 103.481 10.2156 103.618 10.256 103.764C10.3173 103.983 10.3787 104.203 10.4454 104.426C10.4874 104.582 10.533 104.732 10.5751 104.888C10.6365 105.108 10.6978 105.328 10.7592 105.547C10.7978 105.684 10.8382 105.821 10.8785 105.967C10.9399 106.187 11.0012 106.407 11.0679 106.63C11.4431 107.969 11.8219 109.303 12.1971 110.643C12.3023 110.972 12.6355 112.058 12.3971 112.554C12.3637 112.659 12.3058 112.731 12.2252 112.784Z" fill="#3F6CC1"/>
<path d="M12.2269 112.788C11.9253 112.969 11.4273 112.74 10.917 112.426C8.60587 110.974 1.8618 104.982 0.132812 103.446C0.248546 103.265 0.390574 103.029 0.585216 102.792L12.397 112.561C12.3689 112.658 12.3075 112.731 12.2269 112.788Z" fill="#332B33"/>
<path d="M4.18756 99.0573L10.4258 102.34L12.0261 99.2856L5.78783 96.003L4.18756 99.0573Z" fill="#332B33"/>
<path d="M56.792 106.362C56.5938 106.362 56.3992 106.263 56.2834 106.086C56.0976 105.803 56.1782 105.425 56.4588 105.24C56.6254 105.131 56.7604 105.019 56.8709 104.91C56.6658 105.059 56.429 105.158 56.2098 105.177C56.0239 105.2 55.7399 105.1 55.6101 104.968C55.5172 104.871 55.3699 104.655 55.4295 104.304C55.4873 103.977 55.7311 103.553 56.1081 103.284C55.8819 103.038 55.4716 103.037 55.2208 103.179C55.1261 103.232 55.0472 103.307 54.9806 103.409C54.7965 103.694 54.4195 103.769 54.1389 103.587C53.8583 103.402 53.7776 103.023 53.9635 102.741C54.1371 102.473 54.3616 102.262 54.6246 102.114C55.2787 101.743 56.3291 101.726 56.9831 102.434C57.1304 102.596 57.2567 102.796 57.3461 103.017C57.7529 103.088 58.1159 103.3 58.3141 103.625C58.7735 104.386 58.2614 105.52 57.1252 106.265C57.0217 106.33 56.906 106.362 56.792 106.362Z" fill="#332B33"/>
<path d="M39.1096 57.3725C42.9604 56.2215 46.8181 55.0704 50.6689 53.9194C48.6523 50.0937 46.6357 46.2663 44.6139 42.4442C42.9708 39.3179 41.3225 36.1952 39.6707 33.0672C39.2797 32.3221 38.8886 31.577 38.4941 30.8267C37.3525 28.6669 36.2162 26.5125 35.0835 24.3633C34.0839 24.7007 33.081 25.0434 32.0814 25.3808C31.7272 25.502 31.3695 25.6162 31.0153 25.7375C29.018 26.4141 27.0207 27.0906 25.0234 27.7654C28.1307 34.2938 31.2415 40.8292 34.3522 47.3646C35.9374 50.7035 37.5227 54.0389 39.1096 57.3725Z" fill="#EBA069"/>
<path d="M17.0736 57.1921C21.0558 57.7263 25.0452 58.264 29.0274 58.7965C28.7556 54.4771 28.4838 50.1594 28.205 45.8417C27.9876 42.3148 27.7631 38.7896 27.5369 35.2592C27.4861 34.4192 27.4335 33.5792 27.3809 32.7322C27.2248 30.293 27.0705 27.8609 26.9162 25.4358C25.8675 25.3339 24.812 25.232 23.7616 25.1301C23.3898 25.0949 23.0146 25.0527 22.6428 25.0176C20.5439 24.812 18.4466 24.6081 16.3477 24.4043C16.5072 31.6356 16.6685 38.8739 16.8299 46.1123C16.9123 49.8061 16.9929 53.4982 17.0736 57.1921Z" fill="#EBA069"/>
<path d="M75.5399 18.5548C63.1915 22.6458 50.8432 26.7386 38.4948 30.8296C31.1124 28.6874 23.73 26.5453 16.3477 24.4031C20.4123 20.6689 27.3476 15.2388 37.2673 11.4782C49.5754 6.81427 60.4087 7.01812 66.2901 7.56113C69.7919 7.07787 73.1867 8.61551 74.8928 11.4413C76.8305 14.6483 75.7118 18.0557 75.5399 18.5548Z" fill="#EBA069"/>
<path d="M75.8284 14.331C75.5531 20.5729 75.2778 26.8325 75.0025 33.0744C74.9517 34.5576 74.8815 36.0407 74.8131 37.5239C71.3026 38.8858 67.7762 40.2477 64.2656 41.5938C64.4375 39.645 64.6093 37.7137 64.7812 35.7648C64.8846 34.6437 64.9705 33.5401 65.074 32.4207C65.6246 26.0926 66.1927 19.7822 66.7434 13.4541C67.329 13.7124 74.2117 16.8158 75.604 14.9197C75.7092 14.7791 75.7951 14.5893 75.8284 14.331Z" fill="#EBA069"/>
<path d="M92.7921 34.2588C93.348 35.7771 93.8951 37.2919 94.4422 38.8067C91.7383 40.2934 89.2062 41.5867 86.9108 42.6974C85.7588 43.2562 84.6646 43.7623 83.6528 44.2332C82.3832 44.8237 81.3977 45.2367 81.2504 45.2999C71.485 49.4806 66.9924 46.3649 66.9924 46.3649C66.8574 46.2717 64.3446 44.4898 64.2674 41.8521C64.2061 39.7486 65.7176 37.8244 68.1252 36.8596C72.5371 36.8701 77.4768 36.6347 82.8023 35.9686C86.411 35.517 89.748 34.9231 92.7921 34.2588Z" fill="#EBA069"/>
<path d="M81.1681 7.46716C80.0143 8.72539 78.8798 9.96781 77.7435 11.226C76.4704 12.6231 75.1973 14.0202 73.9243 15.4155C72.3583 13.3981 70.7925 11.3807 69.2266 9.36329C72.1515 7.57084 75.0938 5.79421 78.0187 4C78.6728 4.72401 79.3269 5.43045 79.981 6.15446C80.3773 6.58851 80.7718 7.03662 81.1681 7.46716Z" fill="#EBA069"/>
<path d="M30.1587 55.9177C25.6416 69.0413 21.1263 82.1631 16.6092 95.2866C12.8812 94.3289 9.1531 93.3712 5.42509 92.4134C5.32865 86.8568 5.82667 79.1493 8.43593 70.4296C10.1912 64.5619 12.4638 59.703 14.5803 55.9195C14.8626 45.3335 15.1432 34.7475 15.4255 24.1615C16.8844 20.9562 19.7024 18.7525 22.522 18.7736C26.6078 18.8017 30.8846 23.4955 30.1569 29.6583C30.1587 38.4097 30.1587 47.1628 30.1587 55.9177Z" fill="#3F6CC1"/>
<path d="M50.6702 53.9233C52.3168 66.8008 53.9634 79.6783 55.6099 92.5558C52.3115 93.4187 49.0149 94.2798 45.7165 95.1426C43.5106 91.0604 40.7733 84.9186 39.2635 77.0371C37.7695 69.2399 38.022 62.585 38.5463 57.9984C35.1409 51.029 31.7356 44.0613 28.3302 37.0918C24.7653 33.7178 25.1458 28.1893 28.2934 25.6676C30.9921 23.5078 35.4671 23.7644 38.3306 26.7448C42.4444 35.8037 46.5582 44.8643 50.6702 53.9233Z" fill="#3F6CC1"/>
<path d="M9.07649 92.5031C8.82573 92.4398 8.73629 92.2676 8.78714 92.1077L19.4977 57.4677C19.5486 57.3043 19.7169 57.2217 19.8783 57.2656C20.0378 57.3148 20.129 57.487 20.0781 57.6487L9.36755 92.2887C9.32722 92.4205 9.208 92.5031 9.07649 92.5031Z" fill="#E4E7EB"/>
<path d="M19.7895 57.8626C19.6177 57.8608 19.4826 57.722 19.4844 57.5533L19.9596 22.6638C19.9613 22.4951 20.1192 22.3861 20.2683 22.3633C20.4348 22.365 20.5698 22.5039 20.5681 22.6726L20.0929 57.5621C20.0911 57.729 19.9561 57.8626 19.7895 57.8626Z" fill="#E4E7EB"/>
<path d="M41.0915 32.8227C33.4198 28.7387 25.7481 24.6547 18.0781 20.5707C19.381 19.5146 20.9661 18.3882 22.8477 17.3338C26.1619 15.4763 29.2744 14.4676 31.7031 13.8965C36.0553 18.8486 40.4076 23.8024 44.7598 28.7545C43.5376 30.1094 42.3137 31.466 41.0915 32.8227Z" fill="#3F6CC1"/>
<path d="M29.8754 40.5564C29.7071 40.5547 29.5703 40.4176 29.5703 40.2506L29.6387 25.8812C29.6387 25.7125 29.7773 25.5771 29.9438 25.5771C30.1122 25.5789 30.2489 25.716 30.2489 25.8829L30.1805 40.2524C30.1788 40.4211 30.042 40.5564 29.8754 40.5564Z" fill="#E4E7EB"/>
<path d="M65.7862 24.3577C56.3715 29.5119 46.9568 34.6661 37.5438 39.8203C34.647 31.4467 31.7484 23.0714 28.8516 14.6978C35.1923 10.7263 48.2404 3.97476 64.0713 6.05366C66.8769 6.42269 69.4704 7.02896 71.8412 7.77054C69.8211 13.299 67.8045 18.8275 65.7862 24.3577Z" fill="#332B33"/>
<path d="M76.5051 33.1044C72.0248 32.9972 67.5445 32.8883 63.0625 32.7811C63.301 27.5127 63.5412 22.2443 63.7797 16.9759C64.0567 11.0784 68.2494 7.53914 71.3427 7.99428C73.4311 8.30181 75.2057 10.4563 76.0702 13.0553C76.2157 19.7383 76.3613 26.4214 76.5051 33.1044Z" fill="#332B33"/>
<path d="M81.1667 6.88199V7.46893C80.0129 8.72716 78.8784 9.96957 77.7421 11.2278C77.6912 9.07335 77.6737 6.88199 77.6211 4.72754C78.3944 5.2108 79.187 5.67648 79.9778 6.15798C80.3759 6.39873 80.7704 6.63949 81.1667 6.88199Z" fill="#332B33"/>
<path d="M83.7685 7.99615C83.5703 7.87313 83.3722 7.75188 83.1758 7.62887L83.4248 6.45323C83.6703 6.35131 83.9158 6.24938 84.1613 6.14746C84.1543 6.37767 84.1858 6.69047 84.4033 6.9031C84.519 7.01557 84.6154 7.03139 84.6417 7.11925C84.6821 7.24929 84.5611 7.49356 83.7685 7.99615Z" fill="#EBA069"/>
<path d="M80.2643 9.94315L80.4361 9.97479C82.0704 10.2735 83.6556 9.28944 83.9765 7.77816L85.2268 1.87361C84.9182 1.54148 83.7977 0.418563 81.8776 0.10049C80.0819 -0.196494 78.6949 0.393961 78.2583 0.599566L77.1798 5.69399C76.7625 7.65163 78.1443 9.55479 80.2643 9.94315Z" fill="#EBA069"/>
<path d="M85.7913 2.03008C85.6247 2.20933 85.3914 2.4079 85.0776 2.55552C83.9798 3.06689 82.8505 2.48522 82.6717 2.39033C80.7849 3.30061 78.8964 4.2109 77.0078 5.12118C77.2831 3.42011 77.5584 1.71904 77.832 0.0179673H79.2295C84.2324 -0.0804418 86.7925 0.225327 86.91 0.937036C86.9591 1.23051 86.5874 1.59603 85.7913 2.03008Z" fill="#332B33"/>
<path d="M82.7726 8.72178C82.7796 8.90806 82.4447 9.12245 82.1414 9.12596C81.5539 9.13124 81.0629 8.34396 81.1874 8.15593C81.2909 7.99953 81.8468 8.20689 82.1414 8.3176C82.4693 8.43886 82.7656 8.54956 82.7726 8.72178Z" fill="white"/>
<path d="M13.4101 94.4595C13.1699 94.9937 12.9454 95.5121 12.7227 96.0287C10.6237 94.9076 8.52476 93.804 6.42578 92.667C8.74746 93.2697 11.0867 93.8725 13.4101 94.4595Z" fill="#332B33"/>
<path d="M53.5506 93.0967C51.4165 94.1827 49.3175 95.2687 47.1852 96.3547C47.073 96.0314 46.9591 95.7045 46.8416 95.3759C46.7837 95.2142 46.7258 95.0526 46.668 94.8927C47.6236 94.4937 52.5072 93.2179 53.5506 93.0967Z" fill="#332B33"/>
<path d="M151.671 94.1844C147.889 92.9455 144.107 91.7065 140.324 90.4676C142.458 80.8552 144.592 71.2445 146.726 61.6338C150.274 61.7621 153.823 61.8886 157.37 62.0169C155.471 72.7382 153.572 83.4613 151.671 94.1844Z" fill="#EBA069"/>
<path d="M176.367 91.711C172.42 92.2171 168.472 92.7249 164.525 93.231C162.34 83.6309 160.154 74.0307 157.969 64.4323C161.016 62.74 164.062 61.0478 167.11 59.3555C170.194 70.14 173.281 80.9246 176.367 91.711Z" fill="#EBA069"/>
<path d="M146.73 62.4197C148.668 63.2421 152.433 64.5425 157.31 64.3527C162.332 64.1559 166.061 62.4759 167.924 61.4813C166.654 58.1705 165.383 54.8598 164.113 51.5508C159.771 51.5982 155.43 51.6439 151.088 51.6914C149.636 55.2657 148.184 58.8418 146.73 62.4197Z" fill="#EBA069"/>
<path d="M151.675 52.7261C155.891 52.5152 160.106 52.3044 164.322 52.0952C165.402 45.1961 166.48 38.2969 167.56 31.3995C166.2 30.6368 160.611 27.7109 153.451 29.2837C146.902 30.7211 143.181 35.0125 142.129 36.3199C145.312 41.7887 148.492 47.2574 151.675 52.7261Z" fill="#FFCA61"/>
<path d="M172.67 58.9382C175.213 58.3513 177.757 57.7644 180.3 57.1774C176.802 48.4647 173.304 39.7537 169.803 31.041C165.597 32.2852 163.38 34.3746 162.163 36.0405C162.084 36.1477 162.007 36.2567 161.934 36.3674C165.514 43.8922 169.091 51.4152 172.67 58.9382Z" fill="#FFCA61"/>
<path d="M137.666 146.387C137.666 146.697 137.631 146.974 137.615 147.18C136.686 147.215 134.69 147.284 132.47 147.335C130.422 147.385 128.152 147.421 126.345 147.385C125.192 147.368 124.211 147.317 123.592 147.231C122.991 147.145 122.474 147.008 122.353 146.661C122.317 146.575 122.318 146.489 122.37 146.386C122.491 145.851 123.436 145.229 123.729 145.041C124.416 144.558 125.123 144.076 125.828 143.593C126.258 143.282 126.705 142.973 127.152 142.662C127.341 142.541 127.531 142.404 127.72 142.282C127.841 142.179 127.962 142.11 128.081 142.024C128.253 141.903 128.443 141.766 128.632 141.627C128.769 141.541 128.89 141.455 129.028 141.368C129.218 141.231 129.407 141.11 129.596 140.971C129.717 140.885 129.837 140.799 129.958 140.731C130.147 140.594 130.336 140.455 130.526 140.333C131.145 139.903 131.766 139.471 132.367 139.058C133.933 139.179 135.464 139.316 137.012 139.455C136.6 141.541 136.84 142.818 137.151 143.628C137.237 143.853 137.461 144.388 137.58 145.129C137.615 145.215 137.615 145.319 137.631 145.405C137.666 145.767 137.682 146.096 137.666 146.387Z" fill="#3F6CC1"/>
<path d="M122.348 146.672C122.467 147.004 122.993 147.144 123.587 147.229C126.291 147.584 135.301 147.264 137.609 147.181C137.635 146.969 137.675 146.696 137.675 146.389H122.362C122.32 146.484 122.32 146.578 122.348 146.672Z" fill="#332B33"/>
<path d="M129.953 140.725L131.175 142.108C131.3 142.245 131.528 142.27 131.68 142.157C131.77 142.096 131.812 142.003 131.812 141.909C131.812 141.841 131.791 141.767 131.736 141.711L130.521 140.335C130.334 140.458 130.148 140.59 129.953 140.725Z" fill="#332B33"/>
<path d="M129.027 141.362L130.264 142.757C130.388 142.894 130.616 142.919 130.769 142.806C130.858 142.745 130.9 142.652 130.9 142.559C130.9 142.49 130.879 142.416 130.825 142.36L129.595 140.972C129.408 141.102 129.222 141.234 129.027 141.362Z" fill="#332B33"/>
<path d="M128.074 142.028L129.325 143.435C129.442 143.572 129.67 143.597 129.823 143.484C129.912 143.423 129.954 143.33 129.954 143.237C129.954 143.168 129.933 143.094 129.879 143.038L128.635 141.636C128.446 141.768 128.26 141.898 128.074 142.028Z" fill="#332B33"/>
<path d="M127.148 142.667L128.413 144.087C128.53 144.224 128.758 144.249 128.911 144.136C129 144.075 129.042 143.982 129.042 143.889C129.042 143.82 129.021 143.746 128.967 143.69L127.715 142.275C127.527 142.405 127.341 142.535 127.148 142.667Z" fill="#332B33"/>
<path d="M132.305 146.535C132.361 146.802 132.415 147.068 132.471 147.335C134.697 147.286 136.685 147.21 137.611 147.18C137.639 146.969 137.672 146.697 137.672 146.386C137.686 146.094 137.672 145.76 137.637 145.405C137.623 145.312 137.609 145.219 137.588 145.133C137.423 145.17 137.257 145.201 137.085 145.238C135.316 145.625 133.713 146.071 132.305 146.535Z" fill="#332B33"/>
<path d="M137.022 139.494C135.473 139.346 133.923 139.199 132.375 139.051C134.907 123.174 137.437 107.297 139.97 91.4212C140.089 91.1031 140.208 90.7868 140.327 90.4688C144.11 91.7076 147.892 92.9466 151.674 94.1855C152.12 98.9249 151.941 104.582 150.093 110.665C148.888 114.63 147.543 116.902 144.136 123.956C142.175 128.015 139.719 133.27 137.022 139.494Z" fill="#EBA069"/>
<path d="M140.665 61.7977C138.229 61.8539 135.795 61.9102 133.359 61.9664C136.283 53.4171 139.206 44.8696 142.129 36.3203C147.174 36.9248 149.529 39.002 150.656 40.4219C150.74 40.5273 150.821 40.6345 150.9 40.7417C147.488 47.7604 144.077 54.779 140.665 61.7977Z" fill="#FFCA61"/>
<path d="M126.905 41.3398C125.72 42.106 124.54 42.8757 123.359 43.6454C124.212 46.1865 125.066 48.4956 125.87 50.5446C126.275 51.5744 126.672 52.5339 127.038 53.4248C127.498 54.5425 127.88 55.3772 127.936 55.5037C131.673 63.8386 136.183 64.111 136.183 64.111C136.318 64.1198 138.864 64.2445 140.374 62.4222C141.577 60.9689 141.708 58.7758 140.751 56.7672C138.01 54.3439 135.078 51.4566 132.146 48.0527C130.161 45.7436 128.424 43.4873 126.905 41.3398Z" fill="#FFCA61"/>
<path d="M188.797 73.9315C187.606 74.6924 186.418 75.4445 185.227 76.1984C183.277 74.362 181.539 72.6223 180.017 71.0337C179.253 70.2359 178.546 69.4732 177.892 68.7685C177.071 67.8846 176.471 67.1887 176.382 67.085C170.381 60.2052 172.016 55.9824 172.016 55.9824C176.145 54.4113 178.421 54.9719 179.733 55.7539C182.307 57.2898 182.395 60.4125 184.897 66.3557C186.304 69.7017 187.78 72.2866 188.797 73.9315Z" fill="#FFCA61"/>
<path d="M130.389 141.288C130.021 141.288 129.656 141.234 129.314 141.123C128.313 140.8 127.812 140.343 127.82 139.763C127.833 139.083 128.576 138.587 129.262 138.521C129.323 138.515 129.404 138.519 129.444 138.514C129.386 138.264 129.399 138.016 129.523 137.782C129.721 137.415 130.182 137.174 130.759 137.143C131.475 137.101 132.115 137.382 132.466 137.891C132.741 138.29 132.827 138.819 132.701 139.341C132.573 139.87 132.239 140.334 131.775 140.636C131.754 140.891 131.573 141.113 131.313 141.176C131.005 141.25 130.696 141.288 130.389 141.288ZM129.216 139.773C129.321 139.828 129.471 139.891 129.683 139.96C129.828 140.005 129.976 140.037 130.125 140.055C129.904 139.882 129.623 139.7 129.379 139.735C129.323 139.74 129.267 139.756 129.216 139.773ZM130.684 138.38C130.807 138.622 131.103 138.999 131.231 139.158C131.278 139.22 131.331 139.287 131.38 139.355C131.445 139.264 131.489 139.162 131.515 139.053C131.561 138.872 131.538 138.696 131.461 138.582C131.368 138.443 131.178 138.392 131.075 138.375C130.917 138.347 130.784 138.359 130.684 138.38Z" fill="#332B33"/>
<path d="M194.86 139.371C194.137 139.941 192.571 141.164 190.799 142.51C188.871 143.975 186.704 145.58 185.103 146.648C184.467 147.079 183.933 147.423 183.537 147.648C183.004 147.924 182.487 148.114 182.196 147.924C182.127 147.855 182.075 147.787 182.041 147.683C181.834 147.167 182.248 146.114 182.368 145.787C182.471 145.511 182.557 145.235 182.66 144.959C183.022 143.924 183.383 142.891 183.744 141.856C183.83 141.633 183.898 141.425 183.984 141.2C184.037 141.062 184.088 140.925 184.123 140.786C184.209 140.578 184.277 140.355 184.347 140.148C184.398 139.993 184.468 139.854 184.519 139.7C184.588 139.475 184.673 139.269 184.744 139.044C184.796 138.905 184.847 138.768 184.898 138.63C184.966 138.406 185.035 138.199 185.122 137.974C185.363 137.268 185.622 136.559 185.88 135.853C187.204 135.043 188.529 134.25 189.871 133.456C190.765 135.405 191.695 136.284 192.417 136.749C192.624 136.886 193.104 137.197 193.655 137.714C193.723 137.783 193.794 137.851 193.844 137.921C194.085 138.18 194.292 138.438 194.446 138.681C194.637 138.941 194.774 139.181 194.86 139.371Z" fill="#3F6CC1"/>
<path d="M182.201 147.919C182.49 148.117 183.003 147.924 183.532 147.641C185.931 146.341 193.045 140.793 194.867 139.369C194.764 139.181 194.637 138.937 194.457 138.688L182.047 147.68C182.068 147.78 182.124 147.857 182.201 147.919Z" fill="#332B33"/>
<path d="M184.891 138.632L186.69 139.034C186.87 139.071 187.07 138.959 187.128 138.778C187.165 138.674 187.144 138.575 187.09 138.5C187.049 138.444 186.99 138.396 186.912 138.384L185.122 137.981C185.041 138.192 184.966 138.408 184.891 138.632Z" fill="#332B33"/>
<path d="M184.516 139.694L186.334 140.098C186.515 140.135 186.715 140.023 186.772 139.842C186.809 139.738 186.788 139.64 186.734 139.564C186.693 139.51 186.634 139.46 186.557 139.448L184.749 139.044C184.67 139.26 184.596 139.474 184.516 139.694Z" fill="#332B33"/>
<path d="M184.129 140.791L185.965 141.197C186.14 141.24 186.338 141.125 186.396 140.946C186.433 140.842 186.412 140.744 186.358 140.668C186.317 140.614 186.258 140.565 186.181 140.552L184.353 140.146C184.278 140.361 184.203 140.575 184.129 140.791Z" fill="#332B33"/>
<path d="M183.754 141.851L185.609 142.258C185.785 142.3 185.984 142.186 186.041 142.007C186.077 141.903 186.056 141.805 186.002 141.729C185.962 141.673 185.902 141.626 185.825 141.613L183.985 141.202C183.908 141.417 183.835 141.633 183.754 141.851Z" fill="#332B33"/>
<path d="M190.191 141.961C190.391 142.144 190.593 142.328 190.793 142.511C192.566 141.165 194.135 139.937 194.868 139.367C194.768 139.181 194.635 138.939 194.454 138.687C194.295 138.443 194.088 138.179 193.853 137.914C193.788 137.847 193.721 137.78 193.655 137.721C193.542 137.849 193.425 137.97 193.307 138.102C192.099 139.453 191.061 140.756 190.191 141.961Z" fill="#332B33"/>
<path d="M189.898 133.486C188.556 134.277 187.215 135.066 185.873 135.857C178.694 121.496 171.514 107.135 164.335 92.7745C164.259 92.6304 164.164 92.4107 164.119 92.1278C164.066 91.7939 164.107 91.5162 164.145 91.3458C167.856 90.2861 171.568 89.2247 175.278 88.165C178.41 91.7429 181.574 96.4332 183.632 102.448C184.974 106.369 185.212 108.998 186.576 116.716C187.362 121.158 188.444 126.857 189.898 133.486Z" fill="#EBA069"/>
<path d="M183.549 139.529C183.116 139.529 182.797 139.387 182.6 139.104C182.209 138.544 182.527 137.707 183.042 137.252C183.09 137.21 183.137 137.173 183.184 137.138C182.991 136.971 182.856 136.763 182.821 136.502C182.767 136.083 183.002 135.618 183.454 135.252C184.014 134.799 184.691 134.655 185.269 134.86C185.725 135.022 186.104 135.4 186.309 135.895C186.514 136.4 186.516 136.971 186.318 137.489C186.449 137.709 186.432 137.994 186.258 138.197C185.802 138.733 185.231 139.123 184.605 139.329C184.198 139.463 183.847 139.529 183.549 139.529ZM184.543 137.987C184.287 137.987 184.01 138.022 183.847 138.168C183.803 138.204 183.768 138.248 183.74 138.294C183.856 138.276 184.016 138.241 184.226 138.171C184.368 138.124 184.506 138.062 184.64 137.988C184.608 137.987 184.577 137.987 184.543 137.987ZM184.114 136.301C184.354 136.426 184.813 136.556 185.01 136.611C185.085 136.633 185.168 136.656 185.248 136.683C185.247 136.57 185.225 136.461 185.182 136.358C185.11 136.185 184.992 136.053 184.862 136.008C184.698 135.948 184.521 136.02 184.428 136.066C184.287 136.136 184.179 136.227 184.114 136.301Z" fill="#332B33"/>
<path d="M159.332 29.2912C158.971 30.6022 157.87 31.5845 156.528 31.7919C155.203 31.9992 153.879 31.4298 153.121 30.3263C153.482 28.4987 153.758 26.6183 153.947 24.6871C153.998 24.1704 154.05 23.652 154.084 23.1178C154.084 22.9632 154.101 22.8068 154.119 22.6521C154.119 22.6345 154.171 21.6522 154.171 21.6522C155.222 21.4976 156.27 21.3412 157.337 21.1865C157.491 22.3762 157.715 23.6872 158.059 25.0825C158.438 26.6535 158.885 28.0488 159.332 29.2912Z" fill="#EBA069"/>
<path d="M154.608 19.7257C154.848 20.5288 155.588 21.0332 156.26 20.8522C156.931 20.6712 157.28 19.8733 157.04 19.0685C156.8 18.2654 156.06 17.7611 155.388 17.9421C154.717 18.1231 154.366 18.9209 154.608 19.7257Z" fill="#EBA069"/>
<path d="M154.174 20.3187C154.331 20.8424 154.891 21.15 155.424 21.0059C155.957 20.8618 156.262 20.3205 156.104 19.7968C155.948 19.2732 155.389 18.9656 154.854 19.1097C154.323 19.2538 154.018 19.7951 154.174 20.3187Z" fill="#EBA069"/>
<path d="M147.398 123.34C142.757 122.257 138.113 121.175 133.472 120.091C133.061 102.797 135.529 80.8799 146.805 59.2017C148.173 56.5728 149.606 54.0704 151.088 51.6875C153.381 55.9349 155.673 60.1823 157.967 64.4297C157.02 74.2671 149.974 113.541 147.398 123.34Z" fill="#332B33"/>
<path d="M178.101 87.6546C182.008 97.7486 185.915 107.843 189.824 117.938C184.877 119.95 179.93 121.962 174.984 123.973C170.824 115.805 166.44 105.649 162.869 93.654C159.593 82.6516 157.745 72.6015 156.703 64.054C159.174 59.8857 161.645 55.7174 164.117 51.5508C165.099 53.7474 166.069 55.9757 167.028 58.2356C171.287 68.2838 174.95 78.1177 178.101 87.6546Z" fill="#332B33"/>
<path d="M164.441 62.5454C164.201 62.9707 162.854 65.2534 160.068 65.923C157.576 66.5205 154.891 65.5961 153.113 63.5524C152.438 59.5984 151.761 55.6445 151.086 51.6906C155.561 51.6203 160.036 51.5517 164.513 51.4814C164.49 55.1683 164.465 58.8569 164.441 62.5454Z" fill="#332B33"/>
<path d="M126.345 147.388C125.192 147.37 124.211 147.319 123.592 147.233C122.991 147.147 122.474 147.01 122.353 146.664C122.318 146.578 122.317 146.492 122.37 146.388C122.491 145.854 123.436 145.232 123.729 145.044C124.416 144.56 125.123 144.079 125.828 143.596C126.002 144.854 126.173 146.13 126.345 147.388Z" fill="#332B33"/>
<path d="M185.107 146.647C184.47 147.077 183.937 147.422 183.541 147.647C183.008 147.923 182.491 148.112 182.2 147.923C182.131 147.854 182.079 147.786 182.045 147.682C181.838 147.165 182.252 146.113 182.371 145.786C182.475 145.51 182.561 145.234 182.664 144.958C183.473 145.526 184.299 146.095 185.107 146.647Z" fill="#332B33"/>
<path d="M171.179 64.341C169.82 64.5554 168.434 64.7469 167.021 64.9156C158.573 65.9208 150.696 65.8769 143.578 65.239C144.036 54.6494 144.493 44.0582 144.951 33.4686C146.228 32.2579 149.219 29.7607 153.794 28.8135C160.273 27.471 165.369 30.1842 166.709 30.9539C168.199 42.083 169.69 53.212 171.179 64.341Z" fill="#FFCA61"/>
<path d="M162.507 29.4958C158.277 30.1425 154.048 30.7892 149.816 31.4359C150.008 30.023 150.199 28.6101 150.39 27.1972C153.832 26.7175 157.272 26.2395 160.713 25.7598C161.311 27.0057 161.909 28.2499 162.507 29.4958Z" fill="#FFCA61"/>
<path d="M156.595 23.2207C155.718 23.704 154.822 24.1855 153.945 24.6863C153.996 24.1697 154.049 23.6513 154.082 23.1171C154.082 22.9624 154.1 22.806 154.117 22.6514C154.943 22.8412 155.769 23.0309 156.595 23.2207Z" fill="#332B33"/>
<path d="M151.722 19.7272C151.956 19.7255 152.187 19.7255 152.42 19.7237L152.82 18.5902C152.664 18.3759 152.508 18.1597 152.352 17.9453C152.238 18.1456 152.049 18.3969 151.752 18.4637C151.596 18.4989 151.505 18.462 151.435 18.5235C151.331 18.6113 151.309 18.8837 151.722 19.7272Z" fill="#EBA069"/>
<path d="M153.698 23.2199L153.537 23.1567C151.987 22.5574 151.145 20.8897 151.659 19.4329L153.665 13.741C154.1 13.6198 155.641 13.2455 157.444 13.9765C159.13 14.6601 160.007 15.8902 160.274 16.2944L158.543 21.206C157.877 23.0934 155.708 23.9949 153.698 23.2199Z" fill="#EBA069"/>
<path d="M162.508 18.0054C164.956 20.2389 167.434 18.7311 169.498 21.0525C169.742 21.3249 171.106 22.9206 171.004 24.9327C170.931 26.3719 170.17 26.8393 170.466 27.8428C170.79 28.9376 172.027 29.4806 173.692 30.2134C176.226 31.3275 176.638 30.8759 177.456 31.6139C179.151 33.1446 177.492 35.2762 178.997 37.4693C180.372 39.4744 182.372 38.5904 184.947 41.1333C185.839 42.0137 187.07 43.2315 187.026 44.4388C186.87 48.6036 171.378 55.4834 162.866 49.3961C159.089 46.6951 157.898 42.3458 156.845 38.188C154.812 30.1747 156.124 23.3142 157.116 19.6608C155.208 17.4536 153.302 15.2482 151.395 13.0427C156.431 11.9093 158.803 12.8582 160.034 14.0251C161.437 15.3554 160.876 16.5169 162.508 18.0054Z" fill="#332B33"/>
<path d="M187.764 45.8015L187.275 45.4394C187.634 44.9527 187.824 44.4975 187.841 44.0916C187.882 43.0214 186.712 41.8633 185.855 41.0198C185.646 40.8142 185.446 40.6332 185.246 40.4715L185.627 39.9971C185.841 40.1693 186.06 40.3626 186.281 40.5805C187.217 41.5084 188.499 42.7754 188.45 44.1144C188.427 44.6469 188.196 45.2145 187.764 45.8015Z" fill="#332B33"/>
<path d="M179.397 36.4221C179.083 35.5838 179.095 34.7614 179.108 34.0356C179.122 33.0498 179.136 32.1975 178.368 31.5051C178.015 31.1888 177.761 31.1308 177.256 31.0148C177.074 30.9726 176.867 30.927 176.621 30.8602L176.782 30.2715C177.016 30.3365 177.216 30.3804 177.389 30.4209C177.941 30.5456 178.303 30.6282 178.773 31.0517C179.748 31.9321 179.732 33.0076 179.714 34.0462C179.702 34.7509 179.693 35.4801 179.967 36.2094L179.397 36.4221Z" fill="#332B33"/>
<path d="M172.173 25.861L171.598 25.659C171.689 25.4059 171.793 25.0527 171.817 24.5835C171.91 22.7858 170.748 21.3272 170.388 20.9213C170.032 20.5206 169.643 20.2201 169.199 20.0004L169.468 19.4521C169.983 19.7052 170.434 20.0532 170.844 20.5153C171.24 20.9652 172.527 22.5854 172.426 24.6134C172.396 25.1616 172.275 25.5693 172.173 25.861Z" fill="#332B33"/>
<path d="M163.418 17.8952C162.512 17.0693 162.231 16.3119 161.984 15.6441C161.765 15.0554 161.561 14.4983 160.94 13.9096C160.32 13.3227 159.501 12.9132 158.512 12.6953L158.64 12.0996C159.741 12.3421 160.656 12.8008 161.358 13.4668C162.08 14.1539 162.32 14.8023 162.554 15.4315C162.799 16.0922 163.029 16.7178 163.827 17.4436L163.418 17.8952Z" fill="#332B33"/>
<path d="M137.772 120.11C137.572 120.091 137.451 119.942 137.471 119.775L141.083 84.8572C141.102 84.6902 141.241 84.5567 141.416 84.5848C141.585 84.6024 141.706 84.7535 141.688 84.9187L138.076 119.836C138.058 119.993 137.927 120.11 137.772 120.11Z" fill="#E4E7EB"/>
<path d="M141.383 85.1932C141.116 85.1141 141.037 84.9366 141.097 84.7802L147.806 67.107C147.867 66.9506 148.039 66.8663 148.2 66.9313C148.357 66.991 148.435 67.1668 148.376 67.3249L141.667 84.9981C141.621 85.1176 141.507 85.1932 141.383 85.1932Z" fill="#E4E7EB"/>
<path d="M147.093 120.542C147.018 120.531 133.756 117.155 133.756 117.155C133.594 117.113 133.496 116.948 133.536 116.784C133.577 116.623 133.729 116.524 133.908 116.565L147.17 119.942C147.331 119.984 147.43 120.15 147.389 120.313C147.353 120.45 147.23 120.542 147.093 120.542Z" fill="#E4E7EB"/>
<path d="M174.335 120.937C174.216 120.937 174.102 120.865 174.055 120.749C173.99 120.592 174.064 120.413 174.22 120.35L187.878 114.7C188.037 114.635 188.213 114.712 188.276 114.865C188.341 115.021 188.267 115.201 188.111 115.264L174.453 120.914C174.413 120.93 174.372 120.937 174.335 120.937Z" fill="#E4E7EB"/>
<path d="M186.614 81.3512C186.586 82.0102 186.139 82.446 185.807 82.4284C185.457 82.4108 185.022 81.8784 185.136 81.1631C185.167 79.5095 185.199 77.8541 185.23 76.2005C186.421 75.4449 187.61 74.6892 188.801 73.9336C189.327 74.5574 191.417 77.1776 191.11 80.8011C190.972 82.4319 190.396 83.6954 189.949 84.4774C188.655 84.8552 187.308 85.1434 187.1 84.7463C186.942 84.4458 187.566 84.0012 187.852 83.2385C188.301 82.04 187.698 80.6307 186.83 79.3584C186.758 80.0209 186.686 80.6869 186.614 81.3512Z" fill="#EBA069"/>
<path d="M191.133 75.748C186.938 77.2505 182.744 78.753 178.551 80.2555C176.296 76.4175 173.748 70.9365 172.53 64.018C172.095 61.5489 171.889 59.2416 171.828 57.1469C174.394 56.5055 176.961 55.8641 179.526 55.2227C180.734 56.7867 181.948 58.4719 183.14 60.2819C186.726 65.7278 189.285 71.0226 191.133 75.748Z" fill="#FFCA61"/>
<path d="M120.758 41.8908C121.628 42.4759 122.497 43.0594 123.365 43.6446C123.688 44.6568 124.011 45.669 124.333 46.6794C125.394 45.4089 126.457 44.1384 127.518 42.8678C127.323 40.3637 126.38 39.2003 125.769 38.6538C125.024 37.9843 124.353 37.856 121.403 36.7717C120.081 36.285 119.018 35.872 118.355 35.6084C118.385 35.8035 118.455 36.0864 118.634 36.3746C118.876 36.7647 119.229 36.9756 120.426 37.4957C120.798 37.6574 121.275 37.8595 121.836 38.0792C121.58 38.348 121.242 38.7716 120.996 39.3602C120.533 40.4621 120.672 41.4637 120.758 41.8908Z" fill="#EBA069"/>
<path d="M132.914 62.5182C129.377 60.1915 125.84 57.8666 122.305 55.5399C123.567 50.022 124.83 44.5041 126.092 38.9844C129.564 43.5762 133.038 48.1681 136.51 52.7599C135.311 56.0127 134.113 59.2654 132.914 62.5182Z" fill="#FFCA61"/>
</svg>
