<svg width="163" height="148" viewBox="0 0 163 148" fill="none" xmlns="http://www.w3.org/2000/svg">
<path d="M117.512 68.5057C117.581 68.5326 117.66 68.5557 117.729 68.5807C117.923 68.6518 118.117 68.7211 118.315 68.7865C121.206 69.8153 124.097 70.8422 126.988 71.8614C128.543 72.419 130.087 72.9671 131.624 73.5132C134.817 74.644 138.002 75.7728 141.185 76.9054C144.422 78.0477 147.655 79.1958 150.889 80.3438C152.253 76.1882 153.613 72.0402 154.977 67.8846C151.628 66.8673 148.268 65.8539 144.918 64.827C137.574 62.602 130.235 60.3713 122.895 58.1406C121.498 60.8386 120.092 63.5366 118.695 66.2346C118.536 66.5442 118.37 66.8481 118.213 67.1577C117.98 67.6076 117.742 68.0557 117.512 68.5057Z" fill="#EBA069"/>
<path d="M131.731 25.9448C130.499 26.2948 129.268 26.6447 128.036 26.9947C126.849 26.0371 125.66 25.0794 124.473 24.1217C125.708 21.668 127.147 20.8815 127.994 20.5815C129.028 20.2142 129.759 20.3622 133.202 20.4911C134.743 20.5488 135.991 20.5719 136.773 20.5815C136.662 20.7661 136.474 21.0238 136.174 21.243C135.767 21.5372 135.323 21.6045 133.894 21.6334C133.45 21.643 132.883 21.6468 132.222 21.6391C132.37 22.018 132.537 22.5872 132.543 23.2872C132.551 24.591 131.996 25.5467 131.731 25.9448Z" fill="#EBA069"/>
<path d="M123.619 58.3604C123.11 59.4161 121.75 61.8334 119.024 62.9737C115.083 64.6217 109.875 62.9353 106.504 58.5508C106.952 56.7874 107.413 55.0124 107.887 53.2279C108.755 49.9587 109.645 46.7434 110.552 43.5801C114.323 44.1301 118.094 44.68 121.865 45.23C122.449 49.6068 123.033 53.9836 123.619 58.3604Z" fill="#EBA069"/>
<path d="M112.051 103.188C112.762 104.74 113.472 106.292 114.183 107.844C128.808 99.9172 143.435 91.9925 158.061 84.0658C159.15 82.862 160.239 81.6582 161.328 80.4544C158.764 77.6122 156.199 74.7699 153.633 71.9258C148.571 73.1469 142.784 75.3411 137.157 79.4159C133.49 82.0716 131.627 84.2696 125.558 90.3041C122.065 93.7751 117.518 98.1846 112.051 103.188Z" fill="#EBA069"/>
<path d="M111.933 119.851C111.547 119.878 111.174 119.413 110.834 118.85C109.916 117.307 108.239 113.369 106.858 109.956C105.938 107.696 105.146 105.661 104.773 104.717C104.973 104.598 105.233 104.444 105.542 104.31C105.828 104.169 106.17 104.037 106.539 103.917C106.639 103.89 106.737 103.863 106.833 103.848C107.636 103.656 108.268 103.646 108.543 103.635C109.486 103.596 110.857 103.283 112.698 102.004C113.597 103.448 114.398 104.94 115.213 106.429C115.051 107.25 114.89 108.056 114.725 108.869C114.68 109.111 114.632 109.356 114.579 109.609C114.55 109.763 114.519 109.915 114.486 110.079C114.436 110.323 114.388 110.567 114.342 110.819C114.306 110.992 114.277 111.161 114.24 111.334C114.191 111.579 114.143 111.823 114.093 112.067C114.064 112.221 114.033 112.373 114 112.536C113.95 112.78 113.902 113.025 113.854 113.277C113.555 114.769 113.263 116.259 112.963 117.751C112.903 118.125 112.686 119.35 112.21 119.713C112.133 119.798 112.039 119.838 111.933 119.851Z" fill="#332B33"/>
<path d="M108.947 107.217C108.811 107.217 108.675 107.19 108.544 107.138C108.271 107.03 108.056 106.82 107.939 106.551C107.824 106.282 107.816 105.984 107.925 105.709C108.033 105.436 108.24 105.22 108.509 105.103C109.059 104.861 109.714 105.117 109.956 105.676C110.196 106.234 109.941 106.884 109.385 107.124C109.243 107.186 109.095 107.217 108.947 107.217ZM108.947 105.682C108.89 105.682 108.83 105.694 108.776 105.717C108.669 105.763 108.588 105.847 108.548 105.953C108.506 106.061 108.509 106.178 108.554 106.284C108.6 106.392 108.684 106.472 108.79 106.515C108.901 106.559 109.019 106.555 109.12 106.509C109.339 106.415 109.441 106.159 109.345 105.94C109.272 105.78 109.113 105.682 108.947 105.682Z" fill="#E4E7EB"/>
<path d="M110.87 119.822L104.504 105.121C104.4 104.883 104.511 104.604 104.75 104.5C104.988 104.396 105.266 104.508 105.37 104.744L111.737 119.447C111.84 119.686 111.729 119.965 111.491 120.069C111.251 120.171 110.972 120.059 110.87 119.822Z" fill="#332B33"/>
<path d="M114.331 108.761L113.219 106.192L118.029 104.105C119.593 105.167 120.052 106.95 119.41 108.036C118.882 108.932 117.747 109.115 117.516 109.148C116.454 109.017 115.391 108.89 114.331 108.761Z" fill="#332B33"/>
<path d="M162.28 76.4091C162.28 81.4089 158.233 85.4607 153.238 85.4607C148.243 85.4607 144.195 81.4089 144.195 76.4091C144.195 71.4111 148.243 67.3574 153.238 67.3574C158.233 67.3574 162.28 71.4111 162.28 76.4091Z" fill="#EBA069"/>
<path d="M106.996 57.9712C107.025 58.0385 107.063 58.1116 107.092 58.1789C107.177 58.3674 107.261 58.5558 107.351 58.7424C108.623 61.5384 109.897 64.3326 111.174 67.121C111.856 68.6267 112.535 70.1189 113.211 71.6035C114.617 74.6861 116.023 77.7629 117.422 80.8417C118.853 83.9647 120.275 87.0896 121.698 90.2126C125.63 88.3049 129.555 86.3992 133.486 84.4935C131.888 81.3763 130.281 78.2552 128.687 75.1303C125.179 68.2998 121.679 61.4673 118.177 54.6367C115.268 55.5078 112.352 56.3732 109.445 57.2424C109.113 57.3424 108.779 57.4366 108.448 57.5366C107.966 57.6828 107.48 57.8232 106.996 57.9712Z" fill="#EBA069"/>
<path d="M133.102 138.86C134.806 138.825 136.512 138.788 138.216 138.752C136.812 121.223 135.409 103.695 134.005 86.1669C133.901 85.8111 133.799 85.4554 133.695 85.0996C129.458 86.1457 125.22 87.1918 120.982 88.238C120.088 93.3724 119.798 99.5607 121.295 106.347C122.271 110.772 123.545 113.356 126.662 121.331C128.457 125.918 130.689 131.848 133.102 138.86Z" fill="#EBA069"/>
<path d="M148.329 145.596C148.201 145.961 147.626 146.119 146.975 146.205C145.196 146.436 140.92 146.409 137.243 146.321C134.805 146.267 132.627 146.186 131.612 146.151C131.582 145.921 131.545 145.623 131.545 145.282C131.53 144.963 131.545 144.598 131.583 144.209C131.599 144.107 131.614 144.005 131.635 143.911C131.779 143.098 132.021 142.513 132.119 142.255C132.459 141.373 132.717 139.99 132.279 137.79C133.96 137.538 135.647 137.396 137.335 137.24C138.025 137.715 138.697 138.183 139.379 138.659C139.583 138.796 139.788 138.938 140 139.086C140.128 139.175 140.257 139.263 140.393 139.357C140.597 139.5 140.803 139.642 141.014 139.784C141.158 139.886 141.302 139.981 141.446 140.082C141.65 140.225 141.855 140.367 142.059 140.509C142.188 140.598 142.317 140.686 142.453 140.781C142.657 140.923 142.862 141.065 143.073 141.207C144.322 142.077 145.571 142.938 146.82 143.805C147.137 144.009 148.174 144.694 148.318 145.278C148.36 145.392 148.36 145.494 148.329 145.596Z" fill="#332B33"/>
<path d="M134.548 143.977C133.941 143.977 133.449 143.483 133.449 142.877C133.449 142.272 133.941 141.777 134.548 141.777C135.155 141.777 135.647 142.272 135.647 142.877C135.649 143.483 135.155 143.977 134.548 143.977ZM134.548 142.443C134.308 142.443 134.116 142.637 134.116 142.875C134.116 143.114 134.308 143.308 134.548 143.308C134.788 143.308 134.98 143.114 134.98 142.875C134.98 142.637 134.788 142.443 134.548 142.443Z" fill="#E4E7EB"/>
<path d="M147.877 146.562H131.869C131.61 146.562 131.398 146.35 131.398 146.091C131.398 145.831 131.61 145.619 131.869 145.619H147.877C148.137 145.619 148.348 145.831 148.348 146.091C148.348 146.348 148.137 146.562 147.877 146.562Z" fill="#332B33"/>
<path d="M139.115 138.983H136.316V133.735C137.911 132.721 139.728 133.008 140.47 134.029C141.081 134.871 140.796 135.985 140.735 136.212C140.195 137.137 139.655 138.06 139.115 138.983Z" fill="#332B33"/>
<path d="M122.052 58.5586C116.292 58.3624 110.533 58.1663 104.773 57.9701C106.034 45.6955 107.292 33.4209 108.552 21.1463C110.005 18.3637 112.976 17.0637 115.228 17.7656C118.058 18.6463 119.967 22.7558 118.056 26.4923C119.387 37.1823 120.718 47.8705 122.052 58.5586Z" fill="#EBA069"/>
<path d="M135.91 89.2319C136.419 102.482 136.926 115.729 137.435 128.979C135.251 131.336 133.066 133.694 130.884 136.052C127.05 128.433 123.179 118.433 121.298 106.345C120.737 102.737 120.408 99.3009 120.249 96.0721C115.467 83.0994 110.688 70.1287 105.906 57.156C111.16 56.6099 116.417 56.0637 121.671 55.5176C126.418 66.7557 131.165 77.9938 135.91 89.2319Z" fill="#332B33"/>
<path d="M156.017 85.459C144.444 92.4203 132.87 99.3816 121.297 106.345C119.622 103.524 117.949 100.703 116.273 97.8817C120.456 93.3088 125.301 88.5166 130.881 83.7302C133.719 81.2957 136.518 79.0611 139.246 77.0073C133.826 75.4612 128.407 73.9151 122.988 72.369C122.792 66.6692 122.596 60.9694 122.398 55.2695C134.606 59.6675 146.817 64.0654 159.025 68.4634C159.371 68.7884 162.929 72.2421 162.224 77.3842C161.453 83.0264 156.282 85.3455 156.017 85.459Z" fill="#332B33"/>
<path d="M126.338 56.6884C119.37 57.6307 112.402 58.573 105.434 59.5152C104.981 58.7345 104.338 57.5038 103.807 55.9153C102.334 51.4866 102.891 47.6964 103.3 44.8715C105.89 26.9855 105.844 24.6125 108.556 20.2434C109.888 18.0992 111.244 16.505 112.189 15.4877C112.575 15.2781 116.473 13.2416 119.887 15.1724C120.934 15.7646 121.635 16.5608 122.086 17.2165C123.504 30.3738 124.92 43.5311 126.338 56.6884Z" fill="#FFCA61"/>
<path d="M129.231 73.8826C129.152 73.873 112.428 69.8654 112.428 69.8654C112.247 69.8231 112.137 69.6423 112.182 69.4615C112.226 69.2846 112.414 69.175 112.583 69.2154L129.308 73.2249C129.489 73.2672 129.598 73.448 129.554 73.6268C129.518 73.7806 129.381 73.8826 129.231 73.8826Z" fill="#E4E7EB"/>
<path d="M119.688 94.5923C119.598 94.5923 119.506 94.5539 119.44 94.4808C119.318 94.3443 119.329 94.1327 119.467 94.0096L132.346 82.4504C132.479 82.3273 132.692 82.3388 132.815 82.4773C132.938 82.6138 132.926 82.8254 132.788 82.9504L119.909 94.5096C119.846 94.5635 119.767 94.5923 119.688 94.5923Z" fill="#E4E7EB"/>
<path d="M121.295 106.679C121.183 106.679 121.07 106.621 121.008 106.517C120.914 106.36 120.964 106.154 121.124 106.06L136.048 97.0812C136.204 96.987 136.412 97.035 136.508 97.1946C136.602 97.3523 136.552 97.5581 136.392 97.6523L121.468 106.631C121.412 106.664 121.354 106.679 121.295 106.679Z" fill="#E4E7EB"/>
<path d="M138.913 77.5933C138.786 77.5933 138.665 77.5202 138.607 77.3971C138.532 77.2279 138.607 77.0298 138.774 76.9548L142.365 75.328C142.526 75.2491 142.73 75.326 142.807 75.4933C142.882 75.6606 142.807 75.8606 142.64 75.9356L139.049 77.5625C139.007 77.5837 138.961 77.5933 138.913 77.5933Z" fill="#E4E7EB"/>
<path d="M124.548 10.8886C124.282 11.5674 124.019 12.2289 123.756 12.9077C123.474 13.6443 123.172 14.3789 122.89 15.1154C122.361 16.4365 121.852 17.7576 121.343 19.0787C119.099 18.0037 116.857 16.9269 114.633 15.8519C116.725 13.4 118.817 10.9655 120.928 8.51172C122.135 9.304 123.341 10.0963 124.548 10.8886Z" fill="#EBA069"/>
<path d="M124.734 49.3458C127.356 48.8536 129.98 48.3613 132.602 47.869C126.868 39.4654 121.134 31.0618 115.397 22.6582C111.797 24.5947 110.074 26.9388 109.188 28.7272C109.123 28.8599 109.06 28.9926 109 29.1253C114.245 35.8674 119.489 42.6076 124.734 49.3458Z" fill="#EBA069"/>
<path d="M137.178 25.252C138.534 25.9962 139.883 26.7442 141.231 27.4903C140.499 30.3306 139.746 32.9171 139.026 35.219C138.665 36.3747 138.305 37.4535 137.975 38.4554C137.56 39.7111 137.208 40.6534 137.157 40.7938C133.725 50.1839 128.817 50.8358 128.817 50.8358C128.671 50.855 125.897 51.1915 124.105 49.3204C122.675 47.8282 122.362 45.4436 123.252 43.1783C126.058 40.3188 129.036 36.9381 131.972 32.9921C133.964 30.3153 135.685 27.7153 137.178 25.252Z" fill="#EBA069"/>
<path d="M136.314 28.1204C136.756 28.3146 137.276 28.1108 137.47 27.6685L141.62 18.1726C141.814 17.7304 141.61 17.2092 141.169 17.015C140.727 16.8208 140.206 17.0246 140.012 17.4669L135.863 26.9628C135.669 27.4051 135.872 27.9262 136.314 28.1204Z" fill="#332B33"/>
<path d="M137.597 28.1836C138.694 28.3855 139.791 28.5894 140.89 28.7913C141.128 28.1798 141.357 27.4471 141.514 26.6048C141.82 24.9837 141.747 23.578 141.605 22.5665C141.753 19.3435 141.624 18.5704 141.457 18.5474C141.299 18.5262 141.167 19.1954 140.704 19.98C140.058 21.0761 139.148 21.7607 138.408 22.1876C137.932 21.7742 137.25 21.755 136.81 22.0973C136.285 22.5069 136.191 23.3664 136.698 23.9453C136.996 25.3606 137.296 26.7721 137.597 28.1836Z" fill="#EBA069"/>
<path d="M127.483 38.4275C129.846 35.1834 132.208 31.9392 134.573 28.6932C136.681 28.9297 138.788 29.1643 140.896 29.4009C140.83 31.8835 140.463 35.5872 138.959 39.7736C137.349 44.2542 135.57 49.2406 131.039 50.8656C127.515 52.129 124.04 50.806 122.478 50.0791C117.478 43.4485 112.477 36.8179 107.477 30.1874C107.54 29.6297 108.201 24.6145 112.738 22.0107C116.133 20.0646 119.512 20.7204 120.357 20.9107C122.732 26.749 125.106 32.5892 127.483 38.4275Z" fill="#FFCA61"/>
<path d="M125.224 51.3804C125.18 51.3804 125.135 51.3708 125.091 51.3535C121.935 49.994 119.09 48.0979 116.633 45.721C113.742 42.9249 111.432 39.4577 109.957 35.6982C109.89 35.5252 109.972 35.3309 110.145 35.2656C110.314 35.1983 110.51 35.2809 110.577 35.454C112.018 39.127 114.272 42.5115 117.098 45.2422C119.497 47.5633 122.275 49.4132 125.358 50.742C125.527 50.8151 125.606 51.0112 125.533 51.1805C125.475 51.3055 125.354 51.3804 125.224 51.3804Z" fill="#E4E7EB"/>
<path d="M121.849 20.0875C118.55 19.0395 115.252 17.9915 111.953 16.9434C113.34 15.4896 114.729 14.0339 116.116 12.5801C118.473 13.7204 120.828 14.8589 123.186 15.9992C122.738 17.3607 122.294 18.7241 121.849 20.0875Z" fill="#FFCA61"/>
<path d="M123.758 10.9649V12.9091C123.475 13.6456 123.174 14.3802 122.891 15.1167C122.344 13.4552 121.817 11.7765 121.289 10.0977C122.098 10.3803 122.928 10.663 123.758 10.9649Z" fill="#332B33"/>
<path d="M127.657 12.1775C127.472 12.0006 127.29 11.8236 127.105 11.6467L127.641 10.4468C127.928 10.3948 128.214 10.341 128.5 10.2891C128.439 10.5333 128.4 10.8756 128.587 11.1544C128.685 11.3006 128.784 11.341 128.792 11.441C128.806 11.589 128.619 11.8198 127.657 12.1775Z" fill="#EBA069"/>
<path d="M123.454 13.4518L123.63 13.5248C125.313 14.221 127.236 13.5345 127.928 11.9903L130.623 5.96161C130.37 5.53662 129.426 4.07513 127.444 3.29246C125.59 2.55979 123.967 2.87132 123.452 2.99247L121.125 8.19424C120.23 10.1942 121.273 12.5479 123.454 13.4518Z" fill="#EBA069"/>
<path d="M132.002 5.5029C132.098 5.59521 133.064 6.53748 132.797 7.27207C132.521 8.03551 131.057 8.16821 130.056 7.94129C128.586 7.60861 128.35 6.33941 127.416 6.43172C126.364 6.53556 125.841 8.15859 125.265 7.96244C124.88 7.83168 124.952 7.05477 124.51 6.95093C124.172 6.87209 123.812 7.25477 123.712 7.36246C123.111 8.00475 123.38 8.67395 123.004 9.04894C122.729 9.32201 122.112 9.4374 120.645 8.83934C121.551 6.94901 122.46 5.0606 123.367 3.17028C123.309 3.0049 123.265 2.78183 123.371 2.61068C123.613 2.21646 124.485 2.35492 125.463 2.52222C126.4 2.68183 127.581 2.89529 128.957 3.17028C130.292 4.08179 130.726 4.68754 130.851 5.08753C130.876 5.1683 130.947 5.43175 131.176 5.55867C131.431 5.70482 131.76 5.60867 132.002 5.5029Z" fill="#332B33"/>
<path d="M125.148 35.2208C123.158 32.8612 121.17 30.5036 119.18 28.144C120.943 26.8037 122.707 25.4614 124.47 24.1211C125.658 25.0788 126.847 26.0364 128.034 26.9941C127.071 29.7363 126.111 32.4785 125.148 35.2208Z" fill="#FFCA61"/>
<path d="M125.711 34.4044C125.571 34.4044 125.442 34.3159 125.396 34.1755L122.44 25.3566C122.38 25.1816 122.474 24.9931 122.649 24.9335C122.841 24.8739 123.014 24.972 123.072 25.1451L126.028 33.964C126.088 34.139 125.996 34.3275 125.821 34.3871C125.781 34.3986 125.744 34.4044 125.711 34.4044Z" fill="#E4E7EB"/>
<path d="M104.775 9.66429V139.237C104.775 143.71 101.156 147.333 96.689 147.333H30.1678C25.6994 147.333 22.082 143.71 22.082 139.237V9.66429C22.082 5.19135 25.7013 1.57031 30.1678 1.57031H96.689C101.156 1.57031 104.775 5.19327 104.775 9.66429Z" fill="white"/>
<path d="M44.7544 49.9121V147.332H30.1639C25.6955 147.332 22.0781 143.709 22.0781 139.236V49.9121H44.7544Z" fill="#56A6F9" fill-opacity="0.7"/>
<path d="M40.1525 63.777H25.0144C24.5879 63.777 24.2383 63.427 24.2383 63.0001V62.7828C24.2383 62.3558 24.5879 62.0059 25.0144 62.0059H40.1525C40.579 62.0059 40.9267 62.3558 40.9267 62.7828V63.0001C40.9267 63.427 40.579 63.777 40.1525 63.777Z" fill="white"/>
<path d="M40.1525 67.9625H25.0144C24.5879 67.9625 24.2383 67.6125 24.2383 67.1856V66.9683C24.2383 66.5414 24.5879 66.1914 25.0144 66.1914H40.1525C40.579 66.1914 40.9267 66.5414 40.9267 66.9683V67.1856C40.9267 67.6125 40.579 67.9625 40.1525 67.9625Z" fill="white"/>
<path d="M67.4303 36.627H44.7539V147.331H67.4303V36.627Z" fill="#3F6CC1"/>
<path d="M62.4352 49.1299C62.4352 52.1952 59.8359 54.6797 56.6297 54.6797C53.4234 54.6797 50.8242 52.1952 50.8242 49.1299C50.8242 46.0646 53.4234 43.5801 56.6297 43.5801C59.8359 43.5801 62.4352 46.0646 62.4352 49.1299Z" fill="white"/>
<path d="M90.1061 147.333V87.5747V82.7057V80.3481V77.7443V63.7812H67.4297V77.7443V80.3481V82.7057V87.5747V146.219V147.333H90.1061Z" fill="#56A6F9" fill-opacity="0.7"/>
<path d="M90.1119 77.7402H67.4297V80.344H90.1119V77.7402Z" fill="#3F6CC1"/>
<path d="M90.1119 82.7012H67.4297V87.5703H90.1119V82.7012Z" fill="#3F6CC1"/>
<path d="M45.0767 51.1289H44.4102V146.22H45.0767V51.1289Z" fill="#332B33"/>
<path d="M67.7603 63.7754H67.0938V146.221H67.7603V63.7754Z" fill="#332B33"/>
<path d="M96.6878 148H30.1666C25.3408 148 21.4141 144.069 21.4141 139.239V9.66554C21.4141 4.833 25.3408 0.902344 30.1666 0.902344H96.6878C101.515 0.902344 105.442 4.833 105.442 9.66554V139.239C105.442 144.069 101.515 148 96.6878 148ZM30.1666 2.23692C26.0766 2.23692 22.7492 5.56951 22.7492 9.66361V139.237C22.7492 143.331 26.0766 146.663 30.1666 146.663H96.6878C100.78 146.663 104.109 143.331 104.109 139.237V9.66361C104.109 5.56951 100.78 2.23692 96.6878 2.23692H30.1666Z" fill="#332B33"/>
<path d="M95.0621 39.143C91.4889 34.9009 87.9157 30.6587 84.3406 26.4165C80.6099 30.6587 76.8792 34.9009 73.1484 39.143C73.1484 26.0954 73.1484 13.0477 73.1484 0H95.0621V39.143Z" fill="#FFCA61"/>
<path d="M62.4354 62.5605H49.9023V63.2282H62.4354V62.5605Z" fill="#332B33"/>
<path d="M62.4354 63.6641H49.9023V64.3317H62.4354V63.6641Z" fill="#332B33"/>
<path d="M54.7711 65.1953H49.8281V65.8629H54.7711V65.1953Z" fill="#332B33"/>
<path d="M84.4602 94.9551H71.6562V95.6227H84.4602V94.9551Z" fill="#332B33"/>
<path d="M84.4602 96.4883H71.6562V97.1559H84.4602V96.4883Z" fill="#332B33"/>
<path d="M84.4602 98.373H71.6562V99.0407H84.4602V98.373Z" fill="#332B33"/>
<path d="M84.4602 100.262H71.6562V100.929H84.4602V100.262Z" fill="#332B33"/>
<path d="M39.296 74.5137H25.5508V75.1813H39.296V74.5137Z" fill="#332B33"/>
<path d="M39.296 76.1621H25.5508V76.8297H39.296V76.1621Z" fill="#332B33"/>
<path d="M39.296 78.2871H25.5508V78.9547H39.296V78.2871Z" fill="#332B33"/>
<path d="M31.1296 80.0098H25.5508V80.6774H31.1296V80.0098Z" fill="#332B33"/>
<path d="M8.39284 14.334L0.683594 147.189L14.327 147.98L22.0362 15.1249L8.39284 14.334Z" fill="#332B33"/>
<path d="M7.6383 27.9403L7.51172 30.125L21.155 30.9171L21.2816 28.7324L7.6383 27.9403Z" fill="white"/>
<path d="M7.8449 24.8485L7.78125 25.9414L21.4246 26.7376L21.4883 25.6447L7.8449 24.8485Z" fill="white"/>
<path d="M8.02413 22.3393L7.99219 22.8867L21.6355 23.6843L21.6675 23.1368L8.02413 22.3393Z" fill="white"/>
<path d="M12.3096 138.843C12.1674 141.281 10.0792 143.142 7.64325 143.002C5.20732 142.86 3.34767 140.769 3.48791 138.331C3.63007 135.893 5.71831 134.031 8.15424 134.172C10.5902 134.314 12.4498 136.404 12.3096 138.843Z" fill="white"/>
</svg>
