<svg width="183" height="148" viewBox="0 0 183 148" fill="none" xmlns="http://www.w3.org/2000/svg">
<path d="M119.585 136.353H106.061L106.063 110.102H75.8731L75.8714 136.353H61.3556C58.5383 136.353 56.2539 138.64 56.2539 141.46V142.388H124.686V141.46C124.685 138.64 122.402 136.353 119.585 136.353Z" fill="#56A6F9" fill-opacity="0.7"/>
<path d="M171.401 0H10.5312V109.693H171.401V0Z" fill="white"/>
<path d="M124.979 142.678H55.9648V141.46C55.9648 138.483 58.3867 136.062 61.36 136.062H75.5841L75.5857 109.811H106.359L106.357 136.062H119.589C122.562 136.062 124.981 138.483 124.981 141.46L124.979 142.678ZM56.5465 142.096H124.397V141.461C124.397 138.805 122.24 136.646 119.587 136.646H105.774L105.775 110.394H76.1673L76.1656 136.646H61.36C58.7069 136.646 56.5481 138.805 56.5481 141.461L56.5465 142.096Z" fill="#332B33"/>
<path d="M88.3945 91.8274H139.591C142.067 91.8274 144.074 89.8175 144.074 87.3395V18.4392C144.074 15.9611 142.067 13.9512 139.591 13.9512H88.3945V91.8274Z" fill="#56A6F9" fill-opacity="0.7"/>
<path d="M90.6477 89.8496H141.824V15.6812H90.6477V89.8496Z" fill="white"/>
<path d="M93.7798 86.2637H139.246V78.4437H93.7798V86.2637Z" fill="#56A6F9" fill-opacity="0.7"/>
<path d="M93.7798 75.4023H139.246V53.5664L93.7798 53.5664V75.4023Z" fill="#56A6F9" fill-opacity="0.7"/>
<path d="M93.7798 49.5234L139.246 49.5234V19.0202L93.7798 19.0202V49.5234Z" fill="#56A6F9" fill-opacity="0.7"/>
<path d="M91.4688 91.8272H41.3264C38.8744 91.8272 36.8867 89.8374 36.8867 87.3828V18.3936C36.8867 15.939 38.8744 13.9492 41.3264 13.9492H91.4688V91.8272Z" fill="#56A6F9" fill-opacity="0.7"/>
<path d="M90.3132 15.6816H39.1367V89.8501H90.3132V15.6816Z" fill="white"/>
<path d="M87.1851 19.0176H41.7188V35.3337H87.1851V19.0176Z" fill="#56A6F9" fill-opacity="0.7"/>
<path d="M87.1851 34.8262H41.7188V51.8134H87.1851V34.8262Z" fill="#56A6F9" fill-opacity="0.7"/>
<path d="M87.1851 73.2852H41.7188V86.2642H87.1851V73.2852Z" fill="#56A6F9" fill-opacity="0.7"/>
<path d="M33.01 18.0019C33.01 22.5167 29.353 26.1776 24.8429 26.1776C20.3328 26.1776 16.6758 22.5167 16.6758 18.0019C16.6758 13.487 20.3328 9.82617 24.8429 9.82617C29.353 9.82617 33.01 13.487 33.01 18.0019Z" fill="#332B33"/>
<path d="M22.8086 23.0246V12.9766C25.046 14.7197 27.2852 16.4613 29.5226 18.2044C27.2852 19.8117 25.046 21.419 22.8086 23.0246Z" fill="white"/>
<path d="M33.01 18.0019C33.01 22.5167 29.353 26.1776 24.8429 26.1776C20.3328 26.1776 16.6758 22.5167 16.6758 18.0019C16.6758 13.487 20.3328 9.82617 24.8429 9.82617C29.353 9.82617 33.01 13.487 33.01 18.0019Z" fill="#332B33"/>
<path d="M22.8086 23.0246V12.9766C25.046 14.7197 27.2852 16.4613 29.5226 18.2044C27.2852 19.8117 25.046 21.419 22.8086 23.0246Z" fill="white"/>
<path d="M165.291 18.0019C165.291 22.5167 161.634 26.1776 157.124 26.1776C152.614 26.1776 148.957 22.5167 148.957 18.0019C148.957 13.487 152.614 9.82617 157.124 9.82617C161.634 9.82617 165.291 13.487 165.291 18.0019Z" fill="#332B33"/>
<path d="M155.09 23.0246V12.9766C157.327 14.7197 159.566 16.4613 161.804 18.2044C159.565 19.8117 157.327 21.419 155.09 23.0246Z" fill="white"/>
<path d="M77.5889 144.107C76.2398 135.33 68.7397 128.767 59.9994 128.601C51.0111 128.431 43.1154 135.075 41.7227 144.107C53.6792 144.107 65.6341 144.107 77.5889 144.107Z" fill="#332B33"/>
<path d="M32.0277 34.3535H29.2422V102.395H32.0277V34.3535Z" fill="#FFCA61"/>
<path d="M30.8544 36.5448H30.5325C29.8856 36.5448 29.3594 36.0197 29.3594 35.3704V30.7096C29.3594 30.062 29.8839 29.5352 30.5325 29.5352H30.8544C31.5013 29.5352 32.0275 30.0603 32.0275 30.7096V35.3704C32.0275 36.018 31.503 36.5448 30.8544 36.5448Z" fill="#FFCA61"/>
<path d="M32.5159 31.5059H28.7734V38.5138H32.5159V31.5059Z" fill="#332B33"/>
<path d="M20.7018 45.9943L17.9297 46.2676L24.5907 113.982L27.3628 113.709L20.7018 45.9943Z" fill="#332B33"/>
<path d="M19.7397 48.2631L19.4196 48.295C18.776 48.3588 18.2011 47.8873 18.1374 47.2414L17.6815 42.6024C17.6179 41.9581 18.0888 41.3827 18.7341 41.3189L19.0542 41.287C19.6994 41.2233 20.2727 41.6947 20.3363 42.3407L20.7922 46.978C20.8559 47.6239 20.3849 48.1994 19.7397 48.2631Z" fill="#FFCA61"/>
<path d="M20.9355 43.0579L17.2109 43.4258L17.8984 50.4001L21.6229 50.0322L20.9355 43.0579Z" fill="#332B33"/>
<path d="M36.8892 89.1055H0.949219V144.109H36.8892V89.1055Z" fill="#3F6CC1"/>
<path d="M82.4728 22.3184H44.1445V22.9005H82.4728V22.3184Z" fill="#332B33"/>
<path d="M80.334 25.8887H44.3672V26.4709H80.334V25.8887Z" fill="#332B33"/>
<path d="M74.9929 31.3672H44.1445V31.9494H74.9929V31.3672Z" fill="#332B33"/>
<path d="M82.7387 31.3672H76.3516V31.9494H82.7387V31.3672Z" fill="#332B33"/>
<path d="M73.7708 38.3809H44.3672V38.963H73.7708V38.3809Z" fill="#332B33"/>
<path d="M66.0212 41.8867H44.7578V42.4689H66.0212V41.8867Z" fill="#332B33"/>
<path d="M81.9042 76.5762H46.5508V77.1584H81.9042V76.5762Z" fill="#332B33"/>
<path d="M81.9031 79.4844H46.5078V80.0666H81.9031V79.4844Z" fill="#332B33"/>
<path d="M114.953 58.9746H97V59.5568H114.953V58.9746Z" fill="#332B33"/>
<path d="M103.084 63.5293H97V64.1115H103.084V63.5293Z" fill="#332B33"/>
<path d="M118.369 68.4277H97V69.0099H118.369V68.4277Z" fill="#332B33"/>
<path d="M137.601 24.2344H96.1289V24.8166H137.601V24.2344Z" fill="#332B33"/>
<path d="M122.484 26.752H96.7422V27.3341H122.484V26.752Z" fill="#332B33"/>
<path d="M139.026 34.032C138.532 35.6292 137.003 36.7315 135.292 36.6996C133.665 36.6661 132.2 35.6124 131.707 34.0823C132.217 33.2099 132.595 31.8929 132.858 30.7402C133.056 29.8846 133.17 29.143 133.237 28.6984C133.254 28.5676 133.269 28.4686 133.269 28.4015C133.286 28.2538 133.303 28.1062 133.319 27.9569C133.353 27.628 133.385 27.3143 133.418 27.0022C134.422 26.8697 135.441 26.7556 136.46 26.623C136.443 27.5123 136.525 28.8293 137.003 30.3275C137.563 32.0388 138.418 33.2904 139.026 34.032Z" fill="#EBA069"/>
<path d="M131.597 27.9092C131.781 27.78 131.965 27.6525 132.15 27.5233L131.862 26.4227C131.622 26.3405 131.382 26.2583 131.144 26.1777C131.161 26.3958 131.144 26.6945 130.943 26.9109C130.837 27.025 130.745 27.0451 130.724 27.1307C130.69 27.2565 130.817 27.4797 131.597 27.9092Z" fill="#EBA069"/>
<path d="M133.904 25.1781C134.105 25.9465 134.795 26.4398 135.446 26.2787C136.096 26.1177 136.46 25.3643 136.259 24.5959C136.058 23.8275 135.367 23.3343 134.717 23.4953C134.065 23.6564 133.701 24.4097 133.904 25.1781Z" fill="#EBA069"/>
<path d="M133.464 25.737C133.595 26.2387 134.119 26.5407 134.636 26.4131C135.152 26.2856 135.463 25.7756 135.333 25.2756C135.202 24.774 134.676 24.472 134.16 24.5995C133.643 24.7253 133.332 25.2354 133.464 25.737Z" fill="#EBA069"/>
<path d="M135.032 29.5452L134.869 29.5855C133.316 29.9697 131.755 29.1325 131.383 27.7147L129.934 22.1832C130.215 21.8493 131.241 20.7152 133.066 20.2957C134.774 19.9031 136.128 20.3796 136.555 20.5491L137.806 25.3206C138.288 27.1561 137.046 29.0486 135.032 29.5452Z" fill="#EBA069"/>
<path d="M99.8237 41.7942C99.8053 42.4703 99.8538 43.4518 100.182 44.5776C100.534 45.7805 101.069 46.6798 101.473 47.2502C102.619 46.7956 103.764 46.3426 104.91 45.8879C105.964 43.7353 105.755 42.321 105.519 41.5727C105.23 40.66 104.741 40.2272 102.842 37.8985C101.991 36.8566 101.319 35.9975 100.9 35.459C100.831 35.6335 100.749 35.9002 100.755 36.2241C100.766 36.6619 100.952 37.0076 101.684 38.0176C101.912 38.333 102.207 38.7289 102.561 39.1853C102.219 39.2809 101.736 39.4638 101.247 39.8279C100.333 40.5107 99.9611 41.4016 99.8237 41.7942Z" fill="#EBA069"/>
<path d="M133.849 95.6721C130.092 95.0799 126.336 94.4876 122.578 93.8971C123.133 84.5117 123.688 75.128 124.242 65.7444C127.609 65.3249 130.977 64.9038 134.344 64.4844C134.181 74.8797 134.015 85.2768 133.849 95.6721Z" fill="#EBA069"/>
<path d="M125.137 64.7673C126.989 65.5525 130.587 66.794 135.248 66.6128C140.048 66.4249 143.613 64.8209 145.393 63.8697C144.179 60.7088 142.964 57.5496 141.751 54.3887C137.601 54.434 133.451 54.4776 129.302 54.5229C127.914 57.9371 126.526 61.3514 125.137 64.7673Z" fill="#EBA069"/>
<path d="M129.3 54.5206C133.45 54.482 137.599 54.4434 141.749 54.4048C143.903 48.4739 146.056 42.5431 148.21 36.6122C147.181 35.8807 142.525 32.7349 135.603 32.9782C128.878 33.2148 124.624 36.4881 123.625 37.3001C125.516 43.0414 127.408 48.781 129.3 54.5206Z" fill="#EBA069"/>
<path d="M116.914 62.3014C115.649 60.3502 114.366 58.4007 113.086 56.4679C114.566 53.7449 116.049 51.037 117.529 48.314C118.194 47.101 118.858 45.8712 119.522 44.6582C120.96 42.0057 122.415 39.3498 123.853 36.6973C123.985 36.7006 124.117 36.7023 124.235 36.7056C125.981 36.8013 128.817 37.4925 132.067 40.8396C130.213 43.4703 128.344 46.1195 126.489 48.7502C123.298 53.2634 120.105 57.7749 116.914 62.3014Z" fill="#EBA069"/>
<path d="M163.034 59.5155C160.769 60.0339 158.499 60.5691 156.247 61.1077C154.2 58.7806 152.171 56.4552 150.124 54.1282C149.216 53.0863 148.289 52.0394 147.381 50.9975C145.386 48.7342 143.397 46.4542 141.402 44.1892C141.449 44.065 141.498 43.9409 141.541 43.8335C142.232 42.2245 143.854 39.7968 148.111 37.8926C149.942 40.5401 151.785 43.2077 153.615 45.8535C156.748 50.4069 159.884 54.9587 163.034 59.5155Z" fill="#EBA069"/>
<path d="M103.989 43.582C102.873 44.3404 101.762 45.0987 100.652 45.8587C101.521 48.2646 102.385 50.4508 103.2 52.3902C103.609 53.3633 104.009 54.2727 104.378 55.1149C104.841 56.1702 105.224 56.9604 105.281 57.0796C109.031 64.9549 113.348 65.1177 113.348 65.1177C113.477 65.1227 115.914 65.1865 117.317 63.4148C118.436 62.0021 118.513 59.9049 117.555 58.009C114.883 55.7558 112.021 53.063 109.146 49.877C107.197 47.716 105.488 45.5987 103.989 43.582Z" fill="#EBA069"/>
<path d="M124.964 140.247C123.477 140.285 121.991 140.325 120.504 140.364C121.075 125.024 121.647 109.685 122.218 94.3449C122.296 94.0295 122.371 93.7158 122.448 93.4004C126.179 94.1369 129.911 94.8735 133.642 95.61C134.612 100.049 135.093 105.432 134.041 111.411C133.355 115.309 132.341 117.615 129.921 124.696C128.529 128.772 126.806 134.036 124.964 140.247Z" fill="#EBA069"/>
<path d="M111.372 146.602C111.478 146.925 111.977 147.071 112.543 147.158C114.09 147.388 117.821 147.433 121.031 147.416C123.158 147.408 125.06 147.373 125.945 147.359C125.975 147.16 126.013 146.899 126.018 146.602C126.037 146.324 126.03 146.005 126.003 145.666C125.992 145.577 125.98 145.488 125.961 145.405C125.849 144.692 125.648 144.18 125.566 143.952C125.283 143.177 125.082 141.965 125.499 140.054C124.037 139.808 122.568 139.657 121.098 139.492C120.489 139.895 119.894 140.292 119.293 140.697C119.112 140.813 118.932 140.933 118.745 141.059C118.631 141.135 118.517 141.209 118.396 141.289C118.215 141.41 118.036 141.531 117.848 141.651C117.721 141.739 117.593 141.819 117.467 141.905C117.286 142.026 117.107 142.146 116.926 142.267C116.812 142.343 116.7 142.417 116.579 142.497C116.398 142.618 116.217 142.739 116.031 142.859C114.928 143.598 113.824 144.329 112.721 145.066C112.441 145.238 111.524 145.819 111.39 146.326C111.348 146.425 111.347 146.514 111.372 146.602Z" fill="#FFCA61"/>
<path d="M111.371 146.604C111.478 146.923 111.981 147.067 112.546 147.157C115.123 147.545 123.738 147.399 125.945 147.361C125.974 147.157 126.017 146.899 126.022 146.604L111.389 146.332C111.349 146.423 111.347 146.513 111.371 146.604Z" fill="#332B33"/>
<path d="M120.891 146.649C120.939 146.904 120.986 147.161 121.035 147.416C123.162 147.408 125.064 147.372 125.949 147.359C125.979 147.159 126.018 146.899 126.023 146.602C126.041 146.324 126.034 146.005 126.007 145.666C125.996 145.577 125.984 145.488 125.966 145.404C125.806 145.436 125.647 145.463 125.481 145.497C123.785 145.832 122.245 146.23 120.891 146.649Z" fill="#332B33"/>
<path d="M147.829 94.0774C144.028 93.9902 140.225 93.9012 136.422 93.814C135.73 84.4387 135.036 75.0634 134.344 65.6881C137.625 64.8241 140.909 63.9617 144.19 63.0977C145.404 73.4242 146.615 83.7508 147.829 94.0774Z" fill="#EBA069"/>
<path d="M174.992 128.239C174.053 129.393 173.114 130.548 172.174 131.704C160.922 121.275 149.669 110.846 138.416 100.419C138.229 100.155 138.039 99.8917 137.852 99.6283C140.842 97.2744 143.83 94.9206 146.82 92.5684C150.815 94.7243 155.21 97.865 159.055 102.561C161.56 105.621 162.649 107.895 166.437 114.346C168.618 118.055 171.484 122.793 174.992 128.239Z" fill="#EBA069"/>
<path d="M170.955 142.697C171.269 142.826 171.704 142.541 172.138 142.168C173.322 141.143 175.785 138.34 177.864 135.89C179.243 134.27 180.456 132.802 181.023 132.12C180.891 131.966 180.718 131.768 180.497 131.572C180.297 131.377 180.051 131.174 179.778 130.974C179.702 130.926 179.628 130.875 179.553 130.835C178.94 130.456 178.42 130.275 178.195 130.189C177.425 129.899 176.374 129.263 175.199 127.701C174.061 128.651 172.988 129.668 171.907 130.678C171.817 131.402 171.73 132.114 171.642 132.833C171.612 133.045 171.585 133.261 171.56 133.486C171.544 133.622 171.525 133.756 171.508 133.9C171.481 134.117 171.456 134.332 171.426 134.553C171.409 134.706 171.388 134.855 171.371 135.008C171.344 135.224 171.319 135.439 171.292 135.655C171.275 135.79 171.259 135.926 171.24 136.07C171.213 136.286 171.188 136.501 171.158 136.722C170.999 138.041 170.835 139.355 170.674 140.674C170.622 140.999 170.466 142.073 170.761 142.506C170.806 142.6 170.871 142.658 170.955 142.697Z" fill="#FFCA61"/>
<path d="M170.954 142.699C171.266 142.825 171.704 142.538 172.139 142.167C174.112 140.461 179.614 133.825 181.024 132.124C180.888 131.97 180.721 131.769 180.501 131.572L170.762 142.51C170.802 142.598 170.869 142.659 170.954 142.699Z" fill="#332B33"/>
<path d="M177.191 135.502C177.416 135.631 177.641 135.762 177.867 135.891C179.246 134.27 180.46 132.802 181.026 132.121C180.894 131.967 180.721 131.769 180.5 131.572C180.3 131.378 180.054 131.175 179.781 130.975C179.705 130.927 179.632 130.876 179.556 130.836C179.477 130.979 179.394 131.116 179.31 131.264C178.458 132.772 177.756 134.2 177.191 135.502Z" fill="#332B33"/>
<path d="M139.357 61.6631C139.548 64.4817 138.266 66.8205 136.719 67.24C134.842 67.75 131.728 65.6696 131.181 61.6631C130.554 59.2824 129.928 56.9016 129.301 54.5209C133.451 54.4756 137.6 54.432 141.75 54.3867C140.952 56.8128 140.155 59.2388 139.357 61.6631Z" fill="#332B33"/>
<path d="M140.18 68.1575C140.776 69.3571 141.376 70.55 141.975 71.7445C144.539 71.2899 146.877 70.8033 148.96 70.3268C150.006 70.0869 150.985 69.847 151.892 69.6239C153.03 69.3453 153.884 69.1021 154.013 69.0652C162.499 66.7129 163.357 62.5588 163.357 62.5588C163.489 61.9313 163.558 60.8978 162.965 59.4818C162.779 59.5506 162.594 59.606 162.415 59.6496C159.988 60.2301 157.7 58.7487 156.653 57.9551C153.866 60.0103 150.759 62.1142 147.321 64.1829C144.866 65.661 142.476 66.9797 140.18 68.1575Z" fill="#EBA069"/>
<path d="M142.244 73.3951C143.048 72.677 143.851 71.9606 144.655 71.2425C144.258 69.6319 143.863 68.0196 143.466 66.4089C142.063 66.1287 140.66 65.8485 139.259 65.5684C138.427 65.8183 137.595 66.07 136.762 66.32C134.841 67.4877 133.941 68.2092 134.061 68.4877C134.202 68.8115 135.746 68.5246 138.691 67.627C139.371 68.3954 140.13 69.3735 140.849 70.5765C141.456 71.5898 141.907 72.5512 142.244 73.3951Z" fill="#EBA069"/>
<path d="M128.689 128.366C126.117 128.19 123.544 128.012 120.971 127.836C119.993 104.763 120.666 87.0414 121.625 78.0033C122.299 71.653 123.525 65.6802 126.581 59.392C127.605 57.2831 128.602 55.6187 129.301 54.5215C131.793 58.4659 134.284 62.412 136.776 66.3564C135.408 75.7132 135.276 83.2916 135.398 88.4188C135.638 98.4937 136.945 102.693 135.826 110.043C134.584 118.214 131.225 124.467 128.689 128.366Z" fill="#332B33"/>
<path d="M147.83 91.4453C152.034 94.2471 157.98 98.9381 163.38 106.216C167.659 111.983 170.225 117.526 171.78 121.722C170.175 123.442 168.571 125.16 166.965 126.879C161.475 123.108 153.539 117.07 145.09 108.231C142.105 105.109 140.169 103.067 138.415 100.42C135.726 96.3611 129.84 85.407 134.238 64.9569C136.571 61.4672 138.906 57.9775 141.239 54.4894C141.607 54.4441 141.974 54.3988 142.343 54.3535C143.545 57.4657 144.676 60.932 145.608 64.7405C148.142 75.0721 148.34 84.3132 147.83 91.4453Z" fill="#332B33"/>
<path d="M155.679 70.0344C151.654 70.677 147.628 71.3196 143.604 71.9622C142.553 70.3264 141.504 68.6922 140.453 67.0564C140.57 68.4573 140.686 69.86 140.803 71.2609C136.02 72.0779 131.235 72.8967 126.452 73.7137C125.753 61.3906 125.052 49.0692 124.352 36.7478C126.971 35.4929 129.589 34.2379 132.209 32.9846C134.257 32.7799 136.305 32.5736 138.353 32.3672C140.071 32.4746 142.898 32.9074 145.747 34.6892C146.739 35.31 147.554 35.9811 148.213 36.6136C150.702 47.7539 153.19 58.8942 155.679 70.0344Z" fill="#3F6CC1"/>
<path d="M118.047 63.1379C116.798 60.17 115.549 57.2037 114.301 54.2357C117.485 48.3904 120.668 42.5452 123.852 36.6999C126.673 35.361 129.494 34.0205 132.314 32.6816C131.146 39.2635 129.978 45.8453 128.81 52.4288C125.223 55.9974 121.635 59.5676 118.047 63.1379Z" fill="#3F6CC1"/>
<path d="M114.557 54.6122C116.07 56.5702 117.585 58.5281 119.098 60.486C119.09 61.0296 118.993 62.7611 117.699 64.2526C115.664 66.5964 112.529 66.2156 112.274 66.1803C111.084 65.2358 109.833 64.1083 108.598 62.7644C104.698 58.5214 102.679 54.0082 101.598 50.7634C103.319 49.2165 105.04 47.668 106.761 46.1211C109.358 48.9498 111.957 51.7818 114.557 54.6122Z" fill="#3F6CC1"/>
<path d="M161.455 56.2816C162.013 56.7866 164.26 58.9392 164.178 61.8886C164.076 65.5646 160.39 69.1801 155.153 69.5979C154.628 67.4957 154.102 65.3935 153.578 63.2912C153.514 62.1185 153.448 60.9441 153.385 59.7713C151.144 55.5417 148.905 51.3138 146.664 47.0841C147.179 43.5944 147.695 40.1047 148.211 36.6133C152.626 43.1699 157.04 49.7249 161.455 56.2816Z" fill="#3F6CC1"/>
<path d="M156.049 69.8889C155.93 69.8889 155.821 69.8184 155.775 69.6993L146.98 46.4859C146.923 46.3366 147 46.1671 147.151 46.11C147.302 46.0597 147.468 46.1285 147.526 46.2812L156.322 69.4946C156.379 69.6456 156.302 69.8134 156.151 69.8704C156.117 69.8821 156.082 69.8889 156.049 69.8889Z" fill="#E4E7EB"/>
<path d="M147.226 46.6437C147.042 46.6286 146.921 46.486 146.935 46.3266L147.59 38.7062C147.605 38.5451 147.742 38.4395 147.905 38.4395C148.064 38.4546 148.185 38.5972 148.171 38.7549L147.516 46.3752C147.503 46.5296 147.375 46.6437 147.226 46.6437Z" fill="#E4E7EB"/>
<path d="M152.603 60.8C152.489 60.8 152.384 60.7346 152.335 60.6222C152.273 60.4728 152.342 60.3017 152.489 60.2396L155.305 59.0568C155.463 58.9981 155.625 59.0618 155.687 59.2112C155.749 59.3605 155.681 59.5316 155.533 59.5937L152.716 60.7765C152.679 60.7933 152.642 60.8 152.603 60.8Z" fill="#E4E7EB"/>
<path d="M141.087 66.9207C140.943 66.9207 140.819 66.8166 140.799 66.6707L138.737 51.9434C138.714 51.784 138.826 51.6363 138.986 51.6129C139.133 51.5877 139.292 51.7018 139.316 51.8612L141.377 66.5885C141.399 66.7479 141.288 66.8955 141.129 66.919C141.116 66.9207 141.101 66.9207 141.087 66.9207Z" fill="#E4E7EB"/>
<path d="M139.026 52.1948C138.88 52.1948 138.756 52.0874 138.737 51.9398L136.487 34.1992C136.467 34.0398 136.579 33.8938 136.74 33.8737C136.892 33.8435 137.045 33.9676 137.065 34.127L139.316 51.8676C139.336 52.027 139.222 52.1729 139.063 52.1931C139.051 52.1947 139.038 52.1948 139.026 52.1948Z" fill="#E4E7EB"/>
<path d="M125.454 56.4664C125.194 56.3842 125.124 56.2131 125.184 56.0655L127.888 49.393C127.951 49.2454 128.117 49.1766 128.267 49.2319C128.417 49.294 128.488 49.4635 128.427 49.6128L125.724 56.2852C125.677 56.3976 125.57 56.4664 125.454 56.4664Z" fill="#E4E7EB"/>
<path d="M128.16 49.7922C128.027 49.7922 127.91 49.7032 127.878 49.5707L124.856 37.256C124.818 37.0983 124.913 36.9422 125.067 36.9036C125.235 36.8634 125.384 36.9607 125.419 37.115L128.441 49.4298C128.48 49.5875 128.384 49.7435 128.23 49.7821C128.205 49.7905 128.181 49.7922 128.16 49.7922Z" fill="#E4E7EB"/>
<path d="M145.701 27.724C146.933 30.1132 150.915 28.6015 153.052 31.14C154.292 32.613 153.268 33.5005 154.627 35.695C155.891 37.7369 157.334 37.8728 159.702 39.725C160.788 40.5739 165.057 43.9144 164.603 46.3823C164.031 49.4795 156.035 51.1623 149.727 50.4123C143.058 49.6187 138.508 46.1357 136.6 44.4563C135.462 43.453 131.298 39.5942 129.337 33.1113C128.43 30.1132 126.771 24.6303 129.687 21.3284C129.928 21.055 131.695 19.1105 134.063 19.139C137.098 19.1759 137.576 22.4139 142.026 23.5196C142.939 23.7461 144.045 23.8904 144.826 24.8333C145.681 25.8684 145.155 26.6637 145.701 27.724Z" fill="#332B33"/>
<path d="M154.886 33.1914C154.785 32.7938 154.75 32.4364 154.718 32.1193C154.653 31.4666 154.601 30.9516 154.043 30.2889C153.463 29.601 152.695 29.1698 151.551 28.8879L151.687 28.3242C152.543 28.5339 153.634 28.9047 154.487 29.9164C155.158 30.7133 155.226 31.3677 155.297 32.0622C155.328 32.371 155.36 32.6931 155.449 33.0505L154.886 33.1914Z" fill="#332B33"/>
<path d="M146.533 26.546C146.376 26.1433 146.347 25.7843 146.319 25.4353C146.275 24.9303 146.24 24.4958 145.816 23.9841C145.253 23.3029 144.504 23.0814 143.723 22.8969L143.855 22.3281C144.703 22.5278 145.586 22.7945 146.265 23.6116C146.807 24.2643 146.853 24.8363 146.899 25.3883C146.924 25.7088 146.949 26.0125 147.073 26.338L146.533 26.546Z" fill="#332B33"/>
<path d="M140.376 21.5737C139.617 21.0838 139.009 20.5369 138.471 20.0537C137.455 19.1343 136.652 18.4112 135.273 18.3927C134.869 18.4112 134.43 18.4514 134.004 18.5773L133.84 18.0169C134.306 17.881 134.773 17.8105 135.236 17.8105C136.877 17.8307 137.797 18.6612 138.861 19.6225C139.404 20.1141 139.969 20.6208 140.688 21.0839L140.376 21.5737Z" fill="#332B33"/>
<path d="M165.54 46.5738L165.086 46.2098C165.324 45.9145 165.474 45.6058 165.531 45.2954C165.697 44.3978 165.168 43.2418 163.961 41.861L164.397 41.4785C165.729 42.9986 166.302 44.3189 166.105 45.3994C166.028 45.8071 165.836 46.203 165.54 46.5738Z" fill="#332B33"/>
<path d="M135.757 95.754C135.579 95.7456 135.457 95.6064 135.465 95.4453L136.484 78.5721C136.486 78.5319 136.499 78.4882 136.518 78.4513L139.581 72.7889C139.66 72.6463 139.843 72.5976 139.977 72.6698C140.118 72.747 140.17 72.9248 140.096 73.0657L137.061 78.6694L136.047 95.4788C136.038 95.6349 135.909 95.754 135.757 95.754Z" fill="#E4E7EB"/>
<path d="M126.494 146.604H111.375V147.999H126.494V146.604Z" fill="#332B33"/>
<path d="M181.033 131.755L170.746 142.846L171.768 143.795L182.055 132.705L181.033 131.755Z" fill="#332B33"/>
<path d="M176.855 130.612C175.164 131.149 173.471 131.684 171.78 132.221C171.175 131.739 170.57 131.258 169.965 130.776C171.637 129.155 173.312 127.535 174.986 125.914C175.606 127.479 176.231 129.045 176.855 130.612Z" fill="#FFCA61"/>
<path d="M125.354 140.891C123.642 140.683 121.929 140.476 120.216 140.268C120.095 138.725 119.974 137.18 119.855 135.636C122.209 135.512 124.563 135.388 126.916 135.264C126.395 137.141 125.874 139.015 125.354 140.891Z" fill="#FFCA61"/>
<path d="M170.722 0.591797H11.2109V4.85999H170.722V0.591797Z" fill="#3F6CC1"/>
</svg>
