<svg width="179" height="148" viewBox="0 0 179 148" fill="none" xmlns="http://www.w3.org/2000/svg">
<path d="M175.676 9.56641H109.777C108.632 9.56641 107.703 10.4943 107.703 11.6386V27.915C107.703 29.0593 108.632 29.9872 109.777 29.9872H111.06V37.8616C113.057 35.2374 115.054 32.6113 117.052 29.9872H175.676C176.821 29.9872 177.75 29.0593 177.75 27.915V11.6386C177.752 10.4943 176.823 9.56641 175.676 9.56641Z" fill="white"/>
<path d="M110.712 38.9049V30.3391H109.782C108.444 30.3391 107.355 29.2515 107.355 27.9152V11.6388C107.355 10.3025 108.444 9.21484 109.782 9.21484H175.682C177.02 9.21484 178.106 10.3025 178.106 11.6388V27.9152C178.106 29.2515 177.018 30.3391 175.682 30.3391H117.23L110.712 38.9049ZM109.78 9.91636C108.829 9.91636 108.056 10.6886 108.056 11.6388V27.9152C108.056 28.8634 108.829 29.6376 109.78 29.6376H111.415V36.8226L116.88 29.6376H175.68C176.629 29.6376 177.402 28.8634 177.402 27.9152V11.6388C177.402 10.6906 176.629 9.91636 175.68 9.91636H109.78Z" fill="#332B33"/>
<path d="M117.352 12.209L119.415 16.3898L124.035 17.061L120.692 20.3159L121.481 24.9111L117.352 22.7398L113.22 24.9111L114.009 20.3159L110.668 17.061L115.286 16.3898L117.352 12.209Z" fill="#3F6CC1"/>
<path d="M133.598 12.3965L135.664 16.5773L140.281 17.2485L137.129 20.3153L137.728 25.0986L133.598 22.9293L129.468 25.0986L130.257 20.5034L126.914 17.2485L131.534 16.5773L133.598 12.3965Z" fill="#3F6CC1"/>
<path d="M149.809 12.209L151.875 16.3898L156.492 17.061L153.151 20.3159L153.938 24.9111L149.809 22.7398L145.679 24.9111L146.468 20.3159L143.125 17.061L147.743 16.3898L149.809 12.209Z" fill="#3F6CC1"/>
<path d="M165.849 12.3965L167.915 16.5773L172.533 17.2485L169.192 20.5034L169.979 25.0986L165.849 22.9293L161.72 25.0986L162.509 20.5034L159.168 17.2485L163.786 16.5773L165.849 12.3965Z" fill="#3F6CC1"/>
<path d="M132.794 60.9662C136.673 81.672 138.666 92.0269 141.333 92.1624C145.26 92.3625 151.473 76.4723 149.874 60.9662C147.784 40.7273 132.681 24.0345 128.723 25.9349C126.438 27.0306 128.557 38.3418 132.794 60.9662Z" fill="#56A6F9" fill-opacity="0.7"/>
<path d="M142.973 145.781L142.271 145.775C142.407 131.654 142.407 117.357 142.271 103.276C141.969 72.304 141.154 62.4363 137.902 50.4741C135.612 42.0479 132.417 33.846 128.41 26.095L129.033 25.7715C133.064 33.567 136.275 41.8154 138.58 50.2881C141.852 62.3231 142.674 72.2252 142.975 103.27C143.109 117.355 143.109 131.656 142.973 145.781Z" fill="#332B33"/>
<path d="M164.264 82.9765C159.937 98.1692 157.732 105.763 155.615 105.692C152.503 105.589 148.567 93.3354 150.777 81.8726C153.663 66.9123 166.607 55.4374 169.616 57.1093C171.356 58.0777 168.992 66.3766 164.264 82.9765Z" fill="#56A6F9" fill-opacity="0.7"/>
<path d="M151.673 145.626L150.973 145.578C151.729 134.984 152.604 124.318 153.569 113.868C155.704 90.716 156.958 83.3794 160.279 74.6094C162.618 68.4333 165.661 62.4835 169.322 56.9199L169.908 57.304C166.274 62.8272 163.255 68.7304 160.934 74.8561C157.642 83.5533 156.396 90.8555 154.267 113.933C153.304 124.377 152.432 135.039 151.673 145.626Z" fill="#332B33"/>
<path d="M56.7065 40.1417C40.4438 56.5293 35.1221 70.2381 31.9634 68.8351C28.1998 67.1652 31.6377 45.8731 42.5017 28.6081C46.8158 21.7527 54.25 10.2899 68.9627 4.25319C84.3513 -2.06247 103.534 -0.734239 104.883 4.25319C106.464 10.0897 81.9393 14.7153 56.7065 40.1417Z" fill="#56A6F9" fill-opacity="0.7"/>
<path d="M41.4729 138.251C35.9083 137.336 30.3438 136.42 24.7812 135.504C35.6149 117.297 46.4486 99.0899 57.2823 80.8828C67.9056 84.7644 72.2156 90.3725 74.144 94.1267C74.2856 94.4017 74.4192 94.6786 74.5466 94.9556C63.5207 109.388 52.4968 123.819 41.4729 138.251Z" fill="#EBA069"/>
<path d="M111.77 145.443H64.6328C65.0638 144.303 65.4948 143.162 65.9258 142.048C67.8279 137.184 69.6794 132.32 71.5551 127.456C72.0367 126.265 72.494 125.075 72.925 123.884C73.7122 123.86 74.471 123.884 75.2581 123.884C76.197 123.908 77.1602 123.908 78.097 123.934C79.4406 123.959 80.7842 123.959 82.1298 123.959C85.3998 124.009 88.6717 124.033 91.9417 124.086C93.7931 124.112 95.6689 124.137 97.4961 124.137C99.3719 124.161 101.25 124.187 103.099 124.213C103.708 125.707 104.342 127.254 104.951 128.748C106.751 133.181 108.577 137.589 110.378 142.048C110.831 143.162 111.288 144.303 111.77 145.443Z" fill="#EBA069"/>
<path d="M106.757 133.161C94.2784 133.2 81.8016 133.236 69.3228 133.274C65.3103 115.809 61.2977 98.3461 57.2852 80.881C61.8663 78.0749 72.7749 72.2404 87.8376 72.0908C102.079 71.9493 112.619 76.963 117.322 79.5669C113.799 97.4303 110.278 115.296 106.757 133.161Z" fill="#EBA069"/>
<path d="M95.8204 75.0908C90.7739 75.1171 85.7536 75.1413 80.707 75.1676C81.6459 69.6707 82.6091 64.1981 83.5723 58.7012C86.9191 58.7517 90.2923 58.778 93.6391 58.8285C93.9426 61.0079 94.2218 63.161 94.5011 65.3383C94.9584 68.579 95.3894 71.848 95.8204 75.0908Z" fill="#EBA069"/>
<path d="M94.501 65.3344C93.5884 65.4617 91.0651 65.6902 88.3941 64.2872C85.0392 62.5243 83.8413 59.4453 83.5742 58.6973C86.921 58.7478 90.2942 58.7741 93.641 58.8246C93.9425 61.0019 94.2217 63.155 94.501 65.3344Z" fill="#332B33"/>
<path d="M87.5455 62.5302L87.9239 62.6778C91.5358 64.0929 95.5524 62.5827 96.896 59.3056L102.143 46.5045C101.574 45.615 99.4718 42.5663 95.2185 40.9793C91.2424 39.4954 87.8348 40.203 86.7523 40.4739L82.2258 51.5182C80.4856 55.7657 82.8672 60.6965 87.5455 62.5302Z" fill="#EBA069"/>
<path d="M94.3281 58.5278C94.403 58.9018 92.1246 60.4423 90.2933 59.5204C88.8648 58.8007 88.6219 57.0399 88.5977 56.8438C89.1359 57.2137 89.9433 57.6908 91.0016 58.0163C92.9562 58.6188 94.2735 58.2528 94.3281 58.5278Z" fill="white"/>
<path d="M118.744 79.2442C117.528 101.361 116.31 123.476 115.094 145.593C97.3947 145.745 79.6973 145.896 61.998 146.074C60.4257 124.337 58.8535 102.602 57.2812 80.8898C58.7766 79.8264 61.2108 78.2051 64.4565 76.5574C65.3448 76.1268 66.2817 75.6699 67.2712 75.2393C72.3926 73.0094 79.0883 71.008 87.0486 70.7047C103.075 70.0719 114.637 76.6585 118.744 79.2442Z" fill="#FFCA61"/>
<path d="M99.1986 72.1239C98.284 73.0539 94.8967 76.2683 89.4778 76.7676C82.9217 77.3721 78.4155 73.5411 77.6445 72.8618C78.2435 70.3994 78.8424 67.935 79.4414 65.4727C85.0059 65.7537 90.5705 66.0367 96.1351 66.3177C97.1549 68.2545 98.1767 70.1892 99.1986 72.1239Z" fill="#FFCA61"/>
<path d="M31.7768 124.181C28.6688 125.498 27.4021 126.994 27.4021 126.994C27.2078 127.248 23.4259 131.791 24.6987 137.106C24.7796 137.444 25.0245 138.402 25.7489 139.722C28.2782 144.323 32.9949 146.664 35.7388 147.734C37.2564 147.526 41.6028 146.927 43.1205 146.719C56.2285 144.92 69.3204 143.141 82.4002 141.378C82.5722 138.855 82.7523 136.352 82.9263 133.829C82.9668 133.103 83.0194 132.351 83.078 131.615C77.1857 129.666 71.7344 128.049 66.8255 126.698C64.3528 126.031 62.0339 125.429 59.8668 124.871C57.1654 124.171 55.0853 123.727 54.7777 123.66C43.0921 121.034 35.8562 122.459 31.7768 124.181Z" fill="#EBA069"/>
<path d="M48.5894 129.76C32.1527 131.38 23.7715 131.38 23.4437 129.76C23.383 129.463 23.5955 129.112 24.077 128.705C30.2891 116.705 36.3252 105.881 42.0374 95.9826C45.1071 90.6636 49.3058 83.5979 57.6506 79.4636C59.6356 78.4791 61.392 77.8928 62.6101 77.541C65.965 85.939 69.32 94.339 72.6769 102.739C64.6498 111.745 56.6206 120.752 48.5894 129.76Z" fill="#FFCA61"/>
<path d="M155.715 130.063C155.742 131.254 155.614 133.154 154.726 135.206C150.847 144.073 136.774 145.086 134.111 145.288C131.474 145.466 127.316 145.466 122.243 144.124C117.197 130.773 112.152 117.448 107.105 104.097C110.479 95.6866 113.825 87.3008 117.172 78.8887C118.388 79.2425 120.165 79.8267 122.142 80.8133C124.246 81.8524 126.098 83.0937 127.745 84.4361C128.53 85.0952 129.291 85.8048 129.977 86.4881C133.502 90.0341 135.859 94.0127 137.761 97.3302C143.469 107.238 149.503 118.054 155.715 130.063Z" fill="#FFCA61"/>
<path d="M75.2066 145.948C67.7016 146.631 60.2714 147.314 52.8432 148H29.2616C27.9423 147.112 26.4712 145.871 25.2288 144.124C24.7209 143.441 24.2656 142.655 23.8589 141.793C21.1454 135.991 23.0981 130.672 23.4522 129.76C24.6703 128.974 25.8601 128.216 27.0782 127.429C28.4481 126.542 29.7917 125.656 31.1616 124.795C31.6189 124.492 32.0742 124.187 32.5558 123.883C36.283 121.476 40.0103 119.07 43.7375 116.664C47.5922 117.829 51.445 118.995 55.2997 120.16C56.9488 120.667 58.5716 121.148 60.2188 121.654C63.1103 122.515 65.9755 123.402 68.8651 124.263C69.1949 125.353 69.4984 126.443 69.8282 127.532C70.0812 128.369 70.3098 129.204 70.5628 130.041C71.7789 134.196 72.997 138.35 74.1888 142.505C74.3669 143.037 74.5187 143.595 74.6704 144.126C74.7979 144.557 74.9234 145.014 75.0508 145.444C75.1055 145.618 75.1561 145.77 75.2066 145.948Z" fill="#FFCA61"/>
<path d="M96.5579 136.174C94.241 138.086 89.9493 140.999 84.0913 141.584C82.8084 141.711 81.6065 141.711 80.5057 141.634C79.1398 137.587 77.776 133.537 76.4102 129.49C81.7886 126.555 87.165 123.617 92.5434 120.682C93.8809 125.847 95.2204 131.01 96.5579 136.174Z" fill="#EBA069"/>
<path d="M122.135 145.401H85.915C84.276 145.401 83.2663 144.073 83.6589 142.435L94.962 95.3446C95.3546 93.7071 97.0017 92.3809 98.6407 92.3809H134.861C136.5 92.3809 137.51 93.7071 137.117 95.3446L125.814 142.435C125.421 144.073 123.774 145.401 122.135 145.401Z" fill="#332B33"/>
<path d="M128.539 101.657C127.849 101.657 127.254 101.388 126.867 100.896C126.467 100.389 126.341 99.7178 126.511 99.0042C126.841 97.6335 128.227 96.5195 129.603 96.5195C130.293 96.5195 130.888 96.7904 131.275 97.2817C131.675 97.7871 131.801 98.4583 131.631 99.1679C131.295 100.565 129.939 101.657 128.539 101.657ZM129.603 97.2231C128.533 97.2231 127.452 98.0944 127.195 99.1699C127.076 99.6673 127.155 100.126 127.42 100.462C127.671 100.779 128.069 100.955 128.541 100.955C129.611 100.955 130.692 100.08 130.949 99.0042C131.068 98.5089 130.989 98.0499 130.724 97.7163C130.471 97.3969 130.073 97.2231 129.603 97.2231Z" fill="#E4E7EB"/>
<path d="M116.117 118.889C115.419 121.797 112.495 124.154 109.585 124.154C106.675 124.154 104.882 121.797 105.58 118.889C106.279 115.982 109.202 113.625 112.112 113.625C115.022 113.625 116.815 115.982 116.117 118.889Z" fill="#E4E7EB"/>
<path d="M132.22 127.622H120.612C119.586 127.622 118.746 126.783 118.746 125.758C118.746 124.696 119.586 123.857 120.612 123.857H132.22C133.246 123.857 134.086 124.696 134.086 125.721C134.086 126.781 133.246 127.622 132.22 127.622Z" fill="#EBA069"/>
<path d="M132.22 130.837H120.612C119.586 130.837 118.746 129.998 118.746 128.973C118.746 127.911 119.586 127.072 120.612 127.072H132.22C133.246 127.072 134.086 127.911 134.086 128.936C134.086 129.998 133.246 130.837 132.22 130.837Z" fill="#EBA069"/>
<path d="M132.615 133.825H121.006C119.98 133.825 119.141 132.986 119.141 131.961C119.141 130.9 119.98 130.061 121.006 130.061H132.615C133.641 130.061 134.481 130.9 134.481 131.925C134.481 132.986 133.641 133.825 132.615 133.825Z" fill="#EBA069"/>
<path d="M132.088 136.667H123.386C122.477 136.667 121.734 135.925 121.734 135.017V134.55C121.734 133.642 122.477 132.9 123.386 132.9H132.088C132.997 132.9 133.74 133.642 133.74 134.55V135.017C133.74 135.925 132.997 136.667 132.088 136.667Z" fill="#EBA069"/>
<path d="M68.8672 124.613C68.762 124.596 44.1545 116.995 44.1545 116.995C43.9683 116.938 43.8651 116.742 43.9218 116.556C43.9804 116.37 44.1707 116.265 44.3629 116.326L68.9724 123.927C69.1586 123.986 69.2597 124.18 69.2051 124.366C69.1586 124.518 69.0169 124.613 68.8672 124.613Z" fill="#E4E7EB"/>
<path d="M131.421 123.352C131.334 123.352 131.247 123.32 131.179 123.255C131.039 123.122 131.033 122.9 131.169 122.76C132.737 121.114 134.679 119.81 136.786 118.982C138.797 118.189 141.015 117.819 143.164 117.902C143.358 117.91 143.508 118.072 143.502 118.266C143.494 118.458 143.342 118.604 143.137 118.604C141.065 118.515 138.965 118.876 137.047 119.635C135.033 120.427 133.178 121.674 131.678 123.243C131.606 123.318 131.515 123.352 131.421 123.352Z" fill="#E4E7EB"/>
<path d="M69.9329 144.473C69.7811 144.473 69.6415 144.374 69.595 144.221L64.2955 126.214C64.2409 126.028 64.3481 125.834 64.5343 125.779C64.7184 125.732 64.9147 125.832 64.9713 126.018L70.2708 144.024C70.3235 144.21 70.2182 144.407 70.032 144.461C69.9976 144.467 69.9653 144.473 69.9329 144.473Z" fill="#E4E7EB"/>
<path d="M131.582 141.353C131.441 141.353 131.307 141.268 131.255 141.128C131.184 140.948 131.275 140.744 131.457 140.675C135.898 138.961 138.834 134.841 138.602 130.65C138.399 127.031 135.965 124.637 134.925 123.772C134.777 123.649 134.755 123.431 134.879 123.279C135.006 123.133 135.227 123.111 135.374 123.234C136.483 124.152 139.085 126.714 139.304 130.611C139.555 135.1 136.433 139.507 131.71 141.328C131.667 141.344 131.625 141.353 131.582 141.353Z" fill="#E4E7EB"/>
<path d="M88.4303 76.6026C87.5582 76.6026 86.6497 76.5258 85.7168 76.3499C81.9309 75.6403 79.2397 73.6469 77.6492 72.0963C77.5096 71.9589 77.5076 71.7365 77.6431 71.601C77.7807 71.4635 77.9993 71.4615 78.1409 71.5929C79.6606 73.0768 82.2324 74.9833 85.8463 75.6605C92.6857 76.9402 97.9771 72.721 98.9686 71.8598C99.1163 71.7344 99.3369 71.7466 99.4643 71.8962C99.5918 72.0417 99.5776 72.2641 99.4299 72.3935C98.5295 73.1698 94.2438 76.6026 88.4303 76.6026Z" fill="#E4E7EB"/>
<path d="M80.2346 71.2833C79.9675 71.2307 79.8501 71.0447 79.8906 70.8547L80.8356 66.6739C80.8781 66.4838 81.0582 66.3646 81.2544 66.407C81.4446 66.4515 81.564 66.6375 81.5215 66.8275L80.5766 71.0083C80.5422 71.1721 80.3965 71.2833 80.2346 71.2833Z" fill="#E4E7EB"/>
<path d="M81.6562 73.586C81.4033 73.5476 81.2758 73.3637 81.3102 73.1756L82.4251 66.8721C82.4575 66.6821 82.6133 66.5547 82.8319 66.587C83.0221 66.6194 83.1496 66.8034 83.1152 66.9934L82.0002 73.2969C81.9719 73.4647 81.8221 73.586 81.6562 73.586Z" fill="#E4E7EB"/>
<path d="M83.7465 74.397C83.5179 74.3748 83.3762 74.2029 83.3964 74.0108L84.0844 67.2322C84.1047 67.0402 84.2645 66.8623 84.4689 66.9189C84.6611 66.9391 84.8028 67.1109 84.7825 67.303L84.0945 74.0816C84.0784 74.2636 83.9246 74.397 83.7465 74.397Z" fill="#E4E7EB"/>
<path d="M92.9465 72.8887C92.7724 72.8887 92.6207 72.7593 92.5984 72.5814L91.9833 67.6809C91.959 67.4889 92.0946 67.313 92.2868 67.2887C92.4871 67.2524 92.6551 67.4 92.6793 67.592L93.2945 72.4925C93.3188 72.6846 93.1812 72.8604 92.9889 72.8847C92.9768 72.8888 92.9606 72.8887 92.9465 72.8887Z" fill="#E4E7EB"/>
<path d="M90.735 73.7025C90.5306 73.6964 90.3788 73.5347 90.3829 73.3406L90.5427 67.9549C90.5488 67.7648 90.7046 67.6152 90.8948 67.6152C91.0992 67.6213 91.2509 67.783 91.2469 67.9771L91.087 73.3628C91.081 73.5508 90.9252 73.7025 90.735 73.7025Z" fill="#E4E7EB"/>
<path d="M95.3357 71.8405C95.184 71.8405 95.0443 71.7414 94.9978 71.5878L93.9901 68.1571C93.9375 67.9711 94.0427 67.775 94.2289 67.7204C94.413 67.6739 94.6093 67.7729 94.6659 67.9589L95.6736 71.3897C95.7283 71.5757 95.621 71.7718 95.4349 71.8263C95.4025 71.8344 95.3701 71.8405 95.3357 71.8405Z" fill="#E4E7EB"/>
<path d="M157.328 144.125H0.894531V148.001H157.328V144.125Z" fill="#3F6CC1"/>
<path d="M45.1265 103.037C44.5883 102.42 44.653 101.474 45.2722 100.938L52.1034 94.9966C52.7206 94.4588 53.6676 94.5255 54.2038 95.1421C54.7421 95.7587 54.6753 96.7049 54.0581 97.2406L47.2269 103.182C46.6097 103.718 45.6627 103.653 45.1265 103.037Z" fill="#3F6CC1"/>
<path d="M81.9422 96.3277C81.404 95.7111 81.4707 94.767 82.0879 94.2292L88.9192 88.2876C89.5363 87.7498 90.4833 87.8165 91.0195 88.4331C91.5578 89.0497 91.491 89.9939 90.8739 90.5316L84.0426 96.4713C83.4254 97.011 82.4784 96.9443 81.9422 96.3277Z" fill="#3F6CC1"/>
<path d="M103.187 77.2318C103.685 76.5809 104.624 76.4555 105.276 76.9528L112.473 82.4457C113.125 82.943 113.25 83.8811 112.752 84.53C112.255 85.181 111.316 85.3063 110.666 84.809L103.469 79.3182C102.815 78.8208 102.69 77.8828 103.187 77.2318Z" fill="#3F6CC1"/>
<path d="M79.5516 122.837C79.0134 122.221 79.0801 121.275 79.6973 120.739L86.5285 114.797C87.1457 114.26 88.0907 114.326 88.6289 114.943C89.1671 115.56 89.1004 116.504 88.4832 117.041L81.652 122.981C81.0348 123.521 80.0898 123.454 79.5516 122.837Z" fill="#3F6CC1"/>
<path d="M27.3797 135.16C26.8415 134.543 26.9082 133.597 27.5254 133.061L34.3567 127.12C34.9738 126.582 35.9208 126.649 36.457 127.265C36.9953 127.882 36.9285 128.828 36.3114 129.364L29.4801 135.305C28.8629 135.843 27.9159 135.778 27.3797 135.16Z" fill="#3F6CC1"/>
<path d="M56.2582 129.387C55.7625 130.038 54.8216 130.164 54.172 129.666L46.9745 124.174C46.323 123.676 46.1975 122.738 46.6953 122.087C47.1931 121.436 48.132 121.311 48.7835 121.808L55.981 127.301C56.6306 127.798 56.756 128.739 56.2582 129.387Z" fill="#3F6CC1"/>
<path d="M73.0227 108.031C72.4055 108.568 71.4586 108.502 70.9223 107.885L64.9774 101.06C64.4391 100.443 64.5059 99.4992 65.1231 98.9614C65.7402 98.4237 66.6872 98.4904 67.2234 99.107L73.1704 105.932C73.7066 106.549 73.6399 107.493 73.0227 108.031Z" fill="#3F6CC1"/>
<path d="M71.2276 82.0815C70.6185 82.6132 69.6816 82.5384 69.1232 81.9299L64.457 76.5584C65.3453 76.1278 66.2822 75.6708 67.2717 75.2402L71.3794 79.977C71.9115 80.5875 71.861 81.5498 71.2276 82.0815Z" fill="#3F6CC1"/>
<path d="M129.975 86.4895L124.042 90.8462C123.382 91.3274 122.443 91.1758 121.964 90.5167C121.761 90.264 121.66 89.9344 121.66 89.6292C121.66 89.1723 121.863 88.7174 122.269 88.4384L127.747 84.4355C128.53 85.0946 129.291 85.8042 129.975 86.4895Z" fill="#3F6CC1"/>
<path d="M146.261 115.588C145.987 116.361 145.134 116.767 144.361 116.496L135.821 113.48C135.049 113.207 134.64 112.354 134.913 111.582C135.186 110.809 136.042 110.403 136.813 110.674L145.352 113.69C146.127 113.963 146.534 114.818 146.261 115.588Z" fill="#3F6CC1"/>
<path d="M151.113 128.648C151.691 129.227 151.691 130.175 151.113 130.753L144.708 137.152C144.13 137.73 143.181 137.73 142.602 137.152C142.023 136.573 142.023 135.625 142.602 135.047L149.006 128.648C149.585 128.07 150.534 128.07 151.113 128.648Z" fill="#3F6CC1"/>
<path d="M104.523 49.1295C101.075 47.8235 97.6294 46.5175 94.1834 45.2115C90.7961 45.8585 87.4068 46.5034 84.0195 47.1503C84.3008 46.1961 84.7237 44.8396 85.3085 43.2324C86.5104 39.931 86.9455 39.557 87.1701 39.3932C88.4732 38.435 89.4789 39.5004 93.3902 39.5913C96.7411 39.6682 97.8298 38.9303 100.045 39.749C101.266 40.1999 102.14 40.8711 102.66 41.332C103.955 41.3583 105.248 41.3846 106.543 41.4108C106.541 42.3691 106.45 43.5598 106.146 44.8941C105.74 46.6894 105.086 48.1187 104.523 49.1295Z" fill="#332B33"/>
<path d="M87.4716 48.0846C87.4716 49.8778 86.3729 51.3314 85.0151 51.3314C83.6594 51.3314 82.5586 49.8778 82.5586 48.0846C82.5586 46.2914 83.6594 44.8398 85.0151 44.8398C86.3729 44.8378 87.4716 46.2914 87.4716 48.0846Z" fill="#EBA069"/>
<path d="M89.6376 56.8429C87.0212 56.8429 84.8945 54.7181 84.8945 52.1041C84.8945 49.4901 87.0232 47.3633 89.6376 47.3633C92.2519 47.3633 94.3806 49.4921 94.3806 52.1041C94.3826 54.7181 92.2539 56.8429 89.6376 56.8429ZM89.6376 48.0648C87.4097 48.0648 85.5967 49.8762 85.5967 52.1041C85.5967 54.3299 87.4097 56.1413 89.6376 56.1413C91.8654 56.1413 93.6785 54.3319 93.6785 52.1041C93.6805 49.8782 91.8675 48.0648 89.6376 48.0648Z" fill="#332B33"/>
<path d="M99.6688 59.999C97.0524 59.999 94.9258 57.8742 94.9258 55.2602C94.9258 52.6462 97.0545 50.5215 99.6688 50.5215C102.285 50.5215 104.412 52.6462 104.412 55.2602C104.414 57.8742 102.285 59.999 99.6688 59.999ZM99.6688 51.225C97.441 51.225 95.6279 53.0344 95.6279 55.2622C95.6279 57.4881 97.441 59.2975 99.6688 59.2975C101.897 59.2975 103.71 57.4881 103.71 55.2622C103.712 53.0344 101.899 51.225 99.6688 51.225Z" fill="#332B33"/>
<path d="M95.2915 54.5274L93.6484 53.9169L93.8912 53.2578L95.5363 53.8704L95.2915 54.5274Z" fill="#332B33"/>
<path d="M29.2752 144.242H3.04688C5.01572 133.161 6.98456 122.081 8.9534 111.002C13.743 111.002 18.5326 111.002 23.3221 111.002C25.3051 122.081 27.2902 133.161 29.2752 144.242Z" fill="#332B33"/>
<path d="M18.5984 119.988L17.9023 119.899C20.2718 100.645 25.4013 82.1446 33.1432 64.91C42.3136 44.5033 51.7956 23.4073 74.1894 11.7525C83.4145 6.95103 93.7382 4.31072 104.871 3.90234L104.896 4.60386C93.8677 5.00617 83.6451 7.6222 74.5132 12.3771C52.3359 23.9148 42.9065 44.8996 33.7867 65.191C26.0691 82.367 20.9618 100.803 18.5984 119.988Z" fill="#332B33"/>
<path d="M24.4406 39.1768C20.3734 59.6926 18.2811 69.9546 15.4826 70.088C11.3628 70.2861 4.8452 54.5415 6.52469 39.1768C8.71611 19.122 24.5599 2.58074 28.7121 4.46493C31.1079 5.55258 28.8841 16.7607 24.4406 39.1768Z" fill="#56A6F9" fill-opacity="0.7"/>
<path d="M13.7835 123.221C13.6399 109.233 13.6399 95.0593 13.7835 81.0977C14.0992 50.3321 14.9612 40.5189 18.393 28.5952C20.809 20.1992 24.1781 12.0257 28.4072 4.29688L29.0244 4.63247C24.8196 12.3148 21.4707 20.4418 19.0689 28.7873C15.6573 40.6382 14.8013 50.417 14.4877 81.1017C14.344 95.0613 14.344 109.229 14.4877 123.215L13.7835 123.221Z" fill="#332B33"/>
</svg>
