<svg width="24" height="24" viewBox="0 0 24 24" fill="none" xmlns="http://www.w3.org/2000/svg">
<path fill-rule="evenodd" clip-rule="evenodd" d="M4.65222 4.65222C5.06982 4.23461 5.63622 4 6.2268 4H8.70103C9.01988 4 9.27835 4.25847 9.27835 4.57732C9.27835 4.89616 9.01988 5.15464 8.70103 5.15464H6.2268C5.94245 5.15464 5.66974 5.2676 5.46867 5.46867C5.2676 5.66974 5.15464 5.94245 5.15464 6.2268V8.70103C5.15464 9.01988 4.89616 9.27835 4.57732 9.27835C4.25847 9.27835 4 9.01988 4 8.70103V6.2268C4 5.63622 4.23461 5.06982 4.65222 4.65222ZM14.7216 4.57732C14.7216 4.25847 14.9801 4 15.299 4H17.7732C18.3638 4 18.9302 4.23461 19.3478 4.65222C19.7654 5.06982 20 5.63622 20 6.2268V8.70103C20 9.01988 19.7415 9.27835 19.4227 9.27835C19.1038 9.27835 18.8454 9.01988 18.8454 8.70103V6.2268C18.8454 5.94245 18.7324 5.66974 18.5313 5.46867C18.3303 5.2676 18.0576 5.15464 17.7732 5.15464H15.299C14.9801 5.15464 14.7216 4.89616 14.7216 4.57732ZM4.57732 14.7216C4.89616 14.7216 5.15464 14.9801 5.15464 15.299V17.7732C5.15464 18.0576 5.2676 18.3303 5.46867 18.5313C5.66974 18.7324 5.94245 18.8454 6.2268 18.8454H8.70103C9.01988 18.8454 9.27835 19.1038 9.27835 19.4227C9.27835 19.7415 9.01988 20 8.70103 20H6.2268C5.63622 20 5.06982 19.7654 4.65222 19.3478C4.23461 18.9302 4 18.3638 4 17.7732V15.299C4 14.9801 4.25847 14.7216 4.57732 14.7216ZM19.4227 14.7216C19.7415 14.7216 20 14.9801 20 15.299V17.7732C20 18.3638 19.7654 18.9302 19.3478 19.3478C18.9302 19.7654 18.3638 20 17.7732 20H15.299C14.9801 20 14.7216 19.7415 14.7216 19.4227C14.7216 19.1038 14.9801 18.8454 15.299 18.8454H17.7732C18.0576 18.8454 18.3303 18.7324 18.5313 18.5313C18.7324 18.3303 18.8454 18.0576 18.8454 17.7732V15.299C18.8454 14.9801 19.1038 14.7216 19.4227 14.7216Z" fill="#101010"/>
</svg>
