<svg width="24" height="24" viewBox="0 0 24 24" fill="none" xmlns="http://www.w3.org/2000/svg">
<path fill-rule="evenodd" clip-rule="evenodd" d="M8.70103 4C9.01988 4 9.27835 4.25847 9.27835 4.57732V7.05155C9.27835 7.64213 9.04374 8.20853 8.62613 8.62613C8.20853 9.04374 7.64213 9.27835 7.05155 9.27835H4.57732C4.25847 9.27835 4 9.01988 4 8.70103C4 8.38219 4.25847 8.12371 4.57732 8.12371H7.05155C7.3359 8.12371 7.60861 8.01075 7.80968 7.80968C8.01075 7.60861 8.12371 7.3359 8.12371 7.05155V4.57732C8.12371 4.25847 8.38219 4 8.70103 4ZM15.299 4C15.6178 4 15.8763 4.25847 15.8763 4.57732V7.05155C15.8763 7.3359 15.9892 7.60861 16.1903 7.80968C16.3914 8.01075 16.6641 8.12371 16.9485 8.12371H19.4227C19.7415 8.12371 20 8.38219 20 8.70103C20 9.01988 19.7415 9.27835 19.4227 9.27835H16.9485C16.3579 9.27835 15.7915 9.04374 15.3739 8.62613C14.9563 8.20853 14.7216 7.64213 14.7216 7.05155V4.57732C14.7216 4.25847 14.9801 4 15.299 4ZM4 15.299C4 14.9801 4.25847 14.7216 4.57732 14.7216H7.05155C7.64213 14.7216 8.20853 14.9563 8.62613 15.3739C9.04374 15.7915 9.27835 16.3579 9.27835 16.9485V19.4227C9.27835 19.7415 9.01988 20 8.70103 20C8.38219 20 8.12371 19.7415 8.12371 19.4227V16.9485C8.12371 16.6641 8.01075 16.3914 7.80968 16.1903C7.60861 15.9892 7.3359 15.8763 7.05155 15.8763H4.57732C4.25847 15.8763 4 15.6178 4 15.299ZM16.9485 15.8763C16.6641 15.8763 16.3914 15.9892 16.1903 16.1903C15.9892 16.3914 15.8763 16.6641 15.8763 16.9485V19.4227C15.8763 19.7415 15.6178 20 15.299 20C14.9801 20 14.7216 19.7415 14.7216 19.4227V16.9485C14.7216 16.3579 14.9563 15.7915 15.3739 15.3739C15.7915 14.9563 16.3579 14.7216 16.9485 14.7216H19.4227C19.7415 14.7216 20 14.9801 20 15.299C20 15.6178 19.7415 15.8763 19.4227 15.8763H16.9485Z" fill="#101010"/>
</svg>
