<svg width="25" height="24" viewBox="0 0 25 24" fill="none" xmlns="http://www.w3.org/2000/svg">
<path d="M17.1168 3.75204C17.3552 3.51361 17.6383 3.32448 17.9498 3.19545C18.2613 3.06641 18.5952 3 18.9324 3C19.2696 3 19.6035 3.06641 19.915 3.19545C20.2265 3.32448 20.5095 3.51361 20.748 3.75204C20.9864 3.99046 21.1755 4.27351 21.3046 4.58503C21.4336 4.89655 21.5 5.23043 21.5 5.56761C21.5 5.90479 21.4336 6.23868 21.3046 6.55019C21.1755 6.86171 20.9864 7.14476 20.748 7.38319L8.49283 19.6383L3.5 21L4.86168 16.0072L17.1168 3.75204Z" stroke="#8A8A8A" stroke-width="1.2709" stroke-linecap="round" stroke-linejoin="round"/>
</svg>
