<svg width="24" height="24" viewBox="0 0 24 24" fill="none" xmlns="http://www.w3.org/2000/svg">
<path d="M17.94 17.1975C16.2306 18.3376 14.1491 18.9692 12 19C5 19 1 12 1 12C2.24389 9.97165 3.96914 8.19953 6.06 6.8025M9.9 5.21C10.5883 5.06902 11.2931 4.99855 12 5C19 5 23 12 23 12C22.393 12.9936 21.6691 13.9291 20.84 14.7912" stroke="#101010" stroke-width="1.4" stroke-linecap="round" stroke-linejoin="round"/>
<path d="M2 1L23 22" stroke="#101010" stroke-width="1.4" stroke-linecap="round" stroke-linejoin="round"/>
<path d="M14.2391 13.3682C13.1398 14.6078 11.2437 14.7215 10.0041 13.6222C8.76444 12.5229 8.65069 10.6268 9.75 9.38721" stroke="#101010" stroke-width="1.4" stroke-linecap="round" stroke-linejoin="round"/>
</svg>
