<svg width="20" height="20" viewBox="0 0 20 20" fill="none" xmlns="http://www.w3.org/2000/svg">
<path fill-rule="evenodd" clip-rule="evenodd" d="M4.16602 3.08317C3.8787 3.08317 3.60315 3.19731 3.39998 3.40047C3.19682 3.60364 3.08268 3.87919 3.08268 4.1665V15.8332C3.08268 16.1205 3.19682 16.396 3.39998 16.5992C3.60315 16.8024 3.8787 16.9165 4.16602 16.9165H7.49935C7.82152 16.9165 8.08268 17.1777 8.08268 17.4998C8.08268 17.822 7.82152 18.0832 7.49935 18.0832H4.16602C3.56928 18.0832 2.99698 17.8461 2.57503 17.4242C2.15307 17.0022 1.91602 16.4299 1.91602 15.8332V4.1665C1.91602 3.56977 2.15307 2.99747 2.57503 2.57551C2.99698 2.15356 3.56928 1.9165 4.16602 1.9165H7.49935C7.82152 1.9165 8.08268 2.17767 8.08268 2.49984C8.08268 2.822 7.82152 3.08317 7.49935 3.08317H4.16602Z" fill="black"/>
<path fill-rule="evenodd" clip-rule="evenodd" d="M12.9206 5.42085C13.1484 5.19305 13.5178 5.19305 13.7456 5.42085L17.9122 9.58752C18.14 9.81533 18.14 10.1847 17.9122 10.4125L13.7456 14.5791C13.5178 14.8069 13.1484 14.8069 12.9206 14.5791C12.6928 14.3513 12.6928 13.982 12.9206 13.7542L16.6748 10L12.9206 6.24581C12.6928 6.01801 12.6928 5.64866 12.9206 5.42085Z" fill="black"/>
<path fill-rule="evenodd" clip-rule="evenodd" d="M6.91602 9.99984C6.91602 9.67767 7.17718 9.4165 7.49935 9.4165H17.4993C17.8215 9.4165 18.0827 9.67767 18.0827 9.99984C18.0827 10.322 17.8215 10.5832 17.4993 10.5832H7.49935C7.17718 10.5832 6.91602 10.322 6.91602 9.99984Z" fill="black"/>
</svg>
