<svg width="25" height="24" viewBox="0 0 25 24" fill="none" xmlns="http://www.w3.org/2000/svg">
<path fill-rule="evenodd" clip-rule="evenodd" d="M2.7998 5.9998C2.7998 5.61321 3.11321 5.2998 3.4998 5.2998H21.4998C21.8864 5.2998 22.1998 5.61321 22.1998 5.9998C22.1998 6.3864 21.8864 6.6998 21.4998 6.6998H3.4998C3.11321 6.6998 2.7998 6.3864 2.7998 5.9998Z" fill="#101010"/>
<path fill-rule="evenodd" clip-rule="evenodd" d="M10.4998 2.6998C10.155 2.6998 9.82436 2.83677 9.58057 3.08057C9.33677 3.32436 9.1998 3.65502 9.1998 3.9998V5.9998C9.1998 6.3864 8.8864 6.6998 8.4998 6.6998C8.11321 6.6998 7.7998 6.3864 7.7998 5.9998V3.9998C7.7998 3.28372 8.08427 2.59696 8.59062 2.09062C9.09696 1.58427 9.78372 1.2998 10.4998 1.2998H14.4998C15.2159 1.2998 15.9026 1.58427 16.409 2.09062C16.9153 2.59696 17.1998 3.28372 17.1998 3.9998V5.9998C17.1998 6.3864 16.8864 6.6998 16.4998 6.6998C16.1132 6.6998 15.7998 6.3864 15.7998 5.9998V3.9998C15.7998 3.65502 15.6628 3.32436 15.419 3.08057C15.1752 2.83677 14.8446 2.6998 14.4998 2.6998H10.4998ZM5.4998 5.2998C5.8864 5.2998 6.1998 5.6132 6.1998 5.9998V19.9998C6.1998 20.3446 6.33677 20.6752 6.58057 20.919C6.82436 21.1628 7.15502 21.2998 7.4998 21.2998H17.4998C17.8446 21.2998 18.1752 21.1628 18.419 20.919C18.6628 20.6752 18.7998 20.3446 18.7998 19.9998V5.9998C18.7998 5.6132 19.1132 5.2998 19.4998 5.2998C19.8864 5.2998 20.1998 5.6132 20.1998 5.9998V19.9998C20.1998 20.7159 19.9153 21.4026 19.409 21.909C18.9026 22.4153 18.2159 22.6998 17.4998 22.6998H7.4998C6.78372 22.6998 6.09696 22.4153 5.59062 21.909C5.08427 21.4026 4.7998 20.7159 4.7998 19.9998V5.9998C4.7998 5.6132 5.11321 5.2998 5.4998 5.2998Z" fill="#101010"/>
</svg>
