<svg width="76" height="35" viewBox="0 0 76 35" fill="none" xmlns="http://www.w3.org/2000/svg">
<path d="M42.3498 0.971004C42.165 1.05672 41.9802 1.29481 41.9216 1.51386C41.8945 1.62338 41.8765 2.67576 41.8765 4.37576V7.06624L41.6511 6.79481C41.1553 6.21386 40.2672 5.64243 39.51 5.41862C39.0096 5.27576 37.7024 5.26148 37.1885 5.39957C36.1652 5.671 35.2502 6.31386 34.6191 7.19957C33.3389 8.99481 33.2532 11.6758 34.4253 13.5377C34.6822 13.9472 35.1735 14.4996 35.5341 14.7948C36.4763 15.5615 37.8286 15.9472 39.0817 15.8139C41.5384 15.5424 43.31 13.6424 43.5489 11.0234C43.5759 10.6853 43.5894 8.89481 43.5804 5.99957C43.5669 0.971004 43.5894 1.34243 43.2468 1.06148C43.1116 0.951956 43.026 0.928147 42.7826 0.918623C42.5977 0.909099 42.4309 0.928147 42.3498 0.971004ZM39.4739 6.95672C39.8525 7.05672 40.1726 7.21862 40.5512 7.50433C41.9486 8.54719 42.3588 10.8139 41.4663 12.5234C41.2139 13.0043 40.6188 13.6281 40.1861 13.8662C39.6632 14.152 39.244 14.2567 38.5859 14.2567C38.1396 14.2567 37.9503 14.2329 37.6618 14.1472C36.5123 13.8043 35.6739 12.9043 35.3313 11.6377C35.1871 11.09 35.1871 9.99957 35.3313 9.45671C35.5026 8.82814 35.7595 8.36624 36.1968 7.89957C37.0758 6.96148 38.2388 6.62814 39.4739 6.95672Z" fill="white"/>
<path d="M5.92854 1.13778C5.71217 1.24254 5.57243 1.39493 5.47777 1.62826C5.41917 1.7854 5.41016 2.54254 5.41016 8.27112C5.41016 12.3759 5.42819 14.7997 5.45523 14.8997C5.56342 15.2949 6.00517 15.5664 6.4289 15.4997C6.69035 15.4616 6.99236 15.1854 7.06899 14.914C7.13661 14.6711 7.14563 1.9235 7.07801 1.66635C6.99687 1.35207 6.59118 1.04731 6.25761 1.04731C6.17647 1.04731 6.02771 1.09016 5.92854 1.13778Z" fill="white"/>
<path d="M18.7971 1.23296C18.4725 1.33772 18.175 1.60915 18.0578 1.91391C17.9587 2.15677 17.9677 2.59487 18.0713 2.83296C18.2471 3.24249 18.6393 3.51868 19.045 3.52344C19.4191 3.52344 19.6085 3.44249 19.8564 3.17582C20.217 2.78534 20.2936 2.32344 20.0773 1.8663C19.8384 1.35677 19.2794 1.08058 18.7971 1.23296Z" fill="white"/>
<path d="M28.6926 5.31431C27.9759 5.48098 27.3403 5.83812 26.8219 6.36669L26.4703 6.71907L26.4523 6.27621C26.4433 5.90479 26.4208 5.80955 26.3351 5.67621C26.1773 5.44764 25.9925 5.36193 25.6499 5.36193C25.3073 5.36193 25.1225 5.44764 24.9648 5.67621L24.8611 5.83336L24.8476 10.4953C24.8385 15.1286 24.8385 15.1572 24.9287 15.3619C25.0639 15.6572 25.3254 15.781 25.7266 15.7476C26.0376 15.7238 26.1773 15.6476 26.3441 15.4095C26.4388 15.281 26.4388 15.2191 26.4613 12.0334C26.4839 8.85717 26.4839 8.78098 26.5785 8.51431C26.8535 7.76193 27.5206 7.17145 28.3996 6.92383C28.7287 6.8286 29.6167 6.80955 30.4506 6.87145C30.8293 6.90002 30.9735 6.89526 31.0547 6.84764C31.2981 6.70479 31.4469 6.32383 31.3702 6.02383C31.3071 5.78574 30.9735 5.49526 30.6129 5.37621C30.2117 5.23812 29.1569 5.20479 28.6926 5.31431Z" fill="white"/>
<path d="M18.7833 5.39914C18.567 5.48485 18.4002 5.64199 18.319 5.84199C18.2244 6.07056 18.2244 15.0229 18.319 15.2515C18.5895 15.9182 19.5632 15.9229 19.8381 15.2563C19.9238 15.061 19.9238 14.8849 19.9148 10.4658L19.9012 5.88009L19.7976 5.72771C19.5812 5.4039 19.1349 5.26104 18.7833 5.39914Z" fill="white"/>
<path d="M8.54206 7.37567C8.00564 7.62805 7.86139 8.33758 8.25356 8.78044C8.49698 9.06139 8.63672 9.09472 9.61489 9.09472C10.7734 9.09472 11.2557 9.20425 11.9364 9.62329C12.3511 9.88044 12.9281 10.5281 13.1489 10.9757C13.46 11.609 13.5456 11.9757 13.5456 12.6662C13.5456 13.3804 13.478 13.69 13.1805 14.3281C13.0047 14.6995 12.901 14.8519 12.581 15.19C12.031 15.7757 11.4315 16.1138 10.7193 16.2376C10.539 16.2662 8.66827 16.2852 5.56697 16.2852C0.937554 16.2852 0.68963 16.29 0.518337 16.3757C0.15772 16.5471 -0.040619 16.9376 0.0179812 17.3566C0.0585506 17.6423 0.319998 17.9566 0.581445 18.0376C0.712168 18.0804 2.03743 18.0947 5.66163 18.0947C9.94846 18.0947 10.6246 18.0852 10.9942 18.0185C14.0956 17.4662 15.9978 14.1519 15.0241 10.9995C14.6094 9.65663 13.6538 8.49472 12.4187 7.84234C11.6163 7.41853 10.9447 7.2852 9.65095 7.2852C8.84858 7.2852 8.69983 7.29948 8.54206 7.37567Z" fill="white"/>
<path d="M5.92854 19.1854C5.71217 19.2902 5.57243 19.4426 5.47777 19.6759C5.41917 19.833 5.41016 20.4426 5.41016 24.7949C5.41016 27.8997 5.42819 29.7997 5.45523 29.8997C5.56342 30.2949 6.00517 30.5664 6.4289 30.4997C6.69035 30.4616 6.99236 30.1854 7.06899 29.914C7.13661 29.6711 7.14563 19.9664 7.07801 19.714C6.99687 19.3997 6.59118 19.0949 6.25761 19.0949C6.17647 19.0949 6.02771 19.1378 5.92854 19.1854Z" fill="white"/>
<path d="M29.598 20.0471C28.7371 20.1948 27.9617 20.5614 27.3352 21.1233L27.1008 21.3328L27.0827 20.9757C27.0647 20.5852 26.9926 20.4376 26.7311 20.2519C26.5328 20.109 26.3029 20.0709 26.055 20.1376C25.807 20.209 25.5321 20.4757 25.469 20.7138C25.4059 20.9519 25.4104 29.6805 25.4735 29.9186C25.5321 30.1567 25.7484 30.409 25.9513 30.4805C26.1857 30.5614 26.5959 30.5138 26.7627 30.39C26.8393 30.3328 26.9475 30.19 26.9971 30.0805C27.0917 29.8805 27.0917 29.8186 27.0917 26.9233C27.0917 23.39 27.0917 23.4138 27.556 22.7709C27.8626 22.3471 28.3855 21.9757 28.985 21.7614C29.3997 21.6138 30.1885 21.5805 30.7024 21.6852C31.7617 21.909 32.5416 22.6471 32.8481 23.7138C32.9157 23.9424 32.9292 24.3614 32.9473 26.9281C32.9743 29.6995 32.9788 29.89 33.0599 30.0614C33.1997 30.3567 33.407 30.4948 33.7586 30.5138C34.1238 30.5328 34.3086 30.4424 34.5069 30.1471L34.6421 29.9424L34.6557 27.3424C34.6692 24.5471 34.6467 24.0281 34.4618 23.2614C34.0787 21.6567 32.8751 20.4614 31.3064 20.1186C30.8737 20.0233 29.9677 19.9852 29.598 20.0471Z" fill="white"/>
<path d="M15.1503 20.1476C13.1624 20.5905 11.7064 22.1905 11.3818 24.2905C11.3052 24.8143 11.2917 25.6952 11.3638 26.219C11.5441 27.6 12.2158 28.8047 13.257 29.619C14.4065 30.5238 16.151 30.8333 17.7287 30.4095C19.5588 29.919 20.9201 28.2905 21.2086 26.2524C21.4656 24.4571 20.9697 22.7285 19.8563 21.5428C19.1576 20.7952 18.2516 20.3 17.2689 20.119C16.719 20.0143 15.6822 20.0285 15.1503 20.1476ZM17.039 21.6762C17.9631 21.8619 18.7745 22.5143 19.2252 23.4333C19.5453 24.0857 19.6219 24.4571 19.6264 25.3095C19.6264 26.1524 19.5633 26.4714 19.2703 27.119C18.8646 28.0143 18.1163 28.6666 17.2418 28.9047C15.2855 29.4333 13.523 28.3666 13.0271 26.3571C12.8919 25.8143 12.8919 24.9 13.0226 24.3095C13.4644 22.3666 15.1097 21.2905 17.039 21.6762Z" fill="white"/>
<path d="M42.584 20.1187C40.8125 20.471 39.4061 21.7663 38.8832 23.5234C38.5586 24.5996 38.5496 25.9377 38.8561 27.0949C39.2032 28.3996 40.1679 29.6187 41.2723 30.1472C41.9439 30.471 42.9356 30.6568 43.6343 30.5949C44.0625 30.5568 44.635 30.4187 44.9776 30.2663C45.5907 30.0044 46.2939 29.4091 46.6905 28.8091C46.8032 28.6377 46.9159 28.4758 46.9385 28.452C46.9655 28.4234 46.97 28.7329 46.9565 29.2615C46.9385 29.9329 46.9159 30.1996 46.8393 30.4996C46.393 32.2568 45.0858 33.271 43.3864 33.1758C42.2549 33.1091 41.3309 32.6615 40.6457 31.8377C40.3482 31.4853 40.0822 31.3568 39.7892 31.4282C39.4331 31.5091 39.1266 31.8568 39.1266 32.171C39.1266 32.6615 40.0372 33.6187 40.9793 34.1234C41.7771 34.5425 42.4172 34.7139 43.3684 34.7472C44.6035 34.7949 45.4825 34.5472 46.4336 33.8758C47.529 33.1044 48.3539 31.6758 48.5432 30.2187C48.6243 29.6139 48.6063 24.9377 48.5252 24.3949C48.2051 22.3139 46.8663 20.7234 44.9911 20.2044C44.6215 20.0996 44.4367 20.0806 43.747 20.0663C43.1655 20.0568 42.8364 20.071 42.584 20.1187ZM43.9769 21.6187C45.2977 21.7663 46.2893 22.5806 46.7446 23.8901C47.0872 24.8949 47.0331 26.1853 46.6049 27.1139C46.1947 28.0044 45.4735 28.6377 44.5584 28.9091C44.0625 29.0568 43.188 29.0568 42.6742 28.9139C41.4526 28.5663 40.5781 27.5568 40.3211 26.1949C40.2265 25.7091 40.249 24.6615 40.3617 24.2139C40.5015 23.671 40.808 23.0901 41.1821 22.6663C41.8042 21.971 42.3496 21.7187 43.5216 21.5758C43.5487 21.5758 43.7515 21.5949 43.9769 21.6187Z" fill="white"/>
<path d="M69.7601 20.1185C67.8353 20.5375 66.4289 22.0566 66.0593 24.1137C65.897 25.0137 65.9285 26.0233 66.1494 26.8899C66.6272 28.7804 68.0787 30.1518 69.9765 30.509C70.5219 30.609 71.446 30.609 71.9418 30.509C72.361 30.4233 72.938 30.228 73.3527 30.0328C73.7584 29.8376 74.367 29.3995 74.4661 29.228C74.6419 28.9233 74.5202 28.4804 74.1957 28.2471C74.0605 28.1518 73.9973 28.1376 73.7449 28.1518C73.4835 28.1709 73.4159 28.1947 73.1048 28.4137C72.4377 28.8756 71.8066 29.0709 70.9727 29.0709C70.2695 29.0661 69.9359 28.9852 69.3319 28.6804C68.9667 28.4947 68.8495 28.4042 68.4979 28.028C68.2725 27.7899 68.0201 27.4709 67.9345 27.3233C67.7767 27.0328 67.5513 26.3804 67.5107 26.0852L67.4837 25.9042L71.153 25.8947C74.7997 25.8804 74.8223 25.8804 74.9485 25.7804C75.1919 25.5852 75.255 25.4042 75.246 24.9137C75.2009 22.5709 74.0154 20.8042 72.0996 20.209C71.739 20.0947 71.5992 20.0804 70.8825 20.0661C70.301 20.0566 69.981 20.0709 69.7601 20.1185ZM71.6037 21.6423C72.5459 21.8995 73.2987 22.728 73.6007 23.8328C73.6503 24.0137 73.7043 24.2471 73.7224 24.3423L73.7494 24.5233H70.6346H67.5153L67.5468 24.3185C67.5964 24.0042 67.8173 23.409 68.0066 23.0804C68.2185 22.7137 68.6873 22.2185 69.0208 22.009C69.3364 21.809 69.8007 21.6375 70.1838 21.5756C70.5625 21.5137 71.2567 21.5471 71.6037 21.6423Z" fill="white"/>
<path d="M52.9553 20.2331C52.82 20.3236 52.7209 20.4427 52.6533 20.5808C52.5586 20.7903 52.5586 20.8284 52.5586 23.4808C52.5586 26.2474 52.5766 26.6665 52.7434 27.3569C53.0454 28.5998 53.8613 29.6522 54.9251 30.1712C55.9394 30.6665 57.3097 30.7522 58.3961 30.395C58.9731 30.1998 59.3697 29.9665 59.8746 29.5141L60.1315 29.2807V29.595C60.1315 29.9569 60.1947 30.1141 60.42 30.3236C60.7987 30.676 61.4703 30.5379 61.6912 30.0617C61.7724 29.8855 61.7769 29.7093 61.7769 25.3093C61.7769 20.8903 61.7724 20.7331 61.6912 20.5522C61.4568 20.0569 60.7716 19.9379 60.3885 20.3236C60.1225 20.5903 60.1315 20.4569 60.1315 23.6046C60.1315 25.3855 60.1135 26.6188 60.082 26.8093C59.9287 27.8331 59.0993 28.676 57.9949 28.9284C57.4404 29.0569 56.5795 29.0141 56.0746 28.8236C55.1821 28.4998 54.6186 27.8427 54.3527 26.8236C54.258 26.4665 54.2535 26.3284 54.231 23.5427L54.2039 20.6331L54.0777 20.4617C53.8027 20.0808 53.3294 19.9855 52.9553 20.2331Z" fill="white"/>
</svg>
