<svg width="24" height="24" viewBox="0 0 24 24" fill="none" xmlns="http://www.w3.org/2000/svg">
<path fill-rule="evenodd" clip-rule="evenodd" d="M18.4948 5.50483C18.7681 5.7782 18.7681 6.22141 18.4948 6.49478L6.49478 18.4948C6.22141 18.7681 5.7782 18.7681 5.50483 18.4948C5.23146 18.2214 5.23146 17.7782 5.50483 17.5048L17.5048 5.50483C17.7782 5.23146 18.2214 5.23146 18.4948 5.50483Z" fill="#101010"/>
<path fill-rule="evenodd" clip-rule="evenodd" d="M5.50483 5.50483C5.7782 5.23146 6.22141 5.23146 6.49478 5.50483L18.4948 17.5048C18.7681 17.7782 18.7681 18.2214 18.4948 18.4948C18.2214 18.7681 17.7782 18.7681 17.5048 18.4948L5.50483 6.49478C5.23146 6.22141 5.23146 5.7782 5.50483 5.50483Z" fill="#101010"/>
</svg>
