<svg width="24" height="24" viewBox="0 0 24 24" fill="none" xmlns="http://www.w3.org/2000/svg">
<path fill-rule="evenodd" clip-rule="evenodd" d="M7.00005 3.70005C6.65527 3.70005 6.32461 3.83701 6.08081 4.08081C5.83701 4.32461 5.70005 4.65527 5.70005 5.00005V19.6398L11.5932 15.4304C11.8366 15.2566 12.1635 15.2566 12.4069 15.4304L18.3 19.6398V5.00005C18.3 4.65527 18.1631 4.32461 17.9193 4.08081C17.6755 3.83701 17.3448 3.70005 17 3.70005H7.00005ZM5.09086 3.09086C5.59721 2.58451 6.28396 2.30005 7.00005 2.30005H17C17.7161 2.30005 18.4029 2.58451 18.9092 3.09086C19.4156 3.59721 19.7 4.28396 19.7 5.00005V21C19.7 21.2623 19.5535 21.5025 19.3204 21.6225C19.0872 21.7425 18.8066 21.7221 18.5932 21.5697L12 16.8603L5.40692 21.5697C5.19355 21.7221 4.91289 21.7425 4.67974 21.6225C4.44659 21.5025 4.30005 21.2623 4.30005 21V5.00005C4.30005 4.28396 4.58451 3.59721 5.09086 3.09086Z" fill="#56A6F9"/>
<rect x="5" y="3" width="14" height="14" rx="2" fill="#56A6F9"/>
<rect x="4" y="17.7401" width="5.7871" height="3.64391" rx="1" transform="rotate(-40.2616 4 17.7401)" fill="#56A6F9"/>
<rect x="17.5773" y="20.8096" width="6.07227" height="4.16175" rx="1" transform="rotate(-144.375 17.5773 20.8096)" fill="#56A6F9"/>
</svg>
