<svg width="20" height="20" viewBox="0 0 20 20" fill="none" xmlns="http://www.w3.org/2000/svg">
<path fill-rule="evenodd" clip-rule="evenodd" d="M5.83301 3.08317C5.54569 3.08317 5.27014 3.19731 5.06698 3.40047C4.86381 3.60364 4.74967 3.87919 4.74967 4.1665V16.3663L9.66062 12.8585C9.86344 12.7136 10.1359 12.7136 10.3387 12.8585L15.2497 16.3663V4.1665C15.2497 3.87919 15.1355 3.60364 14.9324 3.40047C14.7292 3.19731 14.4537 3.08317 14.1663 3.08317H5.83301ZM4.24202 2.57551C4.66397 2.15356 5.23627 1.9165 5.83301 1.9165H14.1663C14.7631 1.9165 15.3354 2.15356 15.7573 2.57551C16.1793 2.99747 16.4163 3.56977 16.4163 4.1665V17.4998C16.4163 17.7183 16.2942 17.9185 16.0999 18.0185C15.9056 18.1185 15.6718 18.1015 15.494 17.9745L9.99967 14.05L4.5054 17.9745C4.32759 18.1015 4.09371 18.1185 3.89942 18.0185C3.70513 17.9185 3.58301 17.7183 3.58301 17.4998V4.1665C3.58301 3.56977 3.82006 2.99747 4.24202 2.57551Z" fill="#101010"/>
</svg>
