<svg width="22" height="22" viewBox="0 0 22 22" fill="none" xmlns="http://www.w3.org/2000/svg">
<g clip-path="url(#clip0_1103_17721)">
<path d="M2.0625 1.375C1.88016 1.375 1.7053 1.44743 1.57636 1.57636C1.44743 1.7053 1.375 1.88016 1.375 2.0625V7.5625C1.375 7.74484 1.30257 7.9197 1.17364 8.04864C1.0447 8.17757 0.869836 8.25 0.6875 8.25C0.505164 8.25 0.330295 8.17757 0.201364 8.04864C0.0724328 7.9197 0 7.74484 0 7.5625V2.0625C0 1.51549 0.217298 0.990886 0.604092 0.604092C0.990886 0.217298 1.51549 0 2.0625 0L7.5625 0C7.74484 0 7.9197 0.0724328 8.04864 0.201364C8.17757 0.330295 8.25 0.505164 8.25 0.6875C8.25 0.869836 8.17757 1.0447 8.04864 1.17364C7.9197 1.30257 7.74484 1.375 7.5625 1.375H2.0625ZM13.75 0.6875C13.75 0.505164 13.8224 0.330295 13.9514 0.201364C14.0803 0.0724328 14.2552 0 14.4375 0L19.9375 0C20.4845 0 21.0091 0.217298 21.3959 0.604092C21.7827 0.990886 22 1.51549 22 2.0625V7.5625C22 7.74484 21.9276 7.9197 21.7986 8.04864C21.6697 8.17757 21.4948 8.25 21.3125 8.25C21.1302 8.25 20.9553 8.17757 20.8264 8.04864C20.6974 7.9197 20.625 7.74484 20.625 7.5625V2.0625C20.625 1.88016 20.5526 1.7053 20.4236 1.57636C20.2947 1.44743 20.1198 1.375 19.9375 1.375H14.4375C14.2552 1.375 14.0803 1.30257 13.9514 1.17364C13.8224 1.0447 13.75 0.869836 13.75 0.6875ZM0.6875 13.75C0.869836 13.75 1.0447 13.8224 1.17364 13.9514C1.30257 14.0803 1.375 14.2552 1.375 14.4375V19.9375C1.375 20.1198 1.44743 20.2947 1.57636 20.4236C1.7053 20.5526 1.88016 20.625 2.0625 20.625H7.5625C7.74484 20.625 7.9197 20.6974 8.04864 20.8264C8.17757 20.9553 8.25 21.1302 8.25 21.3125C8.25 21.4948 8.17757 21.6697 8.04864 21.7986C7.9197 21.9276 7.74484 22 7.5625 22H2.0625C1.51549 22 0.990886 21.7827 0.604092 21.3959C0.217298 21.0091 0 20.4845 0 19.9375L0 14.4375C0 14.2552 0.0724328 14.0803 0.201364 13.9514C0.330295 13.8224 0.505164 13.75 0.6875 13.75ZM21.3125 13.75C21.4948 13.75 21.6697 13.8224 21.7986 13.9514C21.9276 14.0803 22 14.2552 22 14.4375V19.9375C22 20.4845 21.7827 21.0091 21.3959 21.3959C21.0091 21.7827 20.4845 22 19.9375 22H14.4375C14.2552 22 14.0803 21.9276 13.9514 21.7986C13.8224 21.6697 13.75 21.4948 13.75 21.3125C13.75 21.1302 13.8224 20.9553 13.9514 20.8264C14.0803 20.6974 14.2552 20.625 14.4375 20.625H19.9375C20.1198 20.625 20.2947 20.5526 20.4236 20.4236C20.5526 20.2947 20.625 20.1198 20.625 19.9375V14.4375C20.625 14.2552 20.6974 14.0803 20.8264 13.9514C20.9553 13.8224 21.1302 13.75 21.3125 13.75Z" fill="white"/>
</g>
<defs>
<clipPath id="clip0_1103_17721">
<rect width="22" height="22" fill="white"/>
</clipPath>
</defs>
</svg>
