<svg width="31" height="31" viewBox="0 0 31 31" fill="none" xmlns="http://www.w3.org/2000/svg">
<path d="M22.3503 27.1445C23.8819 25.6171 25.0966 23.8021 25.9245 21.8037C26.7524 19.8054 27.1773 17.6631 27.1746 15.5001C27.1773 13.337 26.7524 11.1948 25.9245 9.19645C25.0966 7.19811 23.8819 5.3831 22.3503 3.85571L20.9785 5.22553C22.33 6.57323 23.4017 8.17474 24.1322 9.93799C24.8628 11.7013 25.2376 13.5915 25.2352 15.5001C25.2352 19.5127 23.6077 23.1455 20.9785 25.7747L22.3503 27.1445V27.1445Z" fill="white"/>
<path d="M19.61 24.4047C20.7812 23.2366 21.71 21.8486 22.3431 20.3205C22.9762 18.7923 23.3011 17.1541 23.299 15.5C23.3011 13.8459 22.9762 12.2076 22.3431 10.6795C21.71 9.15131 20.7812 7.7633 19.61 6.59521L18.2402 7.96503C19.2312 8.95344 20.0171 10.1279 20.5528 11.421C21.0885 12.7141 21.3633 14.1003 21.3615 15.5C21.3638 16.8998 21.0894 18.2863 20.5541 19.5797C20.0187 20.8732 19.233 22.048 18.2422 23.0368L19.61 24.4047Z" fill="white"/>
<path d="M19.4234 15.5C19.4249 16.6452 19.2001 17.7794 18.7619 18.8374C18.3236 19.8954 17.6806 20.8564 16.8698 21.6651L15.5 20.2953C16.1306 19.6663 16.6307 18.9188 16.9715 18.0958C17.3124 17.2729 17.4872 16.3907 17.4859 15.5C17.4859 13.6284 16.7264 11.9331 15.5 10.7047L16.8698 9.33487C17.6806 10.1436 18.3236 11.1046 18.7619 12.1626C19.2001 13.2206 19.4249 14.3548 19.4234 15.5V15.5ZM13.5625 7.74999C13.5622 7.56771 13.5106 7.38919 13.4134 7.23496C13.3162 7.08073 13.1775 6.95705 13.0132 6.87812C12.8489 6.7992 12.6656 6.76824 12.4845 6.78881C12.3033 6.80937 12.1317 6.88062 11.9893 6.99437L7.41094 10.6562H2.90625C2.64932 10.6562 2.40292 10.7583 2.22124 10.94C2.03956 11.1217 1.9375 11.3681 1.9375 11.625V19.375C1.9375 19.6319 2.03956 19.8783 2.22124 20.06C2.40292 20.2417 2.64932 20.3437 2.90625 20.3437H7.41094L11.9893 24.0056C12.1317 24.1194 12.3033 24.1906 12.4845 24.2112C12.6656 24.2317 12.8489 24.2008 13.0132 24.1219C13.1775 24.0429 13.3162 23.9193 13.4134 23.765C13.5106 23.6108 13.5622 23.4323 13.5625 23.25V7.74999ZM8.3545 12.3806L11.625 9.765V21.235L8.3545 18.6194C8.18302 18.4818 7.96985 18.4066 7.75 18.4062H3.875V12.5937H7.75C7.96985 12.5934 8.18302 12.5182 8.3545 12.3806V12.3806Z" fill="white"/>
<path d="M3 27.5L26.5 4" stroke="white" stroke-width="2"/>
</svg>
