<svg width="13" height="17" viewBox="0 0 13 17" fill="none" xmlns="http://www.w3.org/2000/svg">
<path d="M1.3 0C1.64478 0 1.97544 0.093995 2.21924 0.261307C2.46304 0.428619 2.6 0.655542 2.6 0.892157V15.1667C2.6 15.4033 2.46304 15.6302 2.21924 15.7975C1.97544 15.9648 1.64478 16.0588 1.3 16.0588C0.955218 16.0588 0.624559 15.9648 0.380761 15.7975C0.136964 15.6302 0 15.4033 0 15.1667V0.892157C0 0.655542 0.136964 0.428619 0.380761 0.261307C0.624559 0.093995 0.955218 0 1.3 0ZM11.7 0C12.0448 0 12.3754 0.093995 12.6192 0.261307C12.863 0.428619 13 0.655542 13 0.892157V15.1667C13 15.4033 12.863 15.6302 12.6192 15.7975C12.3754 15.9648 12.0448 16.0588 11.7 16.0588C11.3552 16.0588 11.0246 15.9648 10.7808 15.7975C10.537 15.6302 10.4 15.4033 10.4 15.1667V0.892157C10.4 0.655542 10.537 0.428619 10.7808 0.261307C11.0246 0.093995 11.3552 0 11.7 0Z" fill="white"/>
</svg>
