<svg width="28" height="28" viewBox="0 0 28 28" fill="none" xmlns="http://www.w3.org/2000/svg">
<g clip-path="url(#clip0_1103_17717)">
<path d="M0.875 21.875C0.642935 21.875 0.420376 21.7828 0.256281 21.6187C0.092186 21.4546 5.62604e-08 21.2321 7.65482e-08 21L1.30047e-06 7C1.32075e-06 6.76793 0.0921873 6.54537 0.256282 6.38128C0.420377 6.21719 0.642936 6.125 0.875001 6.125C1.10707 6.125 1.32963 6.21719 1.49372 6.38128C1.65782 6.54537 1.75 6.76793 1.75 7L1.75 12.6822L12.7173 6.31925C13.6623 5.7715 14.875 6.43475 14.875 7.539L14.875 12.684L25.8423 6.321C26.7873 5.76975 28 6.433 28 7.53725L28 20.461C28 21.5635 26.7872 22.2285 25.8422 21.679L14.875 15.316L14.875 20.461C14.875 21.5635 13.6623 22.2285 12.7173 21.679L1.75 15.316L1.75 21C1.75 21.2321 1.65781 21.4546 1.49372 21.6187C1.32962 21.7828 1.10707 21.875 0.875 21.875Z" fill="white"/>
</g>
<defs>
<clipPath id="clip0_1103_17717">
<rect width="28" height="28" fill="white" transform="translate(28 28) rotate(-180)"/>
</clipPath>
</defs>
</svg>
