<svg width="28" height="28" viewBox="0 0 28 28" fill="none" xmlns="http://www.w3.org/2000/svg">
<path d="M27.125 6.125C27.3571 6.125 27.5796 6.21719 27.7437 6.38128C27.9078 6.54537 28 6.76793 28 7V21C28 21.2321 27.9078 21.4546 27.7437 21.6187C27.5796 21.7828 27.3571 21.875 27.125 21.875C26.8929 21.875 26.6704 21.7828 26.5063 21.6187C26.3422 21.4546 26.25 21.2321 26.25 21V15.3177L15.2827 21.6807C14.3377 22.2285 13.125 21.5652 13.125 20.461V15.316L2.15775 21.679C1.21275 22.2302 0 21.567 0 20.4627V7.539C0 6.4365 1.21275 5.7715 2.15775 6.321L13.125 12.684V7.539C13.125 6.4365 14.3377 5.7715 15.2827 6.321L26.25 12.684V7C26.25 6.76793 26.3422 6.54537 26.5063 6.38128C26.6704 6.21719 26.8929 6.125 27.125 6.125Z" fill="white"/>
</svg>
